<svg xmlns="http://www.w3.org/2000/svg" width="26" height="26" viewBox="0 0 26 26"><path d="M 13 0 C 5.8202983 0 -5.994861e-018 5.8202983 0 13 C 0 20.179702 5.8202983 26 13 26 C 20.179702 26 26 20.179702 26 13 L 25.5625 9.625 C 24.039641 3.9416145 18.883874 -2.2816191e-017 13 0 z M 16.125 6.03125 L 16.625 6.03125 L 16.625 6.53125 C 16.62814 7.56025 16.353437 8.3678 15.75 9.0625 C 15.117159 9.791 14.313783 10 13.5625 10 L 13.0625 10 L 13.0625 9.5 C 13.0625 8.6217 13.298895 7.8329 13.75 7.1875 C 14.207992 6.5323 14.976922 6.03125 16.125 6.03125 z M 15.6875 10.90625 L 15.6875 10.9375 C 16.242858 10.9375 16.641589 11.0849 17.0625 11.375 C 17.188535 11.461 17.3668 11.6205 17.5 11.75 C 17.287002 11.9582 17.012382 12.1709 16.875 12.375 L 16.875 12.40625 C 16.49989 12.97605 16.3125 13.59545 16.3125 14.28125 C 16.3125 15.00385 16.505184 15.708 16.9375 16.3125 C 17.224495 16.6971 17.57986 16.87345 17.9375 17.09375 C 17.753306 17.60765 17.546883 18.12225 17.1875 18.65625 C 16.549827 19.61375 15.986113 19.96875 15.5625 19.96875 C 15.444477 19.96875 15.058545 19.9026 14.625 19.75 C 14.155707 19.5663 13.674245 19.4375 13.25 19.4375 C 12.84748 19.4375 12.401806 19.5562 11.9375 19.75 C 11.532622 19.9112 11.27986 19.96875 11.125 19.96875 C 10.857759 19.96875 10.52108 19.87575 10.1875 19.59375 C 9.8586387 19.31545 9.4954598 18.84615 9.125 18.21875 C 9.11991 18.20875 9.13005 18.1965 9.125 18.1875 C 8.4018115 16.9103 8.0625 15.67795 8.0625 14.53125 C 8.0625 13.42335 8.2970228 12.56805 8.8125 11.90625 C 9.3274854 11.24505 9.9261164 10.96875 10.6875 10.96875 C 10.980965 10.96875 11.414371 11.0427 11.9375 11.1875 C 12.49435 11.3417 12.847566 11.4375 13.1875 11.4375 C 13.547696 11.4375 13.954268 11.33635 14.5 11.15625 C 14.991231 10.99415 15.39393 10.90625 15.6875 10.90625 z " color="#000" overflow="visible" style="marker:none"/></svg>