<svg xmlns="http://www.w3.org/2000/svg" data-name="Layer 1" viewBox="0 0 512 512"><g data-name="&lt;Group&gt;"><path d="M234.6,448.219a191.169,191.169,0,0,0,112.288-36.305,79.3,79.3,0,0,1,104.768,19.42,10,10,0,1,0,15.927-12.1,99.2,99.2,0,0,0-86.538-38.881A191.364,191.364,0,0,0,426.819,256c0-105.99-86.229-192.219-192.219-192.219S42.38,150.01,42.38,256,128.609,448.219,234.6,448.219Zm0-364.438c94.962,0,172.219,77.257,172.219,172.219a172.091,172.091,0,0,1-70.98,139.228q-3.7,2.325-7.248,5.008A171.194,171.194,0,0,1,234.6,428.219c-94.962,0-172.22-77.257-172.22-172.219S139.638,83.781,234.6,83.781Z" data-name="&lt;Compound Path&gt;"/><path d="M234.6 217.47A38.53 38.53 0 1 0 273.129 256 38.573 38.573 0 0 0 234.6 217.47zm0 57.06A18.53 18.53 0 1 1 253.129 256 18.551 18.551 0 0 1 234.6 274.53zM234.6 204.006A46.508 46.508 0 1 0 188.092 157.5 46.56 46.56 0 0 0 234.6 204.006zm0-73.015A26.508 26.508 0 1 1 208.092 157.5 26.537 26.537 0 0 1 234.6 130.991zM234.6 411.954a46.508 46.508 0 1 0-46.508-46.508A46.56 46.56 0 0 0 234.6 411.954zm0-73.015a26.508 26.508 0 1 1-26.508 26.507A26.537 26.537 0 0 1 234.6 338.939zM338.574 307.98a46.508 46.508 0 1 0-46.508-46.508A46.56 46.56 0 0 0 338.574 307.98zm0-73.015a26.508 26.508 0 1 1-26.508 26.507A26.537 26.537 0 0 1 338.574 234.965zM177.133 261.472a46.508 46.508 0 1 0-46.508 46.508A46.56 46.56 0 0 0 177.133 261.472zm-73.015 0a26.508 26.508 0 1 1 26.507 26.508A26.537 26.537 0 0 1 104.118 261.472z" data-name="&lt;Compound Path&gt;"/></g></svg>