<svg xmlns="http://www.w3.org/2000/svg" data-name="Layer 1" viewBox="0 0 32 32"><path d="M29.5,8H2.5A2.5,2.5,0,0,0,0,10.5v14A2.5,2.5,0,0,0,2.5,27h27A2.5,2.5,0,0,0,32,24.5v-14A2.5,2.5,0,0,0,29.5,8ZM1,10.5A1.5,1.5,0,0,1,2.5,9H4.483A2.466,2.466,0,0,1,5,10.5,2.5,2.5,0,0,1,2.5,13,2.466,2.466,0,0,1,1,12.483ZM4.483,26H2.5A1.5,1.5,0,0,1,1,24.5V22.517A2.466,2.466,0,0,1,2.5,22,2.5,2.5,0,0,1,5,24.5,2.466,2.466,0,0,1,4.483,26ZM31,24.5A1.5,1.5,0,0,1,29.5,26H27.517A2.466,2.466,0,0,1,27,24.5,2.5,2.5,0,0,1,29.5,22a2.466,2.466,0,0,1,1.5.517Zm0-3.145A3.464,3.464,0,0,0,29.5,21,3.5,3.5,0,0,0,26,24.5a3.464,3.464,0,0,0,.355,1.5H5.645A3.464,3.464,0,0,0,6,24.5,3.5,3.5,0,0,0,2.5,21a3.464,3.464,0,0,0-1.5.355V13.645A3.464,3.464,0,0,0,2.5,14,3.5,3.5,0,0,0,6,10.5,3.464,3.464,0,0,0,5.645,9H26.355A3.464,3.464,0,0,0,26,10.5,3.5,3.5,0,0,0,29.5,14a3.464,3.464,0,0,0,1.5-.355Zm0-8.872A2.466,2.466,0,0,1,29.5,13,2.5,2.5,0,0,1,27,10.5,2.466,2.466,0,0,1,27.517,9H29.5A1.5,1.5,0,0,1,31,10.5ZM15.5,15h1a1,1,0,0,1,1,1,.5.5,0,0,0,1,0,2,2,0,0,0-2-2v-.5a.5.5,0,0,0-1,0V14a2,2,0,0,0,0,4h1a1,1,0,0,1,0,2h-1a1,1,0,0,1-1-1,.5.5,0,0,0-1,0,2,2,0,0,0,2,2v.5a.5.5,0,0,0,1,0V21a2,2,0,0,0,0-4h-1a1,1,0,0,1,0-2Zm.5-4a6.5,6.5,0,1,0,6.5,6.5A6.508,6.508,0,0,0,16,11Zm0,12a5.5,5.5,0,1,1,5.5-5.5A5.506,5.506,0,0,1,16,23Z"/></svg>