<svg xmlns="http://www.w3.org/2000/svg" width="26" height="26" viewBox="0 0 26 26"><path d="M 13 0 C 5.8262901 0 9.81e-005 5.8263 0 13 C -7.4e-005 20.1739 5.8261687 26 13 26 C 20.173831 26 26.000074 20.1739 26 13 C 25.999902 5.8263 20.17371 0 13 0 z M 13 1.0019531 C 19.633243 1.0019531 24.999909 6.3668 25 13 C 25.000068 19.6334 19.633355 25 13 25 C 6.3666446 25 0.9999315 19.6334 1 13 C 1.0000907 6.3668 6.3667575 1.0019531 13 1.0019531 z M 17.898438 6.2070312 C 17.386688 6.2070312 16.872727 6.4066219 16.484375 6.7949219 L 14.201172 9.0761719 L 8.4648438 8.0546875 A 0.50005 0.50005 0 0 0 8.0234375 8.1933594 L 6.609375 9.6074219 A 0.50005 0.50005 0 0 0 6.8027344 10.435547 L 11.320312 11.960938 L 9.0390625 14.253906 L 8.1230469 14.060547 A 0.50005 0.50005 0 0 0 7.6660156 14.197266 L 6.2519531 15.611328 A 0.50005 0.50005 0 0 0 6.4121094 16.425781 L 8.7128906 17.392578 L 9.6796875 19.693359 A 0.50005 0.50005 0 0 0 10.494141 19.853516 L 11.910156 18.439453 A 0.50005 0.50005 0 0 0 12.046875 17.984375 L 11.859375 17.076172 L 14.154297 14.78125 L 15.691406 19.291016 A 0.50005 0.50005 0 0 0 16.517578 19.482422 L 17.931641 18.068359 A 0.50005 0.50005 0 0 0 18.070312 17.626953 L 17.054688 11.880859 L 19.3125 9.6230469 A 0.50005 0.50005 0 0 0 19.314453 9.6230469 C 20.088625 8.8447469 20.089809 7.5721219 19.3125 6.7949219 C 18.92415 6.4066219 18.410187 6.2070313 17.898438 6.2070312 z M 17.898438 7.2070312 C 18.153544 7.2070312 18.406219 7.3029531 18.605469 7.5019531 C 19.003147 7.8995531 19.00149 8.5159156 18.603516 8.9160156 L 16.164062 11.357422 A 0.50005 0.50005 0 0 0 16.025391 11.798828 L 17.041016 17.544922 L 16.378906 18.207031 L 14.841797 13.697266 A 0.50005 0.50005 0 0 0 14.015625 13.505859 L 10.960938 16.560547 A 0.50005 0.50005 0 0 0 10.824219 17.015625 L 11.011719 17.921875 L 10.3125 18.621094 L 9.5546875 16.818359 A 0.50005 0.50005 0 0 0 9.2871094 16.550781 L 7.484375 15.792969 L 8.1816406 15.095703 L 9.0976562 15.289062 A 0.50005 0.50005 0 0 0 9.5546875 15.152344 L 12.595703 12.097656 A 0.50005 0.50005 0 0 0 12.402344 11.269531 L 7.8867188 9.7441406 L 8.546875 9.0839844 L 14.283203 10.105469 A 0.50005 0.50005 0 0 0 14.724609 9.9667969 L 17.191406 7.5019531 C 17.390664 7.3026531 17.64333 7.2070312 17.898438 7.2070312 z " color="#000" font-family="sans-serif" font-weight="400" overflow="visible" white-space="normal" style="line-height:normal;text-indent:0;text-align:start;text-decoration-line:none;text-decoration-style:solid;text-decoration-color:#000;text-transform:none;block-progression:tb;isolation:auto;mix-blend-mode:normal"/></svg>