<svg id="SvgjsSvg1115" width="288" height="288" xmlns="http://www.w3.org/2000/svg" version="1.1" xmlns:xlink="http://www.w3.org/1999/xlink" xmlns:svgjs="http://svgjs.com/svgjs"><circle id="SvgjsCircle1126" r="144" cx="144" cy="144" fill="#252a2e" transform="matrix(0.916700005531311,0,0,0.916700005531311,11.995199203491211,11.995199203491211)"></circle><defs id="SvgjsDefs1116"></defs><g id="SvgjsG1117" transform="matrix(0.4652000069618225,0,0,0.4652000069618225,77.01119995117188,77.01119995117188)"><svg xmlns="http://www.w3.org/2000/svg" viewBox="0 0 64 64" width="288" height="288"><rect width="56" height="40" x="4" y="16" fill="#eefdfa" class="colorf6f5f5 svgShape"></rect><rect width="56" height="8" x="4" y="8" fill="#0e997e" class="color1f3c88 svgShape"></rect><path fill="#085848" d="M60,7H4A1,1,0,0,0,3,8V56a1,1,0,0,0,1,1H60a1,1,0,0,0,1-1V8A1,1,0,0,0,60,7ZM5,9H59v6H5ZM59,55H5V17H59Z" class="color070d59 svgShape"></path><circle cx="8" cy="12" r="1" fill="#56efd1" class="coloree6f57 svgShape"></circle><circle cx="12" cy="12" r="1" fill="#56efd1" class="coloree6f57 svgShape"></circle><circle cx="16" cy="12" r="1" fill="#56efd1" class="coloree6f57 svgShape"></circle><path fill="#56efd1" d="M37 26H27a1 1 0 0 0-1 1V45a1 1 0 0 0 1 1H37a1 1 0 0 0 1-1V27A1 1 0 0 0 37 26zM36 44H28V28h8zM51 28a1 1 0 0 0-1 1v8H42V27a1 1 0 0 0-2 0V38a1 1 0 0 0 1 1h9v6a1 1 0 0 0 2 0V29A1 1 0 0 0 51 28zM23 28a1 1 0 0 0-1 1v8H14V27a1 1 0 0 0-2 0V38a1 1 0 0 0 1 1h9v6a1 1 0 0 0 2 0V29A1 1 0 0 0 23 28z" class="coloree6f57 svgShape"></path></svg></g></svg>