<?xml version="1.0" standalone="no"?>
<!DOCTYPE svg PUBLIC "-//W3C//DTD SVG 20010904//EN"
 "http://www.w3.org/TR/2001/REC-SVG-20010904/DTD/svg10.dtd">
<svg version="1.0" xmlns="http://www.w3.org/2000/svg"
 width="1280.000000pt" height="720.000000pt" viewBox="0 0 1280.000000 720.000000"
 preserveAspectRatio="xMidYMid meet">

<g transform="translate(0.000000,720.000000) scale(0.100000,-0.100000)"
fill="#000000" stroke="none">
<path d="M11045 6441 c-11 -5 -23 -7 -28 -4 -4 2 -10 -3 -13 -11 -3 -9 -14
-16 -24 -16 -11 0 -25 -13 -34 -30 -8 -16 -10 -30 -6 -30 5 0 8 -13 7 -29 -1
-16 -5 -27 -9 -24 -5 2 -8 -2 -8 -11 0 -8 -4 -16 -9 -18 -5 -1 -11 -14 -13
-28 -2 -21 1 -24 19 -22 16 2 21 -2 18 -15 -2 -10 -4 -22 -4 -26 -1 -5 -5 -5
-11 -2 -16 10 -12 -12 5 -27 35 -31 45 -37 85 -48 55 -15 125 1 170 39 29 24
33 32 32 75 -1 26 -7 54 -13 62 -9 11 -7 14 10 14 14 0 20 -4 15 -12 -4 -7 -3
-8 4 -4 16 10 15 53 -1 63 -6 4 -18 20 -26 35 -8 15 -22 30 -33 34 -10 3 -18
9 -18 13 0 23 -76 37 -115 22z m38 -40 c13 -5 27 -16 30 -24 4 -11 -6 -14 -48
-13 -29 1 -52 3 -51 6 2 3 6 13 9 23 7 19 24 21 60 8z m-44 -81 c9 0 22 5 29
12 9 9 12 8 12 -5 0 -9 -7 -17 -16 -17 -8 0 -12 -4 -9 -10 3 -5 -1 -10 -9 -10
-9 0 -16 -7 -16 -16 0 -8 -4 -13 -9 -10 -12 8 -20 56 -13 75 6 14 7 14 10 -1
2 -10 11 -18 21 -18z m81 -20 c0 -5 -8 -10 -17 -10 -15 0 -16 2 -3 10 19 12
20 12 20 0z m-30 -99 c0 -13 -19 -24 -47 -27 -27 -3 -29 4 -5 22 20 16 52 18
52 5z m17 -28 c-3 -10 -5 -4 -5 12 0 17 2 24 5 18 2 -7 2 -21 0 -30z"/>
<path d="M1900 6280 c0 -93 1 -100 20 -100 11 0 20 6 20 13 0 8 8 21 18 30 16
15 19 14 37 -13 12 -18 29 -30 43 -30 28 0 28 4 -3 44 -31 41 -31 44 2 78 l27
28 -29 0 c-19 0 -40 -11 -62 -32 l-33 -32 0 57 c0 50 -2 57 -20 57 -19 0 -20
-7 -20 -100z"/>
<path d="M9770 6353 c4 -16 11 -57 14 -92 7 -72 22 -92 48 -61 19 23 58 27 58
6 0 -20 27 -27 40 -11 20 25 1 35 -66 35 -86 0 -82 16 6 22 39 3 72 7 74 9 3
2 7 21 11 42 l7 37 -91 0 c-84 0 -91 1 -91 20 0 11 -4 20 -9 20 -6 0 -7 -11
-1 -27z m175 -50 c-4 -16 -9 -30 -11 -33 -3 -2 -36 -6 -75 -8 l-69 -4 0 36 0
36 81 0 81 0 -7 -27z m-120 -93 c3 -5 -1 -10 -9 -10 -9 0 -16 5 -16 10 0 6 4
10 9 10 6 0 13 -4 16 -10z m100 0 c3 -5 -1 -10 -9 -10 -9 0 -16 5 -16 10 0 6
4 10 9 10 6 0 13 -4 16 -10z"/>
<path d="M1222 6328 c-27 -7 -32 -13 -32 -37 0 -24 6 -31 31 -40 18 -6 40 -11
50 -11 11 0 19 -4 19 -9 0 -19 -23 -23 -61 -11 -48 16 -62 5 -29 -22 20 -16
35 -19 73 -15 96 9 85 71 -15 92 -37 7 -36 25 2 25 17 0 30 -4 30 -10 0 -5 9
-10 20 -10 11 0 20 6 20 14 0 31 -54 48 -108 34z"/>
<path d="M1574 6326 c-49 -22 -59 -82 -19 -121 28 -29 79 -33 113 -9 35 24 26
33 -34 31 -38 -1 -58 2 -61 11 -4 9 13 12 62 12 64 0 66 1 60 23 -16 53 -69
76 -121 53z m74 -43 c2 -9 -8 -13 -32 -13 -34 0 -44 8 -29 24 11 11 56 2 61
-11z"/>
<path d="M2136 6330 c-16 -5 -33 -15 -37 -22 -14 -21 -10 -95 4 -107 37 -30
128 -20 141 15 4 11 -6 14 -51 12 -38 -2 -57 1 -60 10 -3 9 12 12 56 12 54 0
61 2 61 20 0 20 -32 60 -49 60 -5 0 -15 2 -23 4 -7 2 -26 0 -42 -4z m62 -47
c2 -9 -8 -13 -32 -13 -34 0 -44 8 -29 24 11 11 56 2 61 -11z"/>
<path d="M2446 6330 c-16 -3 -34 -13 -40 -22 -17 -28 5 -52 57 -62 26 -5 47
-13 47 -17 0 -17 -24 -21 -61 -9 -47 16 -63 5 -30 -21 45 -37 131 -19 131 27
0 25 -17 37 -72 48 -16 4 -28 11 -28 16 0 13 47 13 55 0 9 -15 45 -12 45 4 0
29 -50 46 -104 36z"/>
<path d="M3142 6324 c-27 -19 -29 -64 -4 -87 20 -19 67 -23 77 -7 4 6 -5 7
-24 4 -24 -5 -32 -1 -46 19 -27 42 12 90 56 67 11 -6 19 -7 19 -1 0 9 -24 21
-44 21 -6 0 -22 -7 -34 -16z"/>
<path d="M3330 6280 c0 -33 4 -60 10 -60 6 0 10 27 10 60 0 33 -4 60 -10 60
-6 0 -10 -27 -10 -60z"/>
<path d="M3370 6280 c0 -33 4 -60 10 -60 6 0 10 27 10 60 0 33 -4 60 -10 60
-6 0 -10 -27 -10 -60z"/>
<path d="M4192 6278 l1 -63 6 49 6 49 17 -36 c10 -21 21 -37 26 -37 5 0 16 15
25 33 l16 32 0 -42 c1 -24 6 -43 11 -43 6 0 10 27 10 60 0 33 -4 60 -10 60 -5
0 -19 -19 -31 -42 l-22 -43 -20 43 c-12 23 -25 42 -29 42 -4 0 -7 -28 -6 -62z"/>
<path d="M4880 6334 c0 -17 34 -114 40 -114 4 0 12 18 19 40 14 47 26 45 35
-5 4 -19 11 -35 16 -35 11 0 43 96 37 113 -2 6 -11 -10 -19 -38 l-15 -50 -13
40 c-18 59 -27 62 -41 16 -15 -50 -26 -52 -35 -6 -5 30 -24 60 -24 39z"/>
<path d="M5781 6284 c-12 -32 -19 -59 -16 -62 2 -3 7 3 11 12 8 21 62 22 70 1
4 -8 10 -15 14 -15 5 0 -3 27 -17 60 -15 33 -29 60 -33 60 -4 0 -17 -25 -29
-56z m43 10 c9 -23 8 -24 -13 -24 -14 0 -18 5 -14 20 6 24 19 26 27 4z"/>
<path d="M5888 6334 c-5 -4 -8 -31 -8 -61 l0 -53 35 0 c24 0 37 6 45 20 16 30
-5 63 -35 57 -19 -3 -25 1 -27 20 -2 14 -6 21 -10 17z m57 -74 c0 -16 -6 -26
-18 -28 -19 -4 -32 20 -23 44 9 25 41 13 41 -16z"/>
<path d="M6542 6324 c-27 -19 -29 -64 -4 -87 20 -19 67 -23 77 -7 4 6 -5 7
-24 4 -24 -5 -32 -1 -46 19 -27 42 12 90 56 67 11 -6 19 -7 19 -1 0 9 -24 21
-44 21 -6 0 -22 -7 -34 -16z"/>
<path d="M1350 6254 c0 -67 2 -74 20 -74 17 0 20 7 20 43 0 54 18 80 51 75 22
-3 24 -8 27 -60 3 -50 6 -58 22 -58 18 0 20 7 20 64 0 40 -5 68 -13 74 -7 6
-43 11 -80 10 l-67 -1 0 -73z"/>
<path d="M1738 6320 c-9 -6 -19 -23 -23 -38 -14 -65 38 -117 96 -95 16 6 29 7
29 2 0 -5 9 -9 20 -9 18 0 20 7 20 74 l0 74 -62 1 c-35 0 -71 -4 -80 -9z m92
-34 c6 -8 10 -25 8 -38 -6 -43 -88 -33 -88 11 0 38 55 56 80 27z"/>
<path d="M2270 6254 c0 -67 2 -74 20 -74 17 0 20 7 20 50 0 39 4 52 20 60 10
6 25 9 32 8 6 -2 14 5 16 14 3 15 -5 17 -52 17 l-56 -1 0 -74z"/>
<path d="M3588 6307 c-2 -7 -2 -28 2 -47 3 -25 11 -35 25 -37 11 -2 14 0 8 3
-15 7 -17 61 -3 66 6 2 2 8 -9 15 -15 9 -20 9 -23 0z"/>
<path d="M6178 6307 c-2 -7 -2 -28 2 -47 3 -25 11 -36 25 -38 18 -2 18 -2 3 8
-19 11 -25 56 -9 62 5 2 3 8 -4 15 -10 9 -14 9 -17 0z"/>
<path d="M6834 6306 c-16 -16 4 -86 25 -85 10 0 11 2 4 6 -15 5 -18 60 -4 65
5 2 4 8 -3 14 -8 7 -15 7 -22 0z"/>
<path d="M7064 6306 c-16 -16 4 -86 25 -85 10 0 11 2 4 6 -15 5 -18 60 -4 65
5 2 4 8 -3 14 -8 7 -15 7 -22 0z"/>
<path d="M3252 6291 c-8 -5 -12 -21 -10 -37 2 -23 9 -30 29 -32 36 -4 55 21
41 53 -12 25 -36 32 -60 16z m43 -32 c0 -17 -6 -24 -20 -24 -23 0 -33 34 -13
46 20 13 33 5 33 -22z"/>
<path d="M3422 6291 c-8 -4 -12 -21 -10 -37 2 -22 9 -30 27 -32 13 -2 28 1 33
6 6 6 1 8 -15 5 -14 -3 -28 0 -31 6 -5 7 4 11 24 11 27 0 31 3 28 23 -3 23
-33 34 -56 18z m43 -11 c4 -6 -5 -10 -20 -10 -15 0 -24 4 -20 10 3 6 12 10 20
10 8 0 17 -4 20 -10z"/>
<path d="M3512 6291 c-8 -5 -12 -21 -10 -37 2 -23 9 -30 31 -32 15 -2 27 1 27
6 0 5 -10 8 -22 8 -14 -1 -24 6 -26 18 -5 23 16 38 42 30 12 -4 16 -2 12 5 -8
13 -36 14 -54 2z"/>
<path d="M3647 6293 c-11 -10 -8 -73 3 -73 6 0 10 18 10 40 0 41 -2 45 -13 33z"/>
<path d="M3692 6291 c-8 -5 -12 -21 -10 -37 2 -23 9 -30 29 -32 36 -4 55 21
41 53 -12 25 -36 32 -60 16z m43 -32 c0 -17 -6 -24 -20 -24 -23 0 -33 34 -13
46 20 13 33 5 33 -22z"/>
<path d="M3788 6293 c-13 -3 -18 -15 -18 -39 0 -43 18 -45 22 -1 2 20 8 32 18
32 10 0 16 -12 18 -32 4 -40 22 -44 22 -5 0 43 -18 57 -62 45z"/>
<path d="M3877 6293 c-13 -13 -7 -32 13 -38 11 -4 18 -11 14 -16 -3 -6 -12 -8
-20 -5 -8 3 -14 1 -14 -5 0 -6 10 -9 22 -7 31 4 35 34 7 43 -22 7 -22 8 -4 21
15 11 16 14 4 14 -9 0 -19 -3 -22 -7z"/>
<path d="M4342 6291 c-8 -4 -12 -21 -10 -37 2 -22 9 -30 27 -32 13 -2 28 1 33
6 6 6 1 8 -15 5 -14 -3 -28 0 -31 6 -5 7 4 11 24 11 27 0 31 3 28 23 -3 23
-33 34 -56 18z m43 -11 c4 -6 -5 -10 -20 -10 -15 0 -24 4 -20 10 3 6 12 10 20
10 8 0 17 -4 20 -10z"/>
<path d="M4438 6293 c-13 -3 -18 -15 -18 -39 0 -43 18 -45 22 -1 2 20 8 32 18
32 10 0 16 -12 18 -32 4 -40 22 -44 22 -5 0 43 -18 57 -62 45z"/>
<path d="M5050 6285 c-26 -32 13 -81 48 -59 34 22 22 74 -18 74 -10 0 -23 -7
-30 -15z m50 -10 c10 -12 10 -18 0 -30 -16 -20 -36 -19 -44 1 -6 16 9 44 24
44 4 0 13 -7 20 -15z"/>
<path d="M5141 6256 l2 -41 6 35 c8 46 35 48 39 3 2 -18 7 -33 12 -33 5 0 10
15 12 33 4 44 31 43 40 -3 l6 -35 -1 40 -2 40 -57 1 -58 0 1 -40z"/>
<path d="M5292 6288 c-27 -27 -6 -68 35 -68 13 0 23 4 23 9 0 5 -8 7 -19 4
-10 -3 -22 0 -25 6 -5 7 4 11 23 11 34 0 36 2 21 31 -12 21 -40 25 -58 7z m43
-8 c3 -5 -3 -10 -15 -10 -12 0 -18 5 -15 10 3 6 10 10 15 10 5 0 12 -4 15 -10z"/>
<path d="M5388 6293 c-13 -3 -18 -15 -18 -39 0 -43 18 -45 22 -1 2 20 8 32 18
32 10 0 16 -12 18 -32 4 -40 22 -44 22 -5 0 43 -18 57 -62 45z"/>
<path d="M5990 6285 c-26 -32 13 -81 48 -59 34 22 22 74 -18 74 -10 0 -23 -7
-30 -15z m50 -10 c10 -12 10 -18 0 -30 -16 -20 -36 -19 -44 1 -6 16 9 44 24
44 4 0 13 -7 20 -15z"/>
<path d="M6075 6287 c-4 -10 -3 -29 4 -43 8 -19 17 -24 41 -22 28 2 30 5 30
41 0 23 -4 36 -10 32 -5 -3 -10 -20 -10 -36 0 -45 -33 -35 -41 11 -4 28 -7 31
-14 17z"/>
<path d="M6652 6291 c-8 -5 -12 -21 -10 -37 2 -23 9 -30 29 -32 36 -4 55 21
41 53 -12 25 -36 32 -60 16z m43 -32 c0 -17 -6 -24 -20 -24 -23 0 -33 34 -13
46 20 13 33 5 33 -22z"/>
<path d="M6741 6256 l2 -41 6 35 c8 45 38 53 47 13 10 -47 13 -50 11 -8 -2 38
-4 40 -34 41 -32 1 -33 0 -32 -40z"/>
<path d="M6900 6289 c0 -5 5 -7 10 -4 6 3 16 3 22 -1 9 -6 5 -10 -12 -14 -39
-9 -34 -44 8 -48 27 -3 32 0 32 18 0 33 -18 60 -40 60 -11 0 -20 -5 -20 -11z
m40 -38 c0 -14 -18 -23 -30 -16 -6 4 -8 11 -5 16 8 12 35 12 35 0z"/>
<path d="M6982 6288 c-27 -27 -6 -68 35 -68 13 0 23 4 23 8 0 5 -10 8 -22 8
-18 -1 -23 5 -23 24 0 20 4 25 23 23 13 -2 21 1 17 7 -8 14 -38 13 -53 -2z"/>
<path d="M1370 5258 c-26 -14 -53 -37 -65 -58 -20 -34 -20 -52 -23 -1126 -3
-1196 -7 -1110 59 -1118 19 -3 46 -9 61 -15 23 -8 63 -16 143 -26 11 -1 27 -5
35 -8 8 -3 121 -26 250 -51 129 -25 246 -47 260 -50 100 -19 417 -87 425 -91
6 -2 -15 -2 -45 1 -30 2 -135 7 -234 10 -98 3 -215 12 -260 20 -88 17 -90 17
-218 38 -48 8 -91 17 -96 20 -5 3 -28 10 -52 15 -35 8 -40 7 -29 -3 14 -14
112 -37 329 -80 94 -19 171 -26 310 -30 102 -3 223 -11 270 -18 47 -7 129 -12
183 -10 62 1 96 -2 92 -8 -3 -5 4 -10 17 -9 13 0 77 -11 143 -26 66 -14 161
-32 211 -41 l92 -16 53 27 c69 35 164 103 208 149 21 22 44 36 59 36 21 0 23
-2 11 -16 -41 -49 -264 -204 -294 -204 -8 0 -15 -4 -15 -8 0 -5 13 -7 30 -4
16 2 76 -4 132 -14 57 -9 112 -18 124 -19 11 -1 25 -5 32 -9 7 -4 16 -5 22 -1
5 3 19 0 30 -7 17 -11 22 -11 30 2 6 9 10 10 10 3 0 -13 96 -36 111 -27 6 3
16 0 24 -6 8 -6 19 -9 24 -6 6 4 18 2 28 -3 22 -12 127 -29 165 -27 14 1 25
-1 23 -5 -6 -8 73 -21 86 -14 5 4 9 1 9 -6 0 -7 9 -9 22 -6 12 4 27 2 33 -3 6
-5 31 -12 56 -14 24 -3 64 -10 89 -15 25 -5 47 -7 49 -5 2 2 10 -1 18 -7 11
-10 13 10 13 115 0 108 -2 126 -16 126 -14 0 -14 1 0 16 14 13 14 19 2 49 -8
18 -12 36 -8 39 3 3 0 6 -7 6 -11 0 -9 -17 6 -72 2 -10 -1 -18 -7 -18 -6 0 -8
5 -5 10 3 5 2 10 -4 10 -5 0 -11 -5 -13 -12 -3 -7 -7 -6 -11 5 -4 11 -1 17 8
17 8 0 15 7 15 15 0 18 -1 18 -35 1 -14 -8 -23 -16 -18 -18 4 -3 2 -3 -5 -1
-8 1 -20 3 -28 3 -8 0 -14 5 -14 11 0 6 7 9 15 5 19 -7 19 -1 0 18 -14 13 -13
15 5 13 11 -1 20 -7 20 -14 0 -7 8 -13 17 -13 13 0 14 3 5 12 -16 16 -15 26 4
30 13 3 13 5 -1 23 l-15 20 7 -20 c6 -18 5 -18 -10 -6 -10 8 -15 23 -13 37 5
28 3 29 -18 8 -14 -14 -14 -17 4 -36 25 -27 17 -41 -16 -26 -17 8 -23 17 -19
29 7 22 -9 32 -47 31 -18 0 -28 4 -25 11 2 7 15 12 29 12 17 -1 24 4 21 12 -4
9 1 11 13 7 17 -6 17 -5 -1 9 -11 9 -24 16 -30 17 -5 0 -4 -4 3 -9 11 -7 11
-9 -2 -14 -8 -3 -18 -2 -21 3 -3 5 -11 7 -18 5 -17 -6 -50 21 -42 34 3 6 12 8
18 4 25 -16 49 -13 45 4 -2 13 -11 17 -31 15 -15 -2 -27 1 -27 7 0 6 7 7 17 4
11 -5 14 -3 8 6 -6 10 -3 11 14 2 11 -6 25 -20 31 -31 6 -11 16 -20 22 -20 9
0 9 3 0 12 -20 20 -15 41 9 35 12 -3 18 -3 14 1 -4 4 10 13 32 20 l38 12 -38
-4 c-27 -4 -37 -1 -34 7 2 7 12 11 21 10 11 0 15 4 12 12 -3 8 3 19 11 27 14
11 16 11 10 -4 -3 -10 -1 -20 5 -24 7 -4 8 -3 4 4 -4 7 -2 12 3 12 6 0 10 6 8
13 -1 7 10 12 29 12 23 0 30 4 26 14 -4 10 -1 13 11 8 14 -5 17 1 17 38 0 49
-12 56 -53 33 -12 -7 -38 -13 -58 -14 -19 0 -46 -7 -58 -14 -13 -6 -21 -8 -18
-3 3 5 -3 9 -14 9 -22 0 -24 -7 -6 -25 6 -8 7 -11 1 -8 -6 4 -20 -3 -30 -14
-10 -11 -24 -17 -31 -15 -7 3 -13 1 -13 -4 0 -6 -8 -10 -17 -10 -10 0 -31 -7
-47 -15 -25 -13 -129 -48 -148 -49 -3 -1 -10 -4 -14 -9 -4 -4 -12 -7 -18 -7
-6 0 -4 5 4 10 13 8 13 10 -2 10 -9 0 -20 -4 -23 -10 -3 -5 -15 -10 -26 -10
-10 0 -19 -5 -19 -11 0 -6 -9 -8 -21 -4 -14 5 -19 3 -15 -3 4 -6 -2 -8 -16 -4
-15 4 -19 2 -13 -7 6 -10 3 -11 -15 -1 -13 7 -20 8 -16 2 4 -6 -1 -10 -11 -10
-25 1 -115 -47 -106 -57 5 -4 -1 -3 -12 3 -14 7 -29 6 -50 -3 -22 -9 -35 -9
-50 -2 -29 16 -36 17 -187 27 -76 4 -142 11 -147 14 -5 4 -11 0 -14 -6 -3 -10
-7 -10 -17 -1 -8 8 -19 9 -29 3 -9 -4 -32 -5 -51 0 l-35 8 38 1 c21 1 47 6 57
11 12 6 47 7 97 1 83 -9 107 -6 96 13 -3 6 2 4 13 -5 11 -10 48 -19 88 -23 37
-4 71 -7 75 -8 31 -3 61 4 55 14 -4 7 -3 8 5 4 13 -8 141 31 141 43 0 4 13 8
29 8 16 0 36 7 45 16 11 11 26 14 44 11 53 -10 285 69 319 109 14 17 14 19 1
9 -10 -8 -18 -9 -22 -3 -4 6 -34 10 -67 9 -48 -1 -63 2 -71 15 -5 9 -16 17
-23 17 -8 0 -15 4 -15 9 0 11 -154 87 -195 96 -5 2 -28 10 -50 20 -22 10 -47
19 -55 20 -31 4 -145 38 -156 46 -6 5 -21 10 -35 12 -13 2 -26 12 -29 23 -11
40 -40 81 -97 134 -79 76 -193 164 -193 151 0 -6 3 -11 8 -11 17 0 197 -162
228 -206 31 -43 33 -50 19 -60 -16 -12 -11 -44 8 -44 6 0 8 -2 6 -5 -5 -4 27
-42 138 -164 l41 -46 141 -3 c87 -3 159 0 187 7 49 13 65 8 45 -12 -14 -13
-479 -18 -488 -4 -2 4 9 7 25 7 51 0 47 26 -17 103 -86 104 -138 159 -205 217
-60 51 -173 120 -197 120 -8 0 22 -20 65 -45 131 -74 203 -142 177 -168 -8 -8
-11 -5 -11 11 0 12 -3 21 -7 20 -5 -1 -17 3 -28 8 -11 6 -49 12 -85 13 -36 2
-70 7 -77 12 -6 6 -24 12 -39 15 -16 3 -33 9 -40 14 -6 6 -44 14 -85 19 -68 9
-110 16 -116 21 -3 3 -7 4 -58 14 -21 4 -49 19 -62 32 -24 27 -19 33 8 8 16
-14 258 -69 267 -59 2 2 -9 7 -24 11 -16 4 -34 10 -40 15 -11 9 -77 21 -111
20 -13 0 -23 3 -23 8 0 9 -73 27 -99 24 -12 -1 -155 58 -208 86 -54 28 -203
82 -212 77 -6 -4 -9 -1 -5 7 6 16 23 11 183 -57 47 -20 85 -35 85 -33 1 1 8
23 17 48 16 46 12 59 -21 72 -8 3 3 6 24 6 28 1 55 12 93 38 29 20 53 39 53
42 0 3 -26 19 -57 36 -69 36 -51 43 37 16 44 -14 59 -16 49 -6 -23 22 -106 45
-139 39 -19 -4 -30 -2 -30 5 0 6 -6 11 -12 11 -7 1 -31 28 -53 62 -33 51 -40
71 -43 124 -3 35 -8 65 -13 66 -5 0 -13 1 -18 2 -5 1 -22 -23 -38 -53 -27 -51
-30 -53 -72 -55 -35 -2 -49 -9 -71 -34 -15 -17 -30 -29 -34 -25 -3 3 -6 -1 -6
-10 0 -12 9 -17 29 -17 51 0 94 -12 79 -22 -8 -5 2 -6 27 -3 29 5 36 4 25 -4
-11 -8 0 -9 40 -6 30 2 46 2 35 -1 -11 -3 -24 -9 -28 -14 -4 -4 -34 -1 -65 6
-31 8 -78 14 -104 14 -26 0 -49 4 -52 9 -4 5 -14 8 -24 6 -9 -2 -19 -4 -22 -4
-3 -1 2 -6 10 -11 13 -9 11 -14 -13 -31 -15 -11 -24 -26 -21 -31 4 -6 2 -8 -4
-4 -6 3 -13 -3 -17 -14 -4 -11 -20 -27 -36 -35 -38 -20 -37 -41 4 -49 17 -3
69 -18 114 -33 60 -19 80 -30 76 -40 -3 -8 -9 -10 -12 -5 -13 20 -116 54 -171
56 -8 1 -19 4 -25 7 -5 4 -18 5 -27 4 -10 -2 -16 2 -15 7 1 6 -9 12 -23 14
-14 1 -50 7 -80 13 -84 15 -150 19 -150 9 0 -7 54 -13 99 -10 8 0 25 -4 39 -9
l25 -10 -34 -29 c-19 -16 -28 -29 -21 -30 21 0 93 40 88 49 -3 4 6 6 19 3 29
-5 31 -14 8 -33 -14 -12 -16 -12 -9 1 4 8 -1 4 -12 -9 -13 -16 -24 -21 -33
-16 -8 5 -11 4 -6 0 4 -5 -1 -17 -10 -28 -13 -15 -15 -21 -5 -24 6 -3 12 -11
12 -19 0 -8 10 -14 22 -14 14 0 18 -4 13 -9 -6 -6 -30 -4 -62 4 -28 7 -75 15
-105 16 -29 1 -57 7 -61 13 -6 8 -10 7 -14 -1 -5 -15 -71 -17 -93 -3 -9 6 -20
5 -29 -3 -10 -8 -13 -8 -8 -1 5 8 -6 10 -36 7 -50 -5 -79 9 -59 29 6 6 12 8
12 3 0 -6 52 -11 117 -13 l117 -2 -21 22 c-11 13 -29 39 -38 58 -23 45 -16
149 20 285 14 55 30 123 35 150 4 28 17 86 29 130 37 137 71 307 76 380 3 39
8 99 12 135 4 36 6 81 4 101 -2 31 3 40 35 65 104 81 150 139 199 257 l15 37
-323 0 c-315 0 -324 -1 -367 -22z m1090 -1348 c-34 -11 -60 -11 -35 0 11 5 29
8 40 8 16 0 15 -2 -5 -8z m-381 -320 c47 -5 165 -14 261 -20 101 -6 179 -15
185 -21 7 -8 3 -10 -15 -6 -14 3 -67 7 -117 8 -51 2 -93 6 -93 10 0 4 -18 3
-40 -2 -21 -5 -58 -6 -82 -2 -24 4 -66 7 -95 8 -28 0 -49 3 -47 7 2 3 -18 9
-46 13 -27 4 -53 12 -57 17 -4 8 5 9 26 5 18 -4 72 -11 120 -17z m531 -79 c0
-5 11 -12 25 -15 37 -9 32 -36 -7 -38 -18 0 -44 -3 -58 -5 -14 -2 -72 -6 -130
-9 -58 -3 -109 -9 -115 -14 -9 -7 -78 -21 -128 -26 -36 -3 -3 11 61 27 l67 17
-72 1 c-41 0 -73 5 -73 11 0 6 55 7 153 4 104 -5 166 -3 195 5 43 12 43 13 26
32 -17 18 -16 19 19 19 21 0 37 -4 37 -9z m-470 -52 c-34 -9 -99 -13 -130 -8
-18 3 82 16 130 16 l35 1 -35 -9z m647 -35 c21 -10 42 -16 47 -15 16 4 160
-29 170 -39 6 -6 21 -11 36 -11 16 -1 11 -4 -15 -8 -22 -4 -45 -3 -52 2 -6 4
-14 3 -18 -2 -4 -7 -16 -6 -36 5 -24 12 -34 13 -45 3 -11 -9 -14 -7 -15 12 -1
17 -3 19 -6 7 -5 -21 -10 -22 -51 -7 -21 7 -42 7 -68 0 -20 -6 -33 -6 -28 -2
5 5 18 11 29 13 15 3 2 12 -45 36 l-65 32 62 -5 c35 -2 80 -12 100 -21z m-857
8 c0 -5 -13 -9 -29 -10 -17 0 -40 -6 -53 -13 -13 -7 -27 -12 -32 -11 -4 2 -13
-1 -20 -6 -6 -5 -27 -12 -47 -16 -20 -3 -47 -16 -60 -27 -13 -11 -25 -16 -27
-10 -3 8 -10 8 -23 0 -11 -5 -17 -14 -14 -19 3 -5 1 -11 -5 -15 -17 -10 -11
21 6 36 18 15 258 97 287 98 9 1 17 -3 17 -7z m750 -71 c-13 -9 -83 -22 -140
-25 -14 -1 -38 1 -55 5 -22 5 -9 7 45 9 41 1 89 6 105 10 17 4 37 8 45 9 13 1
13 -1 0 -8z m174 -66 c73 -40 89 -43 201 -29 28 3 47 3 43 -1 -8 -8 -34 -13
-75 -14 -48 -1 -41 -24 18 -61 70 -46 207 -91 295 -97 41 -3 71 -10 68 -15 -3
-5 -21 -7 -40 -5 -21 3 -34 1 -35 -7 0 -7 -2 -7 -6 2 -2 6 -13 12 -23 12 -11
0 -53 11 -94 24 -41 13 -78 21 -81 18 -3 -3 -5 0 -5 6 0 7 -3 11 -7 10 -15 -3
-63 22 -63 32 0 6 -4 9 -8 6 -5 -3 -22 7 -38 22 -39 35 -82 54 -100 44 -8 -4
-48 -5 -90 -1 -56 6 -86 4 -116 -7 -22 -8 -48 -14 -57 -13 -9 0 -2 6 16 12 45
17 51 27 17 27 -16 0 -36 5 -44 10 -20 13 -16 12 125 -5 160 -20 170 -19 113
11 -27 13 -49 23 -50 22 -2 -1 -12 5 -23 15 -11 9 -29 24 -40 33 -19 15 -19
15 5 2 14 -8 56 -32 94 -53z m-449 46 c-39 -5 -44 -8 -25 -13 22 -5 22 -5 -7
-7 -25 -1 -31 2 -27 14 5 11 20 15 58 13 l51 -1 -50 -6z m-492 -8 c-7 -2 -19
-2 -25 0 -7 3 -2 5 12 5 14 0 19 -2 13 -5z m184 0 c-20 -2 -52 -2 -70 0 -17 2
0 4 38 4 39 0 53 -2 32 -4z m166 0 c-13 -2 -35 -2 -50 0 -16 2 -5 4 22 4 28 0
40 -2 28 -4z m55 -13 c-7 -10 -14 -17 -17 -15 -4 4 18 35 25 35 2 0 -1 -9 -8
-20z m-481 4 c-3 -3 -12 -4 -19 -1 -8 3 -5 6 6 6 11 1 17 -2 13 -5z m-54 -11
c-7 -2 -19 -2 -25 0 -7 3 -2 5 12 5 14 0 19 -2 13 -5z m1482 -3 c3 -5 -18 -16
-47 -24 -86 -23 -110 -27 -104 -18 3 6 25 13 48 16 24 4 54 13 68 21 30 17 28
17 35 5z m-1545 -13 c-14 -8 -27 -12 -30 -10 -7 6 23 23 40 23 8 0 4 -6 -10
-13z m838 6 c-10 -2 -26 -2 -35 0 -10 3 -2 5 17 5 19 0 27 -2 18 -5z m-2 -112
c-3 -5 -16 -11 -28 -14 -69 -16 -197 -57 -223 -71 -16 -9 -38 -16 -47 -16 -10
0 -18 -4 -18 -10 0 -5 -3 -9 -7 -9 -18 3 -33 -2 -33 -10 0 -5 6 -11 13 -14 12
-4 -3 -2 -53 8 -14 3 -19 2 -11 -1 9 -5 3 -11 -19 -20 -18 -8 -36 -11 -39 -8
-3 4 0 9 8 12 7 2 21 12 30 21 10 10 23 15 30 13 16 -5 181 59 176 69 -3 4 3
6 12 5 18 -3 130 25 173 42 32 14 43 14 36 3z m71 3 c-3 -3 -12 -4 -19 -1 -8
3 -5 6 6 6 11 1 17 -2 13 -5z m-433 -46 c-3 -5 -12 -4 -20 3 -19 16 -18 18 6
12 11 -3 17 -9 14 -15z m43 -4 c-3 -3 -12 -4 -19 -1 -8 3 -5 6 6 6 11 1 17 -2
13 -5z m37 -113 c11 -4 15 -10 9 -14 -5 -3 -19 0 -29 8 -20 15 -11 18 20 6z
m1043 3 c-3 -3 -12 -4 -19 -1 -8 3 -5 6 6 6 11 1 17 -2 13 -5z m-1237 -14 c0
-5 -8 -10 -17 -10 -16 0 -16 -2 -3 -11 12 -8 9 -9 -11 -5 -15 3 -39 -1 -55 -9
-26 -13 -45 -13 -31 1 5 5 102 42 115 44 1 0 2 -4 2 -10z m1183 3 c-7 -2 -19
-2 -25 0 -7 3 -2 5 12 5 14 0 19 -2 13 -5z m-913 -13 c20 -6 21 -8 5 -8 -11 0
-29 3 -40 8 -25 11 1 11 35 0z m850 0 c-34 -11 -60 -11 -35 0 11 5 29 8 40 8
16 0 15 -2 -5 -8z m-1146 -29 c13 -5 16 -10 9 -14 -7 -4 -14 -3 -18 3 -3 5
-11 10 -16 10 -6 0 -7 -5 -3 -12 4 -7 3 -8 -4 -4 -7 4 -12 11 -12 17 0 11 17
11 44 0z m106 -5 c0 -2 -9 -6 -20 -9 -11 -3 -18 -1 -14 4 5 9 34 13 34 5z
m364 -22 c23 -9 20 -23 -4 -17 -11 3 -20 9 -20 14 0 11 3 11 24 3z m-241 -11
c-7 -2 -21 -2 -30 0 -10 3 -4 5 12 5 17 0 24 -2 18 -5z m44 1 c-3 -3 -12 -4
-19 -1 -8 3 -5 6 6 6 11 1 17 -2 13 -5z m46 -11 c-7 -2 -19 -2 -25 0 -7 3 -2
5 12 5 14 0 19 -2 13 -5z m57 -13 c0 -5 -7 -7 -15 -4 -8 4 -15 8 -15 10 0 2 7
4 15 4 8 0 15 -4 15 -10z m140 -21 c14 -4 -1 -5 -35 -2 -33 3 -67 9 -75 14
-17 10 71 0 110 -12z m113 4 c-7 -2 -19 -2 -25 0 -7 3 -2 5 12 5 14 0 19 -2
13 -5z m85 -10 c-10 -2 -26 -2 -35 0 -10 3 -2 5 17 5 19 0 27 -2 18 -5z m100
-10 c-10 -2 -28 -2 -40 0 -13 2 -5 4 17 4 22 1 32 -1 23 -4z m132 -7 c8 -2
-13 -4 -47 -5 -35 0 -63 2 -63 7 0 7 76 5 110 -2z m-257 -13 c-7 -2 -19 -2
-25 0 -7 3 -2 5 12 5 14 0 19 -2 13 -5z m44 -9 c-3 -3 -12 -4 -19 -1 -8 3 -5
6 6 6 11 1 17 -2 13 -5z m68 -14 l20 -9 -20 0 c-11 0 -27 4 -35 9 -13 9 -13
10 0 9 8 0 24 -4 35 -9z m1321 -32 c-18 -10 -43 -1 -43 16 0 10 7 11 29 2 21
-8 24 -12 14 -18z m-1269 16 c-3 -3 -12 -4 -19 -1 -8 3 -5 6 6 6 11 1 17 -2
13 -5z m490 -10 c-3 -3 -70 -14 -149 -25 -79 -10 -161 -21 -183 -25 -29 -5
-37 -4 -30 5 6 6 78 18 160 26 83 9 155 17 160 20 16 6 49 6 42 -1z m-377 -24
c8 -5 11 -10 5 -10 -5 0 -17 5 -25 10 -8 5 -10 10 -5 10 6 0 17 -5 25 -10z
m390 -4 c0 -3 -4 -8 -10 -11 -5 -3 -10 -1 -10 4 0 6 5 11 10 11 6 0 10 -2 10
-4z m805 -16 c-3 -5 -12 -10 -18 -10 -7 0 -6 4 3 10 19 12 23 12 15 0z m-1229
-17 c-8 -8 -29 -13 -76 -16 -19 -2 -41 -6 -48 -10 -7 -5 -10 -3 -7 6 4 8 24
14 53 16 25 1 48 4 51 7 2 2 11 4 19 4 9 0 12 -3 8 -7z m1245 -20 c13 -16 12
-17 -3 -5 -9 8 -22 11 -28 7 -5 -3 -10 -1 -10 4 0 17 26 13 41 -6z m-76 -24
c4 -6 21 -10 39 -9 17 1 40 1 51 0 l20 -1 -20 -8 c-28 -12 -84 -4 -102 14 -8
8 -10 15 -4 15 5 0 13 -5 16 -11z m-1582 -6 c-7 -2 -21 -2 -30 0 -10 3 -4 5
12 5 17 0 24 -2 18 -5z"/>
<path d="M2916 3377 c3 -10 9 -15 12 -12 3 3 0 11 -7 18 -10 9 -11 8 -5 -6z"/>
<path d="M2172 5239 c15 -30 16 -41 7 -68 -7 -20 -16 -30 -25 -27 -7 3 -16 -4
-19 -14 -3 -10 -15 -22 -25 -25 -11 -3 -34 -25 -52 -48 -17 -23 -51 -63 -75
-89 -24 -26 -43 -52 -43 -58 0 -20 -27 -10 -38 15 -6 14 -17 25 -24 25 -9 0
-10 -2 -2 -8 6 -4 15 -22 19 -40 5 -24 3 -33 -9 -38 -18 -7 -21 -39 -5 -49 15
-10 59 3 59 17 0 14 49 88 70 105 19 16 63 16 78 1 16 -16 93 15 140 56 59 52
97 158 85 242 l-6 45 -77 -3 -77 -3 19 -36z m128 -9 c0 -5 -2 -10 -4 -10 -3 0
-8 5 -11 10 -3 6 -1 10 4 10 6 0 11 -4 11 -10z"/>
<path d="M2341 5264 c0 -11 3 -14 6 -6 3 7 2 16 -1 19 -3 4 -6 -2 -5 -13z"/>
<path d="M2602 5233 c26 -27 52 -61 57 -76 15 -40 14 -125 -4 -182 -8 -27 -12
-51 -10 -54 10 -9 146 93 161 120 16 32 66 51 102 37 13 -4 54 -8 91 -8 56 0
75 -4 105 -25 20 -14 43 -25 51 -25 17 0 48 -12 132 -52 35 -16 85 -33 112
-37 27 -4 68 -19 92 -33 40 -24 56 -26 189 -30 158 -5 194 -14 244 -64 54 -54
66 -83 66 -160 0 -62 -3 -75 -31 -112 -16 -23 -61 -62 -99 -87 -75 -50 -209
-115 -236 -115 -11 0 -3 -10 22 -29 109 -80 173 -184 182 -296 8 -107 -53
-212 -153 -261 -30 -14 -62 -24 -70 -20 -9 3 -14 2 -11 -3 7 -11 -30 -21 -41
-11 -4 5 -26 12 -47 16 -31 5 -37 4 -31 -6 6 -10 2 -11 -16 -6 -13 4 -32 9
-42 11 -9 2 -21 6 -26 10 -5 3 -13 1 -16 -5 -5 -8 -11 -8 -19 -1 -7 6 -16 8
-19 4 -4 -3 -7 -2 -7 3 0 5 -24 10 -52 12 -29 2 -62 4 -73 6 -11 2 -30 -1 -42
-7 -12 -5 -30 -6 -40 -2 -31 14 -64 12 -58 -3 3 -7 5 -20 5 -28 0 -9 5 -12 10
-9 6 3 10 2 10 -4 0 -6 11 -13 25 -17 14 -3 25 -13 25 -21 0 -8 4 -12 9 -8 5
3 28 -1 50 -8 47 -17 136 -13 194 9 23 8 69 22 101 30 58 14 60 14 84 -8 55
-51 78 -157 48 -217 -20 -39 -85 -94 -103 -87 -8 3 -12 2 -9 -3 3 -5 -2 -12
-11 -15 -9 -4 -20 -2 -23 5 -6 8 -9 8 -12 -1 -2 -8 -12 -10 -26 -6 -13 4 -19
12 -16 18 5 7 2 8 -5 3 -22 -13 7 -29 104 -59 78 -24 238 -79 315 -108 14 -5
27 -9 29 -8 2 1 7 -3 10 -8 3 -5 39 -26 79 -46 68 -34 75 -36 86 -20 7 9 19
14 27 11 10 -4 9 -6 -3 -6 -10 -1 -18 -6 -18 -12 0 -6 14 -8 38 -4 20 4 42 7
49 8 6 0 9 6 6 13 -6 16 34 29 51 15 9 -8 13 -7 13 5 0 12 -8 15 -34 10 -107
-19 -103 -19 -104 0 0 18 -1 17 -9 -1 -10 -22 -13 -5 -4 19 5 12 9 13 19 3 7
-7 11 -15 8 -19 -8 -14 41 -8 61 7 10 8 23 12 27 9 5 -3 9 0 9 6 0 7 -7 10
-15 6 -9 -3 -15 0 -15 10 0 14 20 14 60 1 40 -14 70 -17 70 -7 0 6 -4 9 -9 6
-5 -3 -11 1 -14 8 -4 9 -19 14 -37 14 -16 -1 -33 2 -36 5 -3 3 16 5 43 5 53
-1 93 -24 71 -41 -10 -6 -9 -7 3 -4 9 3 21 1 26 -4 5 -5 9 -1 10 12 1 12 -3
19 -10 16 -11 -3 -37 15 -37 27 0 3 11 2 23 -3 13 -5 30 -6 37 -1 7 5 25 4 38
-1 22 -8 23 -8 12 6 -7 8 -16 12 -21 9 -5 -3 -6 3 -2 13 6 16 5 17 -12 3 -18
-15 -18 -14 -1 13 21 31 28 35 19 10 -5 -12 -3 -14 7 -8 8 5 11 4 6 -3 -3 -6
-2 -14 4 -17 7 -5 10 288 8 947 -3 933 -3 954 -23 986 -11 18 -36 43 -55 55
l-35 22 -870 3 -870 3 47 -48z m1658 -1969 c0 -8 -5 -12 -10 -9 -6 4 -8 11 -5
16 9 14 15 11 15 -7z m80 -9 c0 -8 -2 -15 -4 -15 -2 0 -6 7 -10 15 -3 8 -1 15
4 15 6 0 10 -7 10 -15z m-310 -45 c6 -11 8 -20 6 -20 -3 0 -10 9 -16 20 -6 11
-8 20 -6 20 3 0 10 -9 16 -20z m-35 -10 c3 -6 -1 -7 -9 -4 -18 7 -21 14 -7 14
6 0 13 -4 16 -10z m130 -18 c-3 -3 -11 0 -18 7 -9 10 -8 11 6 5 10 -3 15 -9
12 -12z"/>
<path d="M2460 5175 c0 -5 5 -17 10 -25 5 -8 10 -10 10 -5 0 6 -5 17 -10 25
-5 8 -10 11 -10 5z"/>
<path d="M2501 5054 c0 -11 3 -14 6 -6 3 7 2 16 -1 19 -3 4 -6 -2 -5 -13z"/>
<path d="M2511 5014 c0 -11 3 -14 6 -6 3 7 2 16 -1 19 -3 4 -6 -2 -5 -13z"/>
<path d="M2920 5010 c0 -5 5 -10 11 -10 5 0 7 5 4 10 -3 6 -8 10 -11 10 -2 0
-4 -4 -4 -10z"/>
<path d="M2523 4935 c0 -33 2 -45 4 -27 2 18 2 45 0 60 -2 15 -4 0 -4 -33z"/>
<path d="M2785 4911 c-5 -17 -24 -29 -57 -37 -5 -1 -11 -3 -15 -4 -5 -1 -11
-2 -15 -1 -4 0 -15 -13 -25 -29 -9 -17 -25 -33 -35 -36 -28 -8 -22 -20 23 -43
74 -39 193 -40 240 -2 20 16 21 21 10 54 -7 20 -24 46 -38 57 -29 23 -53 15
-89 -28 -20 -25 -21 -25 -19 -4 1 12 11 35 23 52 12 16 18 31 13 35 -5 3 -12
-4 -16 -14z"/>
<path d="M2411 4881 c43 -27 99 -81 86 -81 -4 0 -16 6 -27 13 -32 19 -42 -6
-37 -93 3 -41 1 -85 -4 -98 -8 -20 -6 -22 18 -20 30 3 38 -17 16 -40 -9 -10
-10 -19 -3 -33 10 -18 6 -24 -14 -20 -5 1 -5 -4 1 -11 5 -7 9 -46 7 -85 -3
-70 -3 -73 21 -79 33 -8 271 -1 281 9 4 4 -7 22 -24 40 -18 18 -32 39 -32 45
0 7 -7 15 -15 18 -9 4 -13 15 -11 30 3 13 0 24 -5 24 -5 0 -9 4 -9 9 0 5 8 8
18 6 9 -2 19 -4 22 -4 2 -1 -1 -6 -8 -13 -9 -9 -7 -15 6 -25 9 -8 11 -11 3 -7
-9 5 -12 3 -7 -4 5 -9 12 -8 26 0 19 12 18 14 -15 48 -43 45 -44 62 -2 80 l32
14 -57 4 c-32 1 -58 6 -58 9 0 4 7 15 17 25 9 11 11 18 5 18 -7 0 -12 5 -12
10 0 6 8 10 19 10 10 0 24 7 31 15 10 12 9 16 -6 21 -17 6 -201 138 -214 153
-6 7 -78 41 -87 41 -4 0 13 -13 38 -29z m69 -245 c0 -2 -9 -6 -20 -9 -11 -3
-18 -1 -14 4 5 9 34 13 34 5z m124 -4 c2 -4 -11 -6 -30 -4 -19 2 -34 6 -34 8
0 8 59 4 64 -4z"/>
<path d="M2940 4890 c6 -11 8 -36 4 -55 -7 -41 -1 -44 21 -12 12 19 13 28 2
50 -6 15 -18 29 -25 32 -10 3 -10 0 -2 -15z"/>
<path d="M1850 4814 c0 -8 5 -12 10 -9 6 4 8 11 5 16 -9 14 -15 11 -15 -7z"/>
<path d="M1842 4714 c2 -37 7 -48 24 -55 20 -7 21 -6 11 21 -8 22 -8 32 2 44
7 9 17 14 21 11 5 -3 12 0 16 6 5 9 0 10 -14 7 -12 -4 -25 -2 -28 3 -3 5 -12
9 -20 9 -12 0 -14 -11 -12 -46z"/>
<path d="M1913 4685 c-3 -9 -3 -18 -1 -21 3 -3 8 4 11 16 6 23 -1 27 -10 5z"/>
<path d="M2274 4673 c8 -25 -2 -55 -16 -47 -6 4 -8 -1 -4 -13 8 -25 -3 -55
-17 -46 -6 3 -7 1 -3 -5 3 -6 -19 -93 -50 -194 -31 -101 -58 -193 -61 -206 -3
-12 -9 -25 -14 -28 -5 -3 -5 -13 1 -24 10 -18 4 -50 -11 -60 -9 -6 -49 -78
-49 -88 0 -4 17 -6 38 -4 32 4 43 12 84 66 26 34 61 92 78 128 26 55 29 70 20
88 -15 28 3 309 25 392 5 20 2 32 -10 45 -17 16 -17 16 -11 -4z"/>
<path d="M3677 4655 c3 -16 10 -55 13 -85 l7 -55 1 50 c0 28 -6 66 -14 85 -13
31 -13 32 -7 5z"/>
<path d="M1836 4623 c-3 -3 -3 -10 0 -14 7 -12 34 -11 34 0 0 11 -26 22 -34
14z"/>
<path d="M1830 4528 c0 -29 1 -30 18 -16 9 9 26 18 37 20 14 2 10 6 -18 15
l-37 11 0 -30z"/>
<path d="M6000 4385 c0 -98 1 -105 20 -105 19 0 20 7 20 105 0 98 -1 105 -20
105 -19 0 -20 -7 -20 -105z"/>
<path d="M6077 4484 c-4 -4 -7 -52 -7 -106 l0 -98 25 0 26 0 -3 102 c-2 83 -6
103 -18 106 -9 1 -19 0 -23 -4z"/>
<path d="M5700 4380 l0 -100 25 0 c22 0 25 4 25 39 0 39 1 40 38 43 25 2 37 8
37 18 0 10 -12 16 -37 18 -30 3 -38 7 -38 23 0 16 7 19 40 19 33 0 40 3 40 20
0 18 -7 20 -65 20 l-65 0 0 -100z"/>
<path d="M6210 4380 l0 -100 65 0 c58 0 65 2 65 20 0 17 -7 20 -45 20 l-45 0
0 80 c0 73 -2 80 -20 80 -19 0 -20 -7 -20 -100z"/>
<path d="M6360 4466 c0 -8 4 -17 9 -20 11 -7 33 18 24 27 -12 12 -33 7 -33 -7z"/>
<path d="M6682 4464 c4 -21 22 -23 26 -1 2 10 -3 17 -13 17 -10 0 -15 -6 -13
-16z"/>
<path d="M7110 4444 c0 -33 -2 -36 -24 -30 -36 9 -76 -27 -76 -68 0 -47 25
-65 88 -64 l52 1 0 99 c0 91 -1 98 -20 98 -16 0 -20 -7 -20 -36z m-2 -93 c5
-30 -10 -45 -37 -36 -21 6 -29 43 -14 59 15 15 48 1 51 -23z"/>
<path d="M7250 4380 l0 -100 66 0 c57 0 65 2 62 18 -2 12 -15 18 -46 20 -34 3
-42 7 -42 23 0 16 7 19 40 19 33 0 40 3 40 20 0 17 -7 20 -40 20 -33 0 -40 3
-40 20 0 17 7 20 45 20 38 0 45 3 45 20 0 18 -7 20 -65 20 l-65 0 0 -100z"/>
<path d="M7500 4444 c0 -33 -2 -36 -24 -30 -36 9 -76 -27 -76 -68 0 -47 25
-65 88 -64 l52 1 0 99 c0 91 -1 98 -20 98 -16 0 -20 -7 -20 -36z m-2 -93 c5
-30 -10 -45 -37 -36 -21 6 -29 43 -14 59 15 15 48 1 51 -23z"/>
<path d="M7582 4464 c4 -21 22 -23 26 -1 2 10 -3 17 -13 17 -10 0 -15 -6 -13
-16z"/>
<path d="M7762 4464 c4 -21 22 -23 26 -1 2 10 -3 17 -13 17 -10 0 -15 -6 -13
-16z"/>
<path d="M8225 4456 c-23 -35 -13 -56 41 -89 44 -26 46 -29 30 -45 -13 -13
-21 -14 -46 -5 -23 9 -32 8 -40 -2 -28 -34 86 -51 121 -19 31 28 21 65 -26 91
-52 29 -54 58 -5 58 24 0 35 5 35 15 0 11 -13 16 -47 18 -41 3 -49 0 -63 -22z"/>
<path d="M8840 4380 c0 -93 1 -100 20 -100 13 0 20 7 20 19 0 31 16 33 34 6
10 -16 26 -25 42 -25 l25 0 -30 37 -31 37 27 28 27 28 -24 0 c-13 0 -34 -10
-47 -22 l-23 -21 0 56 c0 50 -2 57 -20 57 -19 0 -20 -7 -20 -100z"/>
<path d="M1817 4453 c-4 -3 -7 -12 -7 -19 0 -9 7 -10 30 -1 20 7 25 14 17 19
-15 10 -32 10 -40 1z"/>
<path d="M2747 4443 c8 -22 24 -34 36 -26 9 5 -21 43 -34 43 -5 0 -5 -8 -2
-17z"/>
<path d="M1980 4440 c0 -5 5 -10 11 -10 5 0 7 5 4 10 -3 6 -8 10 -11 10 -2 0
-4 -4 -4 -10z"/>
<path d="M6760 4430 c0 -11 -7 -20 -15 -20 -8 0 -15 -7 -15 -15 0 -8 7 -15 15
-15 11 0 15 -11 15 -38 0 -45 14 -62 52 -62 33 0 39 25 8 33 -15 4 -20 14 -20
36 0 24 4 31 20 31 11 0 20 7 20 15 0 8 -8 15 -19 15 -10 0 -21 9 -24 20 -3
11 -12 20 -21 20 -9 0 -16 -8 -16 -20z"/>
<path d="M7660 4430 c0 -11 -7 -20 -15 -20 -8 0 -15 -7 -15 -15 0 -8 7 -15 15
-15 11 0 15 -11 15 -38 0 -45 14 -62 52 -62 33 0 39 25 8 33 -15 4 -20 14 -20
36 0 24 4 31 20 31 11 0 20 7 20 15 0 8 -8 15 -19 15 -10 0 -21 9 -24 20 -3
11 -12 20 -21 20 -9 0 -16 -8 -16 -20z"/>
<path d="M5872 4410 c-30 -13 -19 -30 18 -30 16 0 32 -4 35 -10 4 -6 -6 -10
-24 -10 -16 0 -37 -7 -45 -16 -19 -18 -19 -20 -6 -44 8 -16 21 -19 65 -18 l55
2 0 46 c0 25 -6 54 -12 63 -17 21 -57 29 -86 17z m56 -82 c-5 -15 -48 -24 -48
-10 0 14 12 22 33 22 10 0 17 -5 15 -12z"/>
<path d="M6497 4414 c-4 -4 -20 -7 -37 -6 l-30 1 0 -65 c0 -57 2 -64 19 -64
17 0 20 8 23 48 3 39 6 47 23 47 17 0 20 -8 23 -47 3 -39 7 -48 22 -48 15 0
19 9 22 48 3 39 6 47 23 47 17 0 20 -8 23 -47 3 -40 6 -48 23 -48 16 0 19 7
19 50 0 60 -27 96 -63 85 -29 -9 -48 -9 -68 -1 -8 4 -18 4 -22 0z"/>
<path d="M6890 4407 c-38 -19 -49 -61 -23 -95 17 -22 28 -27 64 -27 33 0 45 4
47 17 3 14 -3 16 -31 11 -20 -3 -37 -1 -41 6 -5 7 8 11 38 11 42 0 46 2 46 24
0 15 -11 33 -26 45 -31 24 -40 25 -74 8z m60 -37 c0 -5 -11 -10 -25 -10 -14 0
-25 5 -25 10 0 6 11 10 25 10 14 0 25 -4 25 -10z"/>
<path d="M7863 4410 c-44 -18 -56 -77 -23 -110 26 -26 81 -26 103 -2 49 54
-13 139 -80 112z m55 -61 c4 -30 -22 -46 -44 -28 -15 12 -19 41 -7 53 16 16
48 1 51 -25z"/>
<path d="M8042 4411 c-7 -4 -24 -6 -38 -3 -23 4 -24 3 -24 -62 0 -63 1 -66 24
-66 23 0 25 5 28 48 3 39 6 47 23 47 17 0 20 -8 23 -47 3 -40 6 -48 23 -48 16
0 19 7 19 50 0 68 -38 107 -78 81z"/>
<path d="M8432 4411 c-7 -4 -24 -6 -38 -3 -23 4 -24 3 -24 -62 0 -59 2 -66 20
-66 16 0 20 7 20 34 0 47 9 66 30 66 21 0 30 -19 30 -66 0 -28 4 -34 21 -34
20 0 21 4 17 55 -3 31 -9 60 -14 64 -15 15 -48 21 -62 12z"/>
<path d="M8557 4400 c-33 -26 -36 -71 -7 -100 30 -30 115 -25 104 5 -3 8 -12
11 -20 8 -8 -3 -26 -2 -42 3 -24 7 -22 9 23 14 46 5 50 7 47 30 -6 52 -62 74
-105 40z m68 -30 c4 -6 -7 -10 -25 -10 -18 0 -29 4 -25 10 3 6 15 10 25 10 10
0 22 -4 25 -10z"/>
<path d="M8712 4410 c-30 -13 -19 -30 18 -30 16 0 32 -4 35 -10 4 -6 -6 -10
-24 -10 -16 0 -37 -7 -45 -16 -19 -18 -19 -20 -6 -44 8 -16 21 -19 65 -18 l55
2 0 46 c0 25 -6 54 -12 63 -17 21 -57 29 -86 17z m56 -82 c-5 -15 -48 -24 -48
-10 0 14 12 22 33 22 10 0 17 -5 15 -12z"/>
<path d="M9033 4410 c-24 -10 -43 -39 -43 -68 0 -44 78 -79 119 -53 21 14 5
28 -27 23 -16 -2 -33 1 -36 7 -5 7 8 11 38 11 38 0 46 3 46 19 0 43 -55 77
-97 61z m52 -40 c4 -6 -7 -10 -25 -10 -18 0 -29 4 -25 10 3 6 15 10 25 10 10
0 22 -4 25 -10z"/>
<path d="M9212 4411 c-7 -4 -24 -6 -38 -3 -23 4 -24 3 -24 -62 0 -59 2 -66 20
-66 16 0 20 7 20 38 0 42 14 62 43 62 12 0 17 6 15 17 -4 20 -18 26 -36 14z"/>
<path d="M9279 4402 c-27 -23 -21 -48 16 -62 34 -13 32 -32 -2 -28 -35 4 -39
-25 -4 -30 73 -11 100 42 39 75 l-33 18 33 3 c37 4 43 27 10 36 -32 8 -33 8
-59 -12z"/>
<path d="M2786 4401 c-6 -9 22 -37 33 -34 3 0 5 -3 4 -8 -2 -5 6 -9 17 -9 11
0 20 3 20 8 0 12 -69 52 -74 43z"/>
<path d="M6360 4345 c0 -58 2 -65 20 -65 18 0 20 7 20 65 0 58 -2 65 -20 65
-18 0 -20 -7 -20 -65z"/>
<path d="M6680 4345 c0 -58 2 -65 20 -65 18 0 20 7 20 65 0 58 -2 65 -20 65
-18 0 -20 -7 -20 -65z"/>
<path d="M7580 4345 c0 -58 2 -65 20 -65 18 0 20 7 20 65 0 58 -2 65 -20 65
-18 0 -20 -7 -20 -65z"/>
<path d="M7760 4345 c0 -58 2 -65 20 -65 18 0 20 7 20 65 0 58 -2 65 -20 65
-18 0 -20 -7 -20 -65z"/>
<path d="M1795 4349 c-4 -18 -3 -35 4 -42 8 -8 11 -4 11 15 0 15 5 30 10 33 6
4 8 11 5 16 -11 18 -23 9 -30 -22z"/>
<path d="M1981 4344 c0 -11 3 -14 6 -6 3 7 2 16 -1 19 -3 4 -6 -2 -5 -13z"/>
<path d="M3380 4269 c0 -5 5 -7 10 -4 6 3 10 8 10 11 0 2 -4 4 -10 4 -5 0 -10
-5 -10 -11z"/>
<path d="M1781 4254 c0 -11 3 -14 6 -6 3 7 2 16 -1 19 -3 4 -6 -2 -5 -13z"/>
<path d="M3255 4254 c-33 -7 -43 -11 -22 -9 27 3 35 1 30 -8 -5 -9 -3 -9 8 0
9 7 33 17 55 22 25 6 30 9 14 9 -14 0 -52 -6 -85 -14z"/>
<path d="M3125 4230 c-19 -8 -19 -9 2 -9 12 -1 25 4 28 9 7 12 -2 12 -30 0z"/>
<path d="M3035 4210 c-11 -5 -32 -9 -47 -9 -16 -1 -28 -4 -28 -8 0 -5 -17 -9
-38 -11 -49 -3 -102 -21 -102 -34 0 -6 8 -7 17 -4 9 4 20 1 25 -6 6 -10 8 -9
8 4 0 12 6 16 22 13 12 -3 26 -1 32 3 6 5 36 16 66 25 119 36 118 35 90 36
-14 0 -34 -4 -45 -9z"/>
<path d="M2796 4155 c-3 -8 -1 -15 4 -15 6 0 10 7 10 15 0 8 -2 15 -4 15 -2 0
-6 -7 -10 -15z"/>
<path d="M2593 4143 c9 -2 25 -2 35 0 9 3 1 5 -18 5 -19 0 -27 -2 -17 -5z"/>
<path d="M6183 4070 c0 -36 2 -50 4 -32 2 17 2 47 0 65 -2 17 -4 3 -4 -33z"/>
<path d="M6795 4120 c-3 -6 1 -7 9 -4 18 7 21 14 7 14 -6 0 -13 -4 -16 -10z"/>
<path d="M8654 4116 c-3 -7 -3 -35 -1 -62 l3 -49 2 57 c1 34 7 58 15 61 9 4 9
6 -1 6 -7 1 -15 -5 -18 -13z"/>
<path d="M5733 4065 c0 -33 2 -45 4 -27 2 18 2 45 0 60 -2 15 -4 0 -4 -33z"/>
<path d="M5820 4086 c0 -2 9 -6 20 -9 11 -3 18 -1 14 4 -5 9 -34 13 -34 5z"/>
<path d="M5938 4072 c9 -10 19 -17 21 -16 6 5 -20 34 -30 34 -5 0 -1 -8 9 -18z"/>
<path d="M6958 4072 c9 -10 19 -17 21 -16 6 5 -20 34 -30 34 -5 0 -1 -8 9 -18z"/>
<path d="M7153 4079 c10 -6 18 -23 18 -42 2 -31 2 -31 6 -4 5 29 -11 57 -31
57 -6 0 -3 -5 7 -11z"/>
<path d="M7310 4086 c0 -2 9 -6 20 -9 11 -3 18 -1 14 4 -5 9 -34 13 -34 5z"/>
<path d="M8880 4060 c0 -16 2 -30 4 -30 2 0 6 14 8 30 3 17 1 30 -4 30 -4 0
-8 -13 -8 -30z"/>
<path d="M9094 4077 c25 -18 17 -52 -11 -51 -12 0 -20 -3 -17 -8 3 -4 16 -7
29 -6 20 2 25 8 25 28 0 26 -16 50 -34 50 -5 0 -2 -6 8 -13z"/>
<path d="M9344 4077 c25 -18 17 -52 -11 -51 -12 0 -20 -3 -17 -8 3 -4 16 -7
29 -6 20 2 25 8 25 28 0 26 -16 50 -34 50 -5 0 -2 -6 8 -13z"/>
<path d="M5893 4064 c-9 -24 10 -49 38 -51 24 -2 24 -2 -1 6 -19 5 -25 14 -25
34 1 31 -3 34 -12 11z"/>
<path d="M5980 4071 c0 -6 4 -13 10 -16 6 -3 7 1 4 9 -7 18 -14 21 -14 7z"/>
<path d="M6106 4067 c3 -10 9 -15 12 -12 3 3 0 11 -7 18 -10 9 -11 8 -5 -6z"/>
<path d="M6216 4065 c-9 -26 -7 -32 5 -12 6 10 9 21 6 23 -2 3 -7 -2 -11 -11z"/>
<path d="M6275 4052 c0 -23 -4 -27 -27 -27 -14 1 -24 -3 -22 -7 8 -12 38 -10
52 4 14 14 16 44 4 52 -4 2 -8 -8 -7 -22z"/>
<path d="M6520 4023 c0 -31 2 -54 5 -52 8 9 11 109 3 109 -4 0 -8 -25 -8 -57z"/>
<path d="M6588 4055 c3 -19 -1 -27 -19 -34 -14 -6 -18 -10 -8 -10 30 -2 54 48
30 63 -4 3 -6 -6 -3 -19z"/>
<path d="M6683 4064 c-8 -22 9 -48 33 -51 14 -2 12 0 -5 7 -18 8 -22 16 -19
35 6 28 1 33 -9 9z"/>
<path d="M6913 4064 c-9 -24 10 -49 38 -51 24 -2 24 -2 -1 6 -19 5 -25 14 -25
34 1 31 -3 34 -12 11z"/>
<path d="M7040 4071 c0 -6 4 -13 10 -16 6 -3 7 1 4 9 -7 18 -14 21 -14 7z"/>
<path d="M7110 4045 c0 -19 2 -35 4 -35 2 0 6 16 8 35 2 19 0 35 -4 35 -4 0
-8 -16 -8 -35z"/>
<path d="M7203 4064 c-9 -24 10 -49 38 -51 24 -2 24 -2 -1 6 -19 5 -25 14 -25
34 1 31 -3 34 -12 11z"/>
<path d="M7526 4067 c3 -10 9 -15 12 -12 3 3 0 11 -7 18 -10 9 -11 8 -5 -6z"/>
<path d="M7560 4045 c0 -19 2 -35 4 -35 2 0 6 16 8 35 2 19 0 35 -4 35 -4 0
-8 -16 -8 -35z"/>
<path d="M7620 4071 c0 -6 4 -13 10 -16 6 -3 7 1 4 9 -7 18 -14 21 -14 7z"/>
<path d="M7820 4069 c0 -5 5 -7 10 -4 6 3 10 8 10 11 0 2 -4 4 -10 4 -5 0 -10
-5 -10 -11z"/>
<path d="M8010 4077 c0 -4 7 -21 15 -37 8 -16 13 -37 10 -47 -3 -10 3 0 14 22
22 45 27 73 7 36 l-14 -24 -15 29 c-9 16 -16 25 -17 21z"/>
<path d="M8096 4065 c-9 -26 -7 -32 5 -12 6 10 9 21 6 23 -2 3 -7 -2 -11 -11z"/>
<path d="M8155 4052 c0 -23 -4 -27 -27 -27 -14 1 -24 -3 -22 -7 8 -12 38 -10
52 4 14 14 16 44 4 52 -4 2 -8 -8 -7 -22z"/>
<path d="M8192 4055 c0 -16 2 -22 5 -12 2 9 2 23 0 30 -3 6 -5 -1 -5 -18z"/>
<path d="M8250 4055 c0 -17 -7 -29 -22 -35 -22 -8 -21 -9 5 -7 24 1 27 5 27
34 0 18 -2 33 -5 33 -3 0 -5 -11 -5 -25z"/>
<path d="M8290 4045 c0 -19 2 -35 4 -35 2 0 6 16 8 35 2 19 0 35 -4 35 -4 0
-8 -16 -8 -35z"/>
<path d="M8391 4023 c1 -32 4 -46 6 -32 3 21 8 25 27 22 13 -3 26 -1 29 4 3 5
-7 9 -21 8 -23 0 -27 4 -27 28 1 15 -3 27 -7 27 -4 0 -7 -26 -7 -57z"/>
<path d="M8580 4045 c0 -19 2 -35 4 -35 2 0 6 16 8 35 2 19 0 35 -4 35 -4 0
-8 -16 -8 -35z"/>
<path d="M8756 4067 c3 -10 9 -15 12 -12 3 3 0 11 -7 18 -10 9 -11 8 -5 -6z"/>
<path d="M8793 4064 c-8 -22 9 -48 33 -51 14 -2 12 0 -5 7 -18 8 -22 16 -19
35 6 28 1 33 -9 9z"/>
<path d="M8973 4064 c-9 -24 10 -49 38 -51 24 -2 24 -2 -1 6 -19 5 -25 14 -25
34 1 31 -3 34 -12 11z"/>
<path d="M9211 4060 c-1 -29 15 -50 39 -49 10 0 9 3 -5 8 -11 4 -23 21 -26 37
-6 28 -7 28 -8 4z"/>
<path d="M9272 4050 c0 -19 2 -27 5 -17 2 9 2 25 0 35 -3 9 -5 1 -5 -18z"/>
<path d="M9515 4070 c3 -5 8 -10 11 -10 2 0 4 5 4 10 0 6 -5 10 -11 10 -5 0
-7 -4 -4 -10z"/>
<path d="M9646 4067 c3 -10 9 -15 12 -12 3 3 0 11 -7 18 -10 9 -11 8 -5 -6z"/>
<path d="M9770 4045 c0 -19 2 -35 4 -35 2 0 6 16 8 35 2 19 0 35 -4 35 -4 0
-8 -16 -8 -35z"/>
<path d="M6052 4050 c0 -14 2 -19 5 -12 2 6 2 18 0 25 -3 6 -5 1 -5 -13z"/>
<path d="M7472 4050 c0 -14 2 -19 5 -12 2 6 2 18 0 25 -3 6 -5 1 -5 -13z"/>
<path d="M7782 4040 c0 -19 2 -27 5 -17 2 9 2 25 0 35 -3 9 -5 1 -5 -18z"/>
<path d="M8702 4050 c0 -14 2 -19 5 -12 2 6 2 18 0 25 -3 6 -5 1 -5 -13z"/>
<path d="M9592 4050 c0 -14 2 -19 5 -12 2 6 2 18 0 25 -3 6 -5 1 -5 -13z"/>
<path d="M9732 4040 c0 -19 2 -27 5 -17 2 9 2 25 0 35 -3 9 -5 1 -5 -18z"/>
<path d="M7318 4053 c7 -3 16 -2 19 1 4 3 -2 6 -13 5 -11 0 -14 -3 -6 -6z"/>
<path d="M7403 4053 c-7 -3 -13 -9 -13 -14 0 -6 5 -7 11 -4 5 4 20 -1 32 -12
l22 -18 -20 25 c-11 14 -20 26 -20 26 0 1 -6 -1 -12 -3z"/>
<path d="M7734 4045 c-8 -19 4 -35 24 -34 15 1 15 2 0 6 -10 2 -18 11 -18 18
0 7 8 16 18 18 16 4 16 5 -1 6 -10 0 -20 -6 -23 -14z"/>
<path d="M7870 4050 c0 -5 5 -10 11 -10 5 0 7 5 4 10 -3 6 -8 10 -11 10 -2 0
-4 -4 -4 -10z"/>
<path d="M8480 4050 c0 -5 5 -10 11 -10 5 0 7 5 4 10 -3 6 -8 10 -11 10 -2 0
-4 -4 -4 -10z"/>
<path d="M9066 4051 c-4 -5 3 -7 14 -4 23 6 26 13 6 13 -8 0 -17 -4 -20 -9z"/>
<path d="M9316 4051 c-4 -5 3 -7 14 -4 23 6 26 13 6 13 -8 0 -17 -4 -20 -9z"/>
<path d="M9684 4045 c-8 -19 4 -35 24 -34 15 1 15 2 0 6 -10 2 -18 11 -18 18
0 7 8 16 18 18 16 4 16 5 -1 6 -10 0 -20 -6 -23 -14z"/>
<path d="M6015 4038 c4 -11 0 -18 -12 -21 -15 -4 -16 -5 -1 -6 22 -1 33 18 19
32 -9 9 -11 8 -6 -5z"/>
<path d="M6327 4032 c1 -8 3 -16 3 -18 0 -3 5 -2 10 1 6 3 10 11 10 16 0 6 -4
8 -9 5 -5 -4 -11 -3 -14 1 -2 5 -2 2 0 -5z"/>
<path d="M7075 4038 c4 -11 0 -18 -12 -21 -15 -4 -16 -5 -1 -6 22 -1 33 18 19
32 -9 9 -11 8 -6 -5z"/>
<path d="M7655 4038 c4 -11 0 -18 -12 -21 -15 -4 -16 -5 -1 -6 22 -1 33 18 19
32 -9 9 -11 8 -6 -5z"/>
<path d="M9175 4038 c4 -11 0 -18 -12 -21 -15 -4 -16 -5 -1 -6 22 -1 33 18 19
32 -9 9 -11 8 -6 -5z"/>
<path d="M9500 4041 c0 -7 -4 -9 -10 -6 -6 4 -7 -1 -3 -11 6 -15 7 -15 15 1 6
9 7 19 4 22 -3 4 -6 1 -6 -6z"/>
<path d="M9530 4045 c0 -5 4 -16 9 -23 6 -11 10 -10 15 4 3 9 4 19 1 22 -3 3
-5 -1 -5 -9 0 -11 -2 -11 -10 1 -5 8 -10 11 -10 5z"/>
<path d="M6387 4033 c-4 -3 -7 -11 -7 -17 0 -6 5 -5 12 2 6 6 9 14 7 17 -3 3
-9 2 -12 -2z"/>
<path d="M6078 4013 c7 -3 16 -2 19 1 4 3 -2 6 -13 5 -11 0 -14 -3 -6 -6z"/>
<path d="M7498 4013 c7 -3 16 -2 19 1 4 3 -2 6 -13 5 -11 0 -14 -3 -6 -6z"/>
<path d="M7908 4013 c7 -3 16 -2 19 1 4 3 -2 6 -13 5 -11 0 -14 -3 -6 -6z"/>
<path d="M8518 4013 c7 -3 16 -2 19 1 4 3 -2 6 -13 5 -11 0 -14 -3 -6 -6z"/>
<path d="M8728 4013 c7 -3 16 -2 19 1 4 3 -2 6 -13 5 -11 0 -14 -3 -6 -6z"/>
<path d="M8898 4013 c7 -3 16 -2 19 1 4 3 -2 6 -13 5 -11 0 -14 -3 -6 -6z"/>
<path d="M9618 4013 c7 -3 16 -2 19 1 4 3 -2 6 -13 5 -11 0 -14 -3 -6 -6z"/>
<path d="M2047 3942 c-9 -2 -15 -8 -12 -13 4 -5 -1 -9 -9 -9 -9 0 -16 -4 -16
-8 0 -4 -22 -33 -50 -64 -48 -54 -49 -56 -25 -60 20 -4 37 8 96 69 77 79 81
100 16 85z"/>
<path d="M9263 3870 c0 -36 2 -50 4 -32 2 17 2 47 0 65 -2 17 -4 3 -4 -33z"/>
<path d="M9843 3870 c0 -36 2 -50 4 -32 2 17 2 47 0 65 -2 17 -4 3 -4 -33z"/>
<path d="M9883 3870 c0 -36 2 -50 4 -32 2 17 2 47 0 65 -2 17 -4 3 -4 -33z"/>
<path d="M6613 3865 c0 -33 2 -45 4 -27 2 18 2 45 0 60 -2 15 -4 0 -4 -33z"/>
<path d="M8260 3866 c0 -31 4 -55 8 -52 8 5 6 96 -3 104 -3 3 -5 -20 -5 -52z"/>
<path d="M8360 3866 c0 -31 4 -55 8 -52 8 5 6 96 -3 104 -3 3 -5 -20 -5 -52z"/>
<path d="M8854 3861 c1 -30 6 -46 16 -48 10 -3 11 -2 3 4 -6 4 -13 26 -16 48
-4 40 -4 40 -3 -4z"/>
<path d="M9474 3861 c1 -30 6 -46 16 -48 10 -3 11 -2 3 4 -6 4 -13 26 -16 48
-4 40 -4 40 -3 -4z"/>
<path d="M5973 3879 c10 -6 18 -23 18 -42 2 -31 2 -31 6 -4 5 29 -11 57 -31
57 -6 0 -3 -5 7 -11z"/>
<path d="M6140 3886 c0 -2 9 -6 20 -9 11 -3 18 -1 14 4 -5 9 -34 13 -34 5z"/>
<path d="M6253 3879 c10 -6 18 -23 18 -42 2 -31 2 -31 6 -4 5 29 -11 57 -31
57 -6 0 -3 -5 7 -11z"/>
<path d="M6483 3879 c10 -6 18 -23 18 -42 2 -31 2 -31 6 -4 5 29 -11 57 -31
57 -6 0 -3 -5 7 -11z"/>
<path d="M6748 3872 c9 -10 19 -17 21 -16 6 5 -20 34 -30 34 -5 0 -1 -8 9 -18z"/>
<path d="M6880 3860 c0 -16 2 -30 4 -30 2 0 6 14 8 30 3 17 1 30 -4 30 -4 0
-8 -13 -8 -30z"/>
<path d="M7404 3877 c25 -18 17 -52 -11 -51 -12 0 -20 -3 -17 -8 3 -4 16 -7
29 -6 20 2 25 8 25 28 0 26 -16 50 -34 50 -5 0 -2 -6 8 -13z"/>
<path d="M7784 3877 c25 -18 17 -52 -11 -51 -12 0 -20 -3 -17 -8 3 -4 16 -7
29 -6 20 2 25 8 25 28 0 26 -16 50 -34 50 -5 0 -2 -6 8 -13z"/>
<path d="M8018 3872 c9 -10 19 -17 21 -16 6 5 -20 34 -30 34 -5 0 -1 -8 9 -18z"/>
<path d="M9107 3883 c-11 -10 -8 -33 4 -33 5 0 7 5 3 11 -3 6 0 15 7 20 8 5 9
9 3 9 -6 0 -14 -3 -17 -7z"/>
<path d="M9550 3886 c0 -2 9 -6 20 -9 11 -3 18 -1 14 4 -5 9 -34 13 -34 5z"/>
<path d="M5703 3864 c-8 -22 9 -48 33 -51 14 -2 12 0 -5 7 -18 8 -22 16 -19
35 6 28 1 33 -9 9z"/>
<path d="M5783 3864 c-12 -32 35 -70 58 -47 5 5 -3 9 -19 8 -23 0 -27 4 -27
28 1 31 -3 34 -12 11z"/>
<path d="M5883 3845 c0 -22 2 -30 4 -17 2 12 2 30 0 40 -3 9 -5 -1 -4 -23z"/>
<path d="M6030 3869 c0 -5 5 -7 10 -4 6 3 10 8 10 11 0 2 -4 4 -10 4 -5 0 -10
-5 -10 -11z"/>
<path d="M6210 3845 c0 -19 2 -35 4 -35 2 0 6 16 8 35 2 19 0 35 -4 35 -4 0
-8 -16 -8 -35z"/>
<path d="M6343 3864 c-8 -22 9 -48 33 -51 14 -2 12 0 -5 7 -18 8 -22 16 -19
35 6 28 1 33 -9 9z"/>
<path d="M6440 3845 c0 -19 2 -35 4 -35 2 0 6 16 8 35 2 19 0 35 -4 35 -4 0
-8 -16 -8 -35z"/>
<path d="M6703 3864 c-9 -24 10 -49 38 -51 24 -2 24 -2 -1 6 -19 5 -25 14 -25
34 1 31 -3 34 -12 11z"/>
<path d="M6842 3850 c0 -19 2 -27 5 -17 2 9 2 25 0 35 -3 9 -5 1 -5 -18z"/>
<path d="M6998 3850 c-3 -17 -1 -33 4 -36 4 -3 8 11 8 30 0 44 -6 47 -12 6z"/>
<path d="M7040 3869 c0 -5 5 -7 10 -4 6 3 10 8 10 11 0 2 -4 4 -10 4 -5 0 -10
-5 -10 -11z"/>
<path d="M7103 3845 c0 -22 2 -30 4 -17 2 12 2 30 0 40 -3 9 -5 -1 -4 -23z"/>
<path d="M7285 3850 c0 -16 3 -30 8 -30 4 0 7 14 7 30 0 17 -3 30 -7 30 -5 0
-8 -13 -8 -30z"/>
<path d="M7493 3864 c-8 -22 9 -48 33 -51 14 -2 12 0 -5 7 -18 8 -22 16 -19
35 6 28 1 33 -9 9z"/>
<path d="M7591 3860 c-1 -29 15 -50 39 -49 10 0 9 3 -5 8 -11 4 -23 21 -26 37
-6 28 -7 28 -8 4z"/>
<path d="M7652 3850 c0 -19 2 -27 5 -17 2 9 2 25 0 35 -3 9 -5 1 -5 -18z"/>
<path d="M7690 3845 c0 -19 2 -35 4 -35 2 0 6 16 8 35 2 19 0 35 -4 35 -4 0
-8 -16 -8 -35z"/>
<path d="M7898 3855 c3 -19 -1 -27 -19 -34 -14 -6 -18 -10 -8 -10 30 -2 54 48
30 63 -4 3 -6 -6 -3 -19z"/>
<path d="M7973 3864 c-9 -24 10 -49 38 -51 24 -2 24 -2 -1 6 -19 5 -25 14 -25
34 1 31 -3 34 -12 11z"/>
<path d="M8328 3855 c3 -19 -1 -27 -19 -34 -14 -6 -18 -10 -8 -10 30 -2 54 48
30 63 -4 3 -6 -6 -3 -19z"/>
<path d="M8428 3855 c3 -19 -1 -27 -19 -34 -14 -6 -18 -10 -8 -10 30 -2 54 48
30 63 -4 3 -6 -6 -3 -19z"/>
<path d="M8516 3867 c3 -10 9 -15 12 -12 3 3 0 11 -7 18 -10 9 -11 8 -5 -6z"/>
<path d="M8653 3864 c-8 -22 9 -48 33 -51 14 -2 12 0 -5 7 -18 8 -22 16 -19
35 6 28 1 33 -9 9z"/>
<path d="M8903 3864 c-9 -24 10 -49 38 -51 24 -2 24 -2 -1 6 -19 5 -25 14 -25
34 1 31 -3 34 -12 11z"/>
<path d="M9000 3869 c0 -5 5 -7 10 -4 6 3 10 8 10 11 0 2 -4 4 -10 4 -5 0 -10
-5 -10 -11z"/>
<path d="M9163 3864 c-12 -32 35 -70 58 -47 5 5 -3 9 -19 8 -23 0 -27 4 -27
28 1 31 -3 34 -12 11z"/>
<path d="M9293 3864 c-9 -24 10 -49 38 -51 24 -2 24 -2 -1 6 -19 5 -25 14 -25
34 1 31 -3 34 -12 11z"/>
<path d="M9676 3867 c3 -10 9 -15 12 -12 3 3 0 11 -7 18 -10 9 -11 8 -5 -6z"/>
<path d="M9710 3877 c0 -4 7 -21 15 -37 8 -16 13 -37 10 -47 -3 -10 3 0 14 22
22 45 27 73 7 36 l-14 -24 -15 29 c-9 16 -16 25 -17 21z"/>
<path d="M8462 3850 c0 -14 2 -19 5 -12 2 6 2 18 0 25 -3 6 -5 1 -5 -13z"/>
<path d="M9622 3850 c0 -14 2 -19 5 -12 2 6 2 18 0 25 -3 6 -5 1 -5 -13z"/>
<path d="M6148 3853 c7 -3 16 -2 19 1 4 3 -2 6 -13 5 -11 0 -14 -3 -6 -6z"/>
<path d="M7376 3851 c-4 -5 3 -7 14 -4 23 6 26 13 6 13 -8 0 -17 -4 -20 -9z"/>
<path d="M7756 3851 c-4 -5 3 -7 14 -4 23 6 26 13 6 13 -8 0 -17 -4 -20 -9z"/>
<path d="M6794 3830 c1 -8 10 -16 21 -17 15 -1 15 0 3 3 -9 3 -19 11 -21 17
-2 7 -3 5 -3 -3z"/>
<path d="M6943 3830 c2 -8 12 -16 23 -17 13 -2 15 -1 4 4 -8 3 -19 11 -23 17
-6 7 -7 6 -4 -4z"/>
<path d="M8178 3818 c5 -5 16 -8 23 -6 8 3 3 7 -10 11 -17 4 -21 3 -13 -5z"/>
<path d="M8758 3818 c5 -5 16 -8 23 -6 8 3 3 7 -10 11 -17 4 -21 3 -13 -5z"/>
<path d="M9115 3820 c-16 -7 -17 -9 -3 -9 9 -1 20 4 23 9 7 11 7 11 -20 0z"/>
<path d="M2760 3813 c8 -3 27 -12 43 -20 15 -7 27 -11 27 -9 0 8 -58 36 -72
35 -9 0 -8 -2 2 -6z"/>
<path d="M6058 3813 c7 -3 16 -2 19 1 4 3 -2 6 -13 5 -11 0 -14 -3 -6 -6z"/>
<path d="M6898 3813 c7 -3 16 -2 19 1 4 3 -2 6 -13 5 -11 0 -14 -3 -6 -6z"/>
<path d="M8488 3813 c7 -3 16 -2 19 1 4 3 -2 6 -13 5 -11 0 -14 -3 -6 -6z"/>
<path d="M9648 3813 c7 -3 16 -2 19 1 4 3 -2 6 -13 5 -11 0 -14 -3 -6 -6z"/>
<path d="M7290 3801 c0 -6 -10 -16 -22 -21 -16 -6 -18 -9 -7 -9 19 -1 45 26
35 36 -3 3 -6 1 -6 -6z"/>
<path d="M2852 3766 c7 -8 15 -12 17 -10 2 2 12 -1 22 -7 11 -5 19 -7 19 -5 0
6 -55 36 -65 36 -3 0 0 -6 7 -14z"/>
<path d="M2930 3730 c0 -5 9 -12 20 -15 11 -4 17 -11 14 -17 -4 -6 -3 -8 3 -5
9 6 34 -5 103 -45 31 -18 33 -18 12 -1 -13 11 -40 28 -60 39 -21 10 -41 24
-47 30 -14 15 -45 25 -45 14z"/>
<path d="M8665 3720 c-3 -6 1 -7 9 -4 18 7 21 14 7 14 -6 0 -13 -4 -16 -10z"/>
<path d="M7380 3665 c0 -32 2 -56 5 -53 8 8 9 98 1 105 -3 4 -6 -20 -6 -52z"/>
<path d="M2600 3701 c0 -5 7 -12 16 -15 14 -5 15 -4 4 9 -14 17 -20 19 -20 6z"/>
<path d="M8713 3660 c0 -30 2 -43 4 -27 2 15 2 39 0 55 -2 15 -4 2 -4 -28z"/>
<path d="M5874 3661 c1 -30 6 -46 16 -48 10 -3 11 -2 3 4 -6 4 -13 26 -16 48
-4 40 -4 40 -3 -4z"/>
<path d="M6904 3661 c1 -30 6 -46 16 -48 10 -3 11 -2 3 4 -6 4 -13 26 -16 48
-4 40 -4 40 -3 -4z"/>
<path d="M7914 3661 c1 -30 6 -46 16 -48 10 -3 11 -2 3 4 -6 4 -13 26 -16 48
-4 40 -4 40 -3 -4z"/>
<path d="M5950 3686 c0 -2 9 -6 20 -9 11 -3 18 -1 14 4 -5 9 -34 13 -34 5z"/>
<path d="M6024 3679 c-3 -6 -1 -16 6 -22 10 -9 11 -9 5 2 -4 8 -2 17 6 22 9 6
10 9 2 9 -6 0 -15 -5 -19 -11z"/>
<path d="M6339 3673 c-13 -17 -13 -17 6 -3 11 8 22 16 24 17 2 2 0 3 -6 3 -6
0 -17 -8 -24 -17z"/>
<path d="M7423 3679 c10 -6 18 -23 18 -42 2 -31 2 -31 6 -4 5 29 -11 57 -31
57 -6 0 -3 -5 7 -11z"/>
<path d="M7854 3677 c25 -18 17 -52 -11 -51 -12 0 -20 -3 -17 -8 3 -4 16 -7
29 -6 20 2 25 8 25 28 0 26 -16 50 -34 50 -5 0 -2 -6 8 -13z"/>
<path d="M7990 3686 c0 -2 9 -6 20 -9 11 -3 18 -1 14 4 -5 9 -34 13 -34 5z"/>
<path d="M8350 3686 c0 -2 9 -6 20 -9 11 -3 18 -1 14 4 -5 9 -34 13 -34 5z"/>
<path d="M8463 3679 c10 -6 18 -23 18 -42 2 -31 2 -31 6 -4 5 29 -11 57 -31
57 -6 0 -3 -5 7 -11z"/>
<path d="M8808 3672 c9 -10 19 -17 21 -16 6 5 -20 34 -30 34 -5 0 -1 -8 9 -18z"/>
<path d="M2695 3669 c-4 -5 0 -10 7 -11 7 0 18 -2 23 -2 6 -1 16 -5 23 -9 6
-5 12 -4 12 1 0 14 -58 33 -65 21z"/>
<path d="M6385 3670 c3 -5 8 -10 11 -10 2 0 4 5 4 10 0 6 -5 10 -11 10 -5 0
-7 -4 -4 -10z"/>
<path d="M6526 3667 c3 -10 9 -15 12 -12 3 3 0 11 -7 18 -10 9 -11 8 -5 -6z"/>
<path d="M6643 3664 c-9 -24 10 -49 38 -51 24 -2 24 -2 -1 6 -19 5 -25 14 -25
34 1 31 -3 34 -12 11z"/>
<path d="M6740 3645 c0 -19 2 -35 4 -35 2 0 6 16 8 35 2 19 0 35 -4 35 -4 0
-8 -16 -8 -35z"/>
<path d="M6855 3669 c-4 -6 -5 -12 -2 -15 2 -3 7 2 10 11 7 17 1 20 -8 4z"/>
<path d="M7053 3645 c0 -22 2 -30 4 -17 2 12 2 30 0 40 -3 9 -5 -1 -4 -23z"/>
<path d="M7235 3650 c0 -16 3 -30 8 -30 4 0 7 14 7 30 0 17 -3 30 -7 30 -5 0
-8 -13 -8 -30z"/>
<path d="M7656 3667 c3 -10 9 -15 12 -12 3 3 0 11 -7 18 -10 9 -11 8 -5 -6z"/>
<path d="M8116 3667 c3 -10 9 -15 12 -12 3 3 0 11 -7 18 -10 9 -11 8 -5 -6z"/>
<path d="M8150 3645 c0 -19 2 -35 4 -35 2 0 6 16 8 35 2 19 0 35 -4 35 -4 0
-8 -16 -8 -35z"/>
<path d="M8253 3664 c-8 -22 9 -48 33 -51 14 -2 12 0 -5 7 -18 8 -22 16 -19
35 6 28 1 33 -9 9z"/>
<path d="M8420 3645 c0 -19 2 -35 4 -35 2 0 6 16 8 35 2 19 0 35 -4 35 -4 0
-8 -16 -8 -35z"/>
<path d="M8553 3664 c-12 -32 35 -70 58 -47 5 5 -3 9 -19 8 -23 0 -27 4 -27
28 1 31 -3 34 -12 11z"/>
<path d="M8763 3664 c-9 -24 10 -49 38 -51 24 -2 24 -2 -1 6 -19 5 -25 14 -25
34 1 31 -3 34 -12 11z"/>
<path d="M8860 3669 c0 -5 5 -7 10 -4 6 3 10 8 10 11 0 2 -4 4 -10 4 -5 0 -10
-5 -10 -11z"/>
<path d="M6202 3640 c0 -19 2 -27 5 -17 2 9 2 25 0 35 -3 9 -5 1 -5 -18z"/>
<path d="M6472 3650 c0 -14 2 -19 5 -12 2 6 2 18 0 25 -3 6 -5 1 -5 -13z"/>
<path d="M8062 3650 c0 -14 2 -19 5 -12 2 6 2 18 0 25 -3 6 -5 1 -5 -13z"/>
<path d="M6154 3645 c-8 -19 4 -35 24 -34 15 1 15 2 0 6 -10 2 -18 11 -18 18
0 7 8 16 18 18 16 4 16 5 -1 6 -10 0 -20 -6 -23 -14z"/>
<path d="M7470 3650 c0 -5 5 -10 11 -10 5 0 7 5 4 10 -3 6 -8 10 -11 10 -2 0
-4 -4 -4 -10z"/>
<path d="M7720 3650 c0 -5 5 -10 11 -10 5 0 7 5 4 10 -3 6 -8 10 -11 10 -2 0
-4 -4 -4 -10z"/>
<path d="M7826 3651 c-4 -5 3 -7 14 -4 23 6 26 13 6 13 -8 0 -17 -4 -20 -9z"/>
<path d="M8358 3653 c7 -3 16 -2 19 1 4 3 -2 6 -13 5 -11 0 -14 -3 -6 -6z"/>
<path d="M2770 3644 c0 -5 36 -23 80 -40 43 -17 77 -27 74 -23 -2 4 -24 15
-49 25 -25 9 -45 20 -45 24 0 4 -6 7 -12 7 -7 0 -21 4 -30 8 -10 4 -18 3 -18
-1z"/>
<path d="M5717 3632 c1 -8 3 -16 3 -18 0 -3 5 -2 10 1 6 3 10 11 10 16 0 6 -4
8 -9 5 -5 -4 -11 -3 -14 1 -2 5 -2 2 0 -5z"/>
<path d="M5777 3633 c-4 -3 -7 -11 -7 -17 0 -6 5 -5 12 2 6 6 9 14 7 17 -3 3
-9 2 -12 -2z"/>
<path d="M6828 3617 c4 -14 7 -16 13 -5 12 19 11 25 -5 25 -8 0 -11 -8 -8 -20z"/>
<path d="M7620 3631 c0 -5 5 -13 10 -16 6 -3 10 -2 10 4 0 5 -4 13 -10 16 -5
3 -10 2 -10 -4z"/>
<path d="M7670 3631 c0 -5 5 -13 10 -16 6 -3 10 -2 10 4 0 5 -4 13 -10 16 -5
3 -10 2 -10 -4z"/>
<path d="M6107 3619 c7 -7 15 -10 18 -7 3 3 -2 9 -12 12 -14 6 -15 5 -6 -5z"/>
<path d="M6580 3619 c0 -5 5 -7 10 -4 6 3 10 8 10 11 0 2 -4 4 -10 4 -5 0 -10
-5 -10 -11z"/>
<path d="M7337 3619 c7 -7 15 -10 18 -7 3 3 -2 9 -12 12 -14 6 -15 5 -6 -5z"/>
<path d="M6028 3613 c6 -2 18 -2 25 0 6 3 1 5 -13 5 -14 0 -19 -2 -12 -5z"/>
<path d="M6358 3613 c7 -3 16 -2 19 1 4 3 -2 6 -13 5 -11 0 -14 -3 -6 -6z"/>
<path d="M6498 3613 c7 -3 16 -2 19 1 4 3 -2 6 -13 5 -11 0 -14 -3 -6 -6z"/>
<path d="M7508 3613 c7 -3 16 -2 19 1 4 3 -2 6 -13 5 -11 0 -14 -3 -6 -6z"/>
<path d="M7758 3613 c7 -3 16 -2 19 1 4 3 -2 6 -13 5 -11 0 -14 -3 -6 -6z"/>
<path d="M8088 3613 c7 -3 16 -2 19 1 4 3 -2 6 -13 5 -11 0 -14 -3 -6 -6z"/>
<path d="M7240 3601 c0 -6 -10 -16 -22 -21 -16 -6 -18 -9 -7 -9 19 -1 45 26
35 36 -3 3 -6 1 -6 -6z"/>
<path d="M2950 3571 c0 -6 5 -11 10 -11 6 0 22 -11 35 -25 13 -15 26 -22 29
-16 4 5 -6 18 -21 29 -44 30 -53 34 -53 23z"/>
<path d="M2980 3437 c0 -15 47 -33 58 -22 3 3 -2 5 -11 5 -8 0 -23 7 -31 16
-14 13 -16 13 -16 1z"/>
<path d="M5760 3359 c0 -6 -11 -20 -26 -31 -39 -31 -29 -66 26 -98 61 -36 59
-55 -4 -55 -58 0 -73 -20 -27 -36 17 -6 31 -17 31 -25 0 -8 7 -14 15 -14 8 0
15 6 15 13 0 6 14 20 31 29 25 15 30 23 27 50 -2 26 -11 37 -43 55 -52 29 -54
58 -5 58 40 0 50 28 13 33 -13 2 -23 10 -23 18 0 8 -7 14 -15 14 -8 0 -15 -5
-15 -11z"/>
<path d="M5901 3345 c-23 -11 -31 -20 -27 -31 3 -9 6 -17 6 -19 0 -2 9 -1 20
2 19 5 20 0 20 -86 0 -90 0 -91 25 -91 l25 0 0 120 c0 134 0 134 -69 105z"/>
<path d="M6044 3350 c-30 -12 -38 -28 -23 -46 10 -13 14 -12 31 3 24 22 52 7
56 -30 3 -21 -8 -39 -47 -80 -28 -30 -51 -59 -51 -65 0 -8 25 -12 75 -12 68 0
75 2 75 20 0 16 -7 20 -35 20 l-35 0 35 46 c44 58 47 103 9 133 -28 22 -55 25
-90 11z"/>
<path d="M6214 3337 c-3 -13 -4 -41 -2 -63 2 -32 6 -39 23 -37 45 6 65 -6 65
-38 0 -35 -21 -47 -61 -32 -22 9 -29 8 -33 -4 -11 -26 -6 -32 30 -42 68 -19
127 27 115 89 -5 25 -31 48 -62 55 -20 5 -29 13 -29 26 0 16 7 19 40 19 36 0
40 3 40 25 0 24 -3 25 -60 25 -54 0 -60 -2 -66 -23z"/>
<path d="M6475 3336 c-45 -45 -42 -158 6 -201 25 -24 73 -23 99 0 54 49 44
186 -16 214 -38 17 -63 13 -89 -13z m73 -28 c14 -14 16 -116 3 -136 -14 -23
-44 -9 -53 23 -13 47 6 125 31 125 4 0 12 -5 19 -12z"/>
<path d="M6675 3338 c-33 -29 -46 -84 -33 -142 11 -53 37 -79 80 -79 82 0 119
153 53 219 -30 30 -66 31 -100 2z m72 -49 c25 -48 9 -129 -26 -129 -24 0 -31
19 -31 84 0 74 30 98 57 45z"/>
<path d="M6385 3150 c-8 -14 3 -30 21 -30 8 0 14 9 14 20 0 21 -24 28 -35 10z"/>
<path d="M4350 2990 c0 -5 5 -10 11 -10 5 0 7 5 4 10 -3 6 -8 10 -11 10 -2 0
-4 -4 -4 -10z"/>
<path d="M3775 2940 c3 -5 8 -10 11 -10 2 0 4 5 4 10 0 6 -5 10 -11 10 -5 0
-7 -4 -4 -10z"/>
<path d="M5714 2858 c-18 -19 -18 -20 -1 -33 18 -13 17 -14 -5 -18 -18 -3 -15
-5 10 -6 17 0 32 -6 32 -12 0 -7 -10 -9 -25 -7 -14 3 -25 1 -25 -3 0 -5 7 -9
15 -9 8 0 15 -5 15 -11 0 -7 11 0 25 15 13 14 32 26 42 26 13 0 14 -3 5 -12
-20 -20 -14 -28 23 -28 19 0 35 5 35 10 0 6 -9 10 -21 10 -11 0 -17 5 -14 10
3 6 28 10 56 10 27 0 49 -4 49 -10 0 -5 -12 -10 -26 -10 -14 0 -23 -4 -19 -10
11 -17 43 -11 59 12 l16 22 16 -22 c19 -27 50 -28 64 -2 6 11 21 20 33 20 12
0 28 -9 35 -20 7 -11 19 -20 27 -20 8 0 20 9 27 20 7 11 17 20 23 20 6 0 16
-9 23 -20 26 -42 72 -6 64 50 -9 60 -62 61 -77 2 l-8 -27 -13 32 c-7 17 -18
34 -24 38 -18 11 -50 -15 -50 -40 0 -20 -5 -25 -25 -25 -15 0 -25 6 -25 14 0
8 -8 24 -18 36 -22 28 -51 18 -59 -21 -6 -30 -17 -37 -28 -19 -3 6 -15 10 -26
10 -28 0 -19 23 12 31 21 6 21 7 -8 8 -29 1 -33 -2 -33 -23 0 -18 7 -26 23
-29 12 -2 3 -5 -21 -6 -40 -1 -42 0 -36 23 7 27 -23 51 -50 40 -23 -9 -19 -21
7 -20 16 1 22 -5 22 -19 0 -25 -44 -32 -86 -14 -31 12 -34 35 -5 33 20 -2 21
12 2 19 -8 3 -22 -3 -32 -15z m314 -26 c3 -17 -2 -22 -17 -22 -14 0 -21 6 -21
18 0 38 33 41 38 4z m126 12 c11 -27 7 -34 -20 -34 -20 0 -25 4 -20 16 3 9 6
20 6 25 0 15 27 10 34 -7z m96 7 c0 -5 3 -16 6 -25 5 -12 0 -16 -20 -16 -27 0
-31 7 -20 34 7 17 34 22 34 7z m-225 -61 c-3 -5 -13 -10 -21 -10 -8 0 -14 5
-14 10 0 6 9 10 21 10 11 0 17 -4 14 -10z m125 0 c0 -5 -7 -10 -15 -10 -8 0
-15 5 -15 10 0 6 7 10 15 10 8 0 15 -4 15 -10z m100 0 c0 -5 -6 -10 -14 -10
-8 0 -18 5 -21 10 -3 6 3 10 14 10 12 0 21 -4 21 -10z"/>
<path d="M2590 2576 c0 -2 33 -14 72 -26 65 -20 71 -23 55 -35 -17 -13 -17
-14 3 -20 11 -4 38 -4 58 0 60 10 136 8 140 -3 1 -5 12 -8 23 -5 11 3 18 11
16 17 -2 7 -36 11 -95 11 -51 0 -92 3 -92 7 0 8 -33 28 -58 33 -9 3 -35 9 -57
14 -43 11 -65 13 -65 7z"/>
<path d="M3223 2553 c-10 -15 -14 -16 -21 -4 -6 9 -17 11 -28 7 -11 -4 -34
-10 -53 -12 -19 -3 -40 -9 -45 -13 -6 -5 -15 -9 -19 -9 -5 0 -12 -4 -15 -8 -4
-4 4 -4 18 -1 14 3 55 9 91 12 71 8 94 16 88 34 -3 7 -9 4 -16 -6z"/>
<path d="M3006 2519 c2 -4 -6 -10 -18 -12 -21 -4 -20 -4 3 -6 15 0 29 5 32 12
3 8 -1 14 -9 14 -7 0 -11 -4 -8 -8z"/>
<path d="M8070 2350 c0 -5 4 -10 8 -10 5 0 14 -36 20 -81 7 -44 14 -85 17 -90
11 -16 37 -10 42 11 7 28 49 27 56 -1 7 -27 42 -22 42 6 0 17 -8 20 -60 23
-91 5 -93 22 -3 22 74 0 76 0 82 28 4 15 9 35 12 45 5 15 -4 17 -84 17 -81 0
-90 2 -95 20 -5 20 -37 29 -37 10z m192 -70 c-2 -14 -5 -26 -5 -27 -1 -1 -34
-3 -72 -5 l-70 -3 -3 33 -3 33 78 -3 c77 -3 78 -3 75 -28z"/>
<path d="M6354 2295 c-13 -20 -15 -33 -7 -58 7 -27 14 -32 38 -32 23 0 32 6
39 28 23 64 -35 116 -70 62z m46 -41 c0 -24 -4 -34 -12 -32 -15 5 -22 42 -14
64 10 25 26 5 26 -32z"/>
<path d="M1272 1700 c-12 -5 -27 -21 -32 -35 -6 -15 -10 -119 -10 -232 l0
-206 78 7 c45 3 81 12 87 19 6 7 29 25 52 38 l43 25 -25 34 c-36 49 -45 91
-45 209 0 94 2 107 22 128 l21 23 -84 -1 c-46 0 -94 -4 -107 -9z"/>
<path d="M1583 1673 c6 -21 12 -86 14 -145 3 -74 8 -108 16 -109 7 0 31 -2 54
-4 28 -2 46 2 54 11 31 38 69 1 69 -69 0 -70 7 -78 64 -75 l51 3 2 107 c1 84
-2 106 -12 102 -7 -3 -16 -1 -20 5 -3 6 -15 11 -26 11 -11 0 -17 5 -14 10 8
14 -8 13 -22 -1 -9 -9 -14 -5 -19 15 -3 14 -10 26 -16 26 -5 0 -18 9 -30 19
-19 19 -19 20 -1 15 16 -5 19 -1 18 23 -1 16 -5 35 -9 42 -6 9 -3 17 8 23 36
20 12 28 -88 28 l-104 0 11 -37z"/>
<path d="M2904 1696 c-40 -18 -44 -38 -44 -232 0 -141 1 -154 19 -164 12 -6
22 -6 25 -1 8 13 76 7 111 -10 26 -12 31 -21 35 -64 8 -75 28 -102 103 -144
32 -18 69 -24 198 -33 147 -11 161 -10 177 5 15 16 17 48 20 290 4 308 -1 339
-50 356 -48 17 -554 14 -594 -3z m180 -51 c23 -18 73 -20 78 -4 3 9 10 9 26 0
13 -7 20 -17 16 -24 -4 -7 -4 -9 1 -5 11 11 67 -31 59 -44 -4 -7 -2 -8 4 -4 6
4 28 -4 49 -16 21 -13 47 -28 57 -34 31 -16 43 -41 30 -61 -6 -10 -16 -19 -23
-19 -6 -1 -26 -3 -43 -4 -19 -1 -25 -4 -15 -7 23 -6 22 -40 -2 -55 -18 -11
-18 -12 5 -31 24 -19 32 -59 16 -85 -24 -37 -135 -29 -166 13 -13 18 -12 23
12 48 14 15 34 27 45 27 21 0 57 17 57 28 0 4 -19 6 -42 5 -147 -8 -172 -4
-182 24 -4 10 1 25 14 37 l20 20 -43 16 c-41 16 -42 17 -40 61 7 128 20 150
67 114z"/>
<path d="M3054 1630 c1 -24 23 -41 43 -33 10 4 7 12 -12 29 -32 29 -33 29 -31
4z"/>
<path d="M3210 1596 c0 -3 9 -10 20 -16 11 -6 20 -8 20 -6 0 3 -9 10 -20 16
-11 6 -20 8 -20 6z"/>
<path d="M3181 1296 c-9 -10 -8 -15 3 -19 10 -4 14 0 13 14 -2 23 -1 23 -16 5z"/>
<path d="M3702 1700 c-12 -5 -27 -21 -32 -35 -6 -15 -10 -147 -10 -306 l0
-280 25 -24 24 -25 291 0 291 0 25 25 c27 27 27 51 0 49 -9 -1 -16 2 -16 6 0
5 -13 5 -28 0 -16 -4 -41 -6 -55 -5 -15 2 -27 -1 -27 -6 0 -6 -5 -7 -10 -4 -6
3 -39 7 -74 9 -73 2 -106 22 -106 63 0 28 50 83 76 83 16 0 16 1 1 18 -22 24
-21 50 1 75 17 19 15 19 -138 13 -186 -7 -234 -1 -238 32 -5 34 14 50 77 68
31 9 63 22 71 29 8 6 30 17 48 25 17 7 32 16 32 20 0 4 14 13 30 20 17 7 30
16 30 20 0 20 52 16 82 -6 41 -30 63 -30 104 1 37 28 59 32 50 9 -3 -8 -2 -12
3 -9 11 6 26 -99 16 -114 -3 -6 -1 -11 6 -11 7 0 10 -11 7 -30 -3 -22 -1 -30
11 -30 9 0 28 -7 44 -14 l27 -15 0 153 c0 136 -2 156 -19 177 l-19 24 -289 2
c-160 1 -298 -2 -311 -7z"/>
<path d="M1706 1401 c-3 -5 1 -12 10 -15 20 -8 29 -1 19 13 -8 13 -22 14 -29
2z"/>
<path d="M4128 1363 c7 -3 16 -2 19 1 4 3 -2 6 -13 5 -11 0 -14 -3 -6 -6z"/>
<path d="M1760 1311 c0 -5 -13 -8 -28 -6 -31 3 -92 -21 -92 -37 0 -6 8 -7 18
-3 9 3 37 10 60 15 48 9 71 24 53 34 -6 4 -11 3 -11 -3z"/>
<path d="M4301 1265 c-19 -9 -65 -15 -109 -15 -41 0 -72 -3 -69 -7 4 -3 54 -7
112 -7 102 -1 105 0 105 22 0 12 -1 22 -2 22 -2 -1 -18 -7 -37 -15z"/>
<path d="M1525 1258 c-66 -23 -70 -28 -15 -22 62 7 73 11 65 25 -7 10 -10 10
-50 -3z"/>
<path d="M1728 1233 c7 -3 16 -2 19 1 4 3 -2 6 -13 5 -11 0 -14 -3 -6 -6z"/>
<path d="M1678 1223 c6 -2 18 -2 25 0 6 3 1 5 -13 5 -14 0 -19 -2 -12 -5z"/>
<path d="M1590 1200 c-14 -4 -59 -9 -100 -10 -65 -1 -71 -3 -46 -12 31 -11
147 4 176 22 18 11 5 11 -30 0z"/>
</g>
</svg>
