<?xml version="1.0" standalone="no"?>
<!DOCTYPE svg PUBLIC "-//W3C//DTD SVG 20010904//EN"
 "http://www.w3.org/TR/2001/REC-SVG-20010904/DTD/svg10.dtd">
<svg version="1.0" xmlns="http://www.w3.org/2000/svg"
 width="1280.000000pt" height="800.000000pt" viewBox="0 0 1280.000000 800.000000"
 preserveAspectRatio="xMidYMid meet">

<g transform="translate(0.000000,800.000000) scale(0.100000,-0.100000)"
fill="#000000" stroke="none">
<path d="M2481 7313 c-52 -200 -57 -223 -42 -223 5 0 21 51 35 113 15 61 29
120 32 130 3 9 1 17 -5 17 -6 0 -15 -17 -20 -37z"/>
<path d="M830 7215 l0 -85 45 0 c33 0 45 4 45 15 0 9 -9 15 -25 15 -24 0 -25
2 -25 70 0 63 -2 70 -20 70 -18 0 -20 -7 -20 -85z"/>
<path d="M1660 7236 c0 -62 -14 -94 -26 -62 -8 20 -44 21 -44 2 0 -38 70 -62
98 -34 7 7 12 42 12 85 0 66 -2 73 -20 73 -18 0 -20 -7 -20 -64z"/>
<path d="M2865 7292 c-16 -11 -36 -52 -26 -52 6 0 12 -21 14 -47 l3 -48 2 48
c1 27 7 47 13 47 8 0 8 4 0 13 -8 10 -7 17 1 25 13 13 7 24 -7 14z"/>
<path d="M3993 7220 c0 -41 2 -58 4 -37 2 20 2 54 0 75 -2 20 -4 3 -4 -38z"/>
<path d="M2617 7273 c-4 -3 -7 -17 -7 -29 0 -17 7 -25 25 -30 35 -9 49 -28 30
-44 -12 -10 -18 -10 -30 0 -17 14 -31 8 -20 -9 16 -27 75 -7 75 25 0 18 -9 27
-36 39 -20 8 -34 20 -32 27 6 18 39 23 49 7 4 -7 11 -10 14 -7 4 4 4 11 0 17
-7 12 -58 15 -68 4z"/>
<path d="M2907 7267 c-2 -7 -1 -34 2 -62 5 -39 10 -51 26 -54 19 -3 19 -3 3
16 -21 23 -24 70 -5 75 9 2 8 7 -4 20 -12 11 -19 13 -22 5z"/>
<path d="M3510 7215 l0 -65 33 0 c17 0 37 4 43 8 15 10 34 47 34 66 0 28 -38
56 -75 56 l-35 0 0 -65z m74 39 c24 -23 20 -61 -9 -80 -39 -26 -55 -12 -55 46
0 46 2 50 24 50 14 0 32 -7 40 -16z"/>
<path d="M6795 7258 c-26 -72 -33 -98 -25 -93 5 3 14 24 20 47 11 41 26 42 33
3 1 -11 8 -29 15 -40 12 -19 12 -18 6 5 -10 39 -32 90 -39 90 -3 0 -8 -6 -10
-12z"/>
<path d="M6880 7266 c0 -2 13 -6 29 -8 17 -2 28 -1 25 4 -5 8 -54 12 -54 4z"/>
<path d="M6988 7259 c-36 -20 -13 -99 28 -99 26 0 54 20 54 38 0 13 -3 12 -16
-6 -26 -38 -74 -23 -74 24 0 24 15 39 45 47 l20 5 -20 1 c-11 0 -28 -4 -37
-10z"/>
<path d="M7104 7226 c2 -92 70 -92 72 0 l2 49 -7 -50 c-5 -45 -9 -50 -31 -50
-22 0 -26 5 -31 50 l-7 50 2 -49z"/>
<path d="M7212 7263 c13 -3 18 -18 21 -56 l3 -52 2 52 c2 40 6 53 20 56 9 3
-1 5 -23 5 -22 0 -32 -2 -23 -5z"/>
<path d="M7340 7257 c0 -10 7 -25 15 -33 19 -19 19 -7 0 26 -11 20 -14 21 -15
7z"/>
<path d="M7428 7258 c-2 -7 -1 -33 3 -58 l6 -45 1 58 c2 55 -2 71 -10 45z"/>
<path d="M7493 7263 c9 -2 23 -2 30 0 6 3 -1 5 -18 5 -16 0 -22 -2 -12 -5z"/>
<path d="M8261 7213 c1 -32 3 -49 6 -38 9 35 21 39 34 12 7 -15 16 -27 21 -27
5 0 4 9 -2 20 -7 14 -7 25 1 38 18 29 4 52 -31 52 l-30 0 1 -57z m54 27 c0 -8
-10 -16 -22 -18 -18 -3 -23 2 -23 18 0 16 5 21 23 18 12 -2 22 -10 22 -18z"/>
<path d="M8360 7215 c0 -54 1 -55 28 -54 23 2 24 2 5 6 -14 3 -23 12 -23 23 0
11 9 20 23 23 l22 4 -22 2 c-16 1 -23 7 -23 20 0 12 8 21 23 24 19 4 18 4 -5
6 -27 1 -28 0 -28 -54z"/>
<path d="M8447 7263 c-16 -15 -6 -43 18 -49 16 -4 25 -13 25 -25 0 -22 -20
-25 -39 -6 -11 10 -13 9 -9 -3 6 -20 35 -25 53 -10 23 19 18 36 -15 50 -41 17
-41 45 0 36 19 -3 29 -2 25 4 -7 11 -48 14 -58 3z"/>
<path d="M8532 7229 c-2 -54 15 -75 53 -65 23 6 25 10 23 59 l-2 52 -3 -48
c-7 -79 -58 -74 -66 6 l-4 42 -1 -46z"/>
<path d="M8641 7213 c2 -54 2 -55 8 -18 l6 40 22 -40 21 -40 18 39 19 39 6
-39 c6 -35 6 -34 8 19 0 31 -1 57 -4 57 -2 0 -15 -21 -28 -46 l-23 -46 -18 46
c-10 25 -22 46 -27 46 -5 0 -8 -26 -8 -57z"/>
<path d="M8780 7215 l0 -55 33 1 c30 2 30 2 5 6 -35 5 -39 40 -5 46 l22 4 -22
2 c-35 2 -31 39 5 44 25 4 25 4 -5 6 l-33 1 0 -55z"/>
<path d="M9560 7215 c0 -30 5 -55 10 -55 6 0 10 11 10 25 0 20 5 25 24 25 28
0 42 26 25 46 -6 8 -24 14 -40 14 -28 0 -29 -1 -29 -55z m60 25 c0 -13 -7 -20
-20 -20 -13 0 -20 7 -20 20 0 13 7 20 20 20 13 0 20 -7 20 -20z"/>
<path d="M9661 7213 c1 -43 3 -50 8 -28 l6 29 21 -27 c26 -32 39 -36 24 -6 -8
15 -8 24 0 34 20 24 2 55 -31 55 -29 0 -29 0 -28 -57z m49 27 c0 -13 -7 -20
-20 -20 -13 0 -20 7 -20 20 0 13 7 20 20 20 13 0 20 -7 20 -20z"/>
<path d="M9762 7258 c-17 -17 -15 -64 4 -82 33 -33 94 -7 94 41 0 42 -68 71
-98 41z m64 -6 c21 -14 23 -41 5 -63 -33 -41 -87 3 -61 51 11 20 36 26 56 12z"/>
<path d="M9922 7229 c-2 -52 -9 -64 -29 -48 -9 9 -13 8 -13 0 0 -16 29 -26 41
-14 6 6 8 32 6 59 l-3 49 -2 -46z"/>
<path d="M9970 7215 c0 -54 1 -55 28 -54 23 2 24 2 5 6 -14 3 -23 12 -23 23 0
11 9 20 23 23 l22 4 -22 2 c-16 1 -23 7 -23 20 0 12 8 21 23 24 19 4 18 4 -5
6 -27 1 -28 0 -28 -54z"/>
<path d="M10056 7254 c-44 -44 8 -111 68 -88 9 3 16 10 16 15 0 6 -9 5 -20 -1
-26 -14 -57 -4 -65 20 -14 44 41 80 73 48 8 -8 12 -8 12 -1 0 25 -61 31 -84 7z"/>
<path d="M10173 7263 c13 -3 17 -15 17 -54 0 -27 5 -49 10 -49 6 0 10 22 10
49 0 39 4 51 18 54 9 3 -3 5 -28 5 -25 0 -37 -2 -27 -5z"/>
<path d="M10256 7254 c-8 -21 0 -33 30 -44 13 -5 24 -16 24 -25 0 -17 -25 -21
-35 -5 -3 6 -11 10 -17 10 -7 0 -6 -6 2 -15 16 -19 44 -19 60 0 15 17 6 33
-26 45 -34 13 -33 44 2 36 17 -5 23 -3 19 4 -10 16 -52 12 -59 -6z"/>
<path d="M11066 7254 c-44 -44 8 -111 68 -88 9 3 16 10 16 15 0 6 -9 5 -20 -1
-43 -23 -83 17 -60 60 12 22 49 27 68 8 8 -8 12 -8 12 -1 0 25 -61 31 -84 7z"/>
<path d="M11185 7250 c-15 -16 -17 -26 -9 -47 13 -37 37 -49 71 -37 22 7 29
17 31 42 2 18 -2 40 -9 48 -17 20 -63 17 -84 -6z m75 -4 c28 -35 -11 -93 -47
-70 -36 22 -23 84 17 84 10 0 23 -7 30 -14z"/>
<path d="M11300 7216 c0 -63 19 -78 22 -16 0 22 1 45 2 52 1 6 -5 13 -11 16
-10 3 -13 -12 -13 -52z"/>
<path d="M11380 7228 l-1 -43 -24 30 c-14 17 -25 27 -25 22 0 -12 44 -77 53
-77 4 0 7 25 7 55 0 30 -2 55 -5 55 -3 0 -5 -19 -5 -42z"/>
<path d="M11422 7263 c13 -3 18 -18 21 -56 l3 -52 2 52 c2 40 6 53 20 56 9 3
-1 5 -23 5 -22 0 -32 -2 -23 -5z"/>
<path d="M11517 7219 c-10 -28 -16 -53 -13 -56 3 -3 8 2 12 11 8 21 32 20 57
-1 19 -17 19 -17 12 7 -14 48 -34 90 -42 90 -5 0 -16 -23 -26 -51z m42 -11 c1
-5 -6 -8 -14 -8 -16 0 -19 9 -8 36 6 16 7 16 14 -2 4 -10 8 -22 8 -26z"/>
<path d="M11622 7258 c-20 -20 -15 -76 7 -88 28 -14 57 -12 71 5 15 18 7 19
-20 3 -28 -18 -55 1 -55 37 0 36 27 55 55 37 27 -16 35 -15 20 3 -15 18 -61
20 -78 3z"/>
<path d="M11742 7263 c13 -3 18 -18 21 -56 l3 -52 2 52 c2 40 6 53 20 56 9 3
-1 5 -23 5 -22 0 -32 -2 -23 -5z"/>
<path d="M940 7211 c0 -64 16 -80 80 -79 l50 0 0 64 c0 57 -2 64 -20 64 -17 0
-20 -7 -20 -44 0 -25 -5 -48 -10 -51 -20 -12 -40 17 -40 56 0 32 -3 39 -20 39
-17 0 -20 -7 -20 -49z"/>
<path d="M1116 7244 c-22 -21 -20 -77 2 -97 26 -24 68 -21 95 6 l22 22 -23 3
c-13 2 -30 -2 -38 -9 -20 -16 -37 1 -32 32 3 22 7 24 48 21 l45 -4 -19 21
c-23 25 -77 28 -100 5z"/>
<path d="M1255 7237 c-8 -12 -15 -31 -15 -42 0 -11 7 -30 15 -42 13 -18 25
-22 70 -22 l55 1 0 63 0 63 -55 1 c-45 0 -57 -4 -70 -22z m83 -36 c3 -21 -11
-40 -30 -41 -4 0 -12 9 -18 21 -9 15 -8 24 1 35 17 21 43 13 47 -15z"/>
<path d="M1420 7245 c-17 -21 -5 -45 30 -58 41 -16 38 -29 -5 -21 -39 7 -48
-8 -16 -26 26 -14 64 -13 79 2 23 23 13 48 -23 64 -20 8 -33 19 -29 25 4 8 10
7 17 0 13 -13 47 -15 47 -3 0 31 -77 44 -100 17z"/>
<path d="M1746 7244 c-22 -21 -20 -77 2 -97 21 -19 54 -22 83 -7 31 17 22 31
-17 28 -23 -2 -39 2 -41 10 -3 8 9 12 41 12 38 0 46 3 46 18 0 45 -80 70 -114
36z m69 -24 c4 -6 -5 -10 -19 -10 -14 0 -26 5 -26 10 0 6 9 10 19 10 11 0 23
-4 26 -10z"/>
<path d="M1890 7245 c-17 -21 -5 -45 30 -58 41 -16 38 -29 -5 -21 -39 7 -48
-8 -16 -26 26 -14 64 -13 79 2 23 23 13 48 -23 64 -20 8 -33 19 -29 25 4 8 10
7 17 0 13 -13 47 -15 47 -3 0 31 -77 44 -100 17z"/>
<path d="M2020 7206 c0 -31 5 -58 13 -64 6 -5 36 -10 65 -10 l52 0 0 64 c0 57
-2 64 -20 64 -17 0 -20 -7 -20 -44 0 -31 -5 -46 -16 -50 -26 -10 -34 2 -34 50
0 37 -3 44 -20 44 -18 0 -20 -7 -20 -54z"/>
<path d="M2184 7246 c-11 -29 1 -50 34 -60 47 -13 39 -27 -10 -20 l-43 7 19
-22 c22 -25 77 -29 96 -6 18 22 2 55 -31 62 -34 7 -45 19 -24 27 8 3 17 1 20
-4 4 -6 15 -10 26 -10 17 0 18 3 9 20 -13 25 -87 29 -96 6z"/>
<path d="M2742 7253 c-7 -3 -18 -16 -23 -30 -20 -53 45 -97 85 -57 42 41 -7
109 -62 87z m56 -44 c4 -34 -20 -54 -47 -39 -37 19 -23 73 18 68 20 -2 27 -9
29 -29z"/>
<path d="M3148 7249 c-22 -12 -24 -71 -4 -88 7 -6 30 -10 50 -9 36 3 36 3 36
51 0 31 -4 47 -12 47 -7 0 -22 2 -33 5 -11 3 -28 0 -37 -6z m60 -25 c5 -9 7
-25 5 -35 -10 -35 -57 -34 -68 2 -13 40 43 68 63 33z"/>
<path d="M3283 7252 c-20 -3 -23 -9 -23 -53 0 -27 5 -49 10 -49 6 0 10 18 10
40 0 27 5 42 17 49 22 12 15 18 -14 13z"/>
<path d="M3352 7244 c-24 -16 -28 -44 -12 -75 13 -23 62 -26 80 -4 14 17 7 19
-20 5 -22 -12 -50 -3 -50 16 0 10 12 14 40 14 28 0 40 4 40 14 0 13 -36 46
-50 46 -3 0 -16 -7 -28 -16z m56 -21 c2 -9 -7 -13 -27 -13 -30 0 -39 9 -24 24
11 10 46 3 51 -11z"/>
<path d="M3650 7240 c-24 -24 -25 -38 -4 -68 17 -25 56 -29 74 -7 15 18 7 19
-19 3 -15 -9 -23 -9 -35 1 -22 19 -10 31 30 31 27 0 34 4 34 20 0 18 -26 40
-49 40 -6 0 -20 -9 -31 -20z m64 -15 c4 -12 -3 -15 -29 -15 -33 0 -43 8 -28
23 12 13 51 7 57 -8z"/>
<path d="M3882 7244 c-41 -29 -19 -94 32 -94 13 0 29 7 36 15 15 18 7 19 -21
4 -15 -7 -24 -7 -35 2 -24 20 -16 29 26 29 33 0 40 3 40 20 0 18 -26 40 -47
40 -5 0 -19 -7 -31 -16z m58 -19 c11 -13 7 -15 -24 -15 -34 0 -44 8 -29 23 11
12 40 8 53 -8z"/>
<path d="M4060 7253 c-21 -8 -30 -24 -30 -53 0 -32 17 -50 46 -50 51 0 73 66
32 94 -24 17 -25 17 -48 9z m50 -32 c7 -14 5 -24 -8 -41 -20 -24 -48 -19 -57
11 -14 42 44 68 65 30z"/>
<path d="M4190 7251 c-8 -6 -18 -7 -22 -5 -4 3 -7 -30 -6 -73 0 -43 3 -64 5
-46 4 30 6 32 35 26 23 -5 34 -2 45 12 20 28 16 62 -9 79 -26 18 -28 19 -48 7z
m48 -42 c6 -48 -49 -63 -63 -18 -9 26 13 51 39 47 14 -2 22 -12 24 -29z"/>
<path d="M4302 7244 c-24 -16 -28 -44 -12 -75 13 -23 62 -26 80 -4 14 17 7 19
-20 5 -22 -12 -50 -3 -50 16 0 10 12 14 40 14 28 0 40 4 40 14 0 13 -36 46
-50 46 -3 0 -16 -7 -28 -16z m56 -21 c2 -9 -7 -13 -27 -13 -30 0 -39 9 -24 24
11 10 46 3 51 -11z"/>
<path d="M4428 7253 c-15 -4 -18 -15 -17 -56 1 -29 3 -41 6 -27 9 56 14 70 28
70 8 0 15 5 15 10 0 10 -3 11 -32 3z"/>
<path d="M7057 7239 c4 -13 8 -18 11 -10 2 7 -1 18 -6 23 -8 8 -9 4 -5 -13z"/>
<path d="M2970 7245 c0 -26 25 -95 33 -92 6 2 16 19 23 38 l12 34 11 -28 c6
-16 11 -33 11 -38 0 -19 21 -8 30 16 19 49 24 78 12 71 -6 -4 -14 -23 -18 -44
l-7 -37 -15 43 c-17 51 -31 50 -47 -4 l-12 -39 -8 38 c-4 20 -11 40 -16 43 -5
3 -9 2 -9 -1z"/>
<path d="M3769 7203 c10 -26 23 -49 28 -50 6 -2 20 19 31 47 14 33 17 50 9 47
-6 -2 -16 -18 -21 -35 -12 -41 -22 -40 -36 3 -6 19 -16 35 -21 35 -5 0 0 -21
10 -47z"/>
<path d="M6924 7227 c-8 -9 -7 -15 4 -23 21 -15 5 -37 -24 -31 -13 2 -24 0
-24 -4 0 -15 47 -10 60 6 10 11 10 19 2 27 -6 6 -8 17 -5 24 6 17 2 17 -13 1z"/>
<path d="M7397 7198 c-10 -17 -16 -33 -13 -35 2 -3 12 9 21 27 21 41 15 48 -8
8z"/>
<path d="M7480 7219 c0 -5 9 -9 20 -9 11 0 20 2 20 4 0 2 -9 6 -20 9 -11 3
-20 1 -20 -4z"/>
<path d="M7480 7169 c0 -5 11 -9 25 -9 14 0 25 2 25 4 0 2 -11 6 -25 8 -14 3
-25 1 -25 -3z"/>
<path d="M4315 5806 c-39 -9 -51 -17 -53 -34 -2 -12 -8 -22 -13 -22 -5 0 -8
-6 -6 -12 1 -7 -8 -14 -20 -16 -26 -4 -26 -3 -14 -35 10 -25 6 -34 -20 -55
-14 -10 -18 -10 -23 3 -4 11 -2 14 7 9 6 -4 4 2 -5 13 -10 11 -19 32 -20 46
-3 35 -17 34 -70 -6 -42 -33 -43 -34 -45 -98 -1 -35 5 -95 13 -134 8 -38 14
-82 14 -97 0 -65 24 -71 145 -37 39 11 82 21 97 23 15 1 34 9 43 16 25 21 49
119 49 210 1 77 3 85 20 85 11 0 21 7 24 15 7 22 44 60 59 60 7 0 13 12 14 28
l0 27 12 -25 c15 -35 17 -36 27 -20 5 8 25 15 45 15 30 1 39 -3 47 -21 10 -22
31 -35 52 -33 5 0 12 -3 15 -8 8 -12 61 -45 61 -38 0 3 -7 21 -15 41 -14 35
-15 37 -15 54 0 28 -149 67 -193 51 -17 -7 -27 -7 -27 -1 0 14 -143 10 -205
-4z"/>
<path d="M4761 5744 c0 -11 3 -14 6 -6 3 7 2 16 -1 19 -3 4 -6 -2 -5 -13z"/>
<path d="M4430 5642 c0 -5 9 -17 21 -28 21 -19 21 -19 8 9 -12 26 -29 37 -29
19z"/>
<path d="M4772 5622 c-1 -18 -12 -56 -24 -84 -16 -38 -23 -46 -30 -34 -5 8
-25 18 -46 22 -20 3 -46 15 -57 25 -57 52 -127 40 -139 -24 -4 -19 -4 -42 0
-51 3 -9 1 -16 -5 -16 -17 0 -34 -41 -33 -78 1 -28 -1 -32 -13 -22 -12 10 -14
5 -14 -27 1 -73 -9 -90 -41 -73 -22 12 -22 11 -15 -32 9 -57 23 -104 47 -151
16 -32 22 -36 34 -27 8 7 14 21 14 31 0 13 8 19 23 20 17 1 18 2 4 6 -10 3
-24 -1 -32 -7 -12 -10 -16 -9 -21 5 -5 11 -1 21 10 27 14 8 15 20 10 90 -8 97
0 108 82 108 78 0 84 -5 84 -60 0 -33 5 -50 15 -54 8 -3 24 -26 36 -51 26 -55
34 -61 37 -27 1 14 8 29 14 33 9 6 8 13 -5 27 -9 10 -17 22 -17 27 0 4 -10 22
-23 39 -23 30 -40 66 -32 66 2 0 19 -9 38 -20 34 -20 128 -52 135 -46 2 3 -4
73 -31 356 l-4 35 -1 -33z m-266 -80 c-9 -15 22 -42 52 -44 55 -4 31 -28 -28
-28 -38 0 -56 23 -42 55 7 14 14 25 17 25 4 0 4 -3 1 -8z m104 -107 c0 -33 -1
-34 -26 -24 -45 16 -47 21 -17 39 39 26 43 25 43 -15z m135 25 c3 -5 1 -10 -4
-10 -6 0 -11 5 -11 10 0 6 2 10 4 10 3 0 8 -4 11 -10z m-79 -20 c13 0 24 5 24
10 0 6 4 10 9 10 6 0 6 -12 0 -30 -6 -16 -15 -30 -21 -30 -23 0 -48 22 -47 43
0 12 3 16 6 10 2 -7 16 -13 29 -13z"/>
<path d="M4405 5600 c-3 -5 -3 -15 1 -21 6 -11 23 6 24 24 0 10 -18 9 -25 -3z"/>
<path d="M4823 5435 c0 -22 2 -30 4 -17 2 12 2 30 0 40 -3 9 -5 -1 -4 -23z"/>
<path d="M4833 5300 c0 -36 2 -50 4 -32 2 17 2 47 0 65 -2 17 -4 3 -4 -33z"/>
<path d="M4310 5291 c0 -5 5 -13 10 -16 6 -3 10 -2 10 4 0 5 -4 13 -10 16 -5
3 -10 2 -10 -4z"/>
<path d="M4580 5289 c0 -5 5 -7 10 -4 6 3 10 8 10 11 0 2 -4 4 -10 4 -5 0 -10
-5 -10 -11z"/>
<path d="M4313 5252 c24 -26 21 -41 -8 -48 -21 -5 -23 -9 -14 -20 9 -11 8 -19
-6 -34 -10 -11 -15 -26 -12 -35 10 -23 0 -18 -49 27 l-46 42 22 -37 c12 -20
26 -37 31 -37 19 0 8 -20 -15 -26 -27 -6 -65 23 -58 44 2 7 -3 15 -12 18 -9 3
-16 15 -16 25 0 10 -5 19 -11 19 -6 0 -8 -9 -4 -20 3 -11 2 -20 -3 -20 -5 0
-12 14 -15 30 -4 17 -12 30 -18 30 -6 0 -9 -7 -5 -15 3 -8 1 -15 -4 -15 -6 0
-11 12 -11 28 -1 20 -2 22 -6 7 -3 -11 -10 -24 -16 -30 -7 -5 -12 -25 -12 -42
0 -33 0 -33 47 -33 26 0 50 5 54 12 4 7 3 8 -4 4 -7 -4 -12 -2 -12 4 0 17 25
6 25 -11 0 -8 4 -19 7 -25 10 -16 -1 -24 -34 -24 -17 0 -27 -4 -23 -10 3 -5
19 -10 36 -10 19 0 29 -5 29 -15 0 -11 -11 -15 -42 -15 -30 0 -65 -11 -113
-36 -45 -24 -85 -37 -112 -38 -51 -1 -58 -22 -33 -89 18 -47 103 -181 122
-193 19 -12 64 54 103 151 6 13 13 -28 20 -117 7 -76 18 -144 24 -152 16 -19
115 -62 186 -81 72 -18 135 -19 285 -1 118 14 174 31 163 49 -4 6 -1 7 7 2 22
-13 100 35 100 62 0 24 16 31 22 11 3 -8 30 12 66 46 49 46 62 65 62 89 0 24
-2 27 -14 18 -17 -14 -72 17 -146 82 -25 22 -54 44 -66 49 -11 5 -25 23 -31
39 -8 19 -18 29 -32 29 -12 0 -21 6 -21 14 0 21 -62 66 -91 67 -13 0 -33 4
-44 9 l-20 9 20 1 c11 0 31 7 45 15 26 14 27 13 -25 30 -8 2 -15 0 -15 -5 0
-5 -12 -7 -27 -4 -16 3 -39 1 -53 -4 l-25 -10 24 -9 c17 -7 21 -12 12 -17 -9
-6 -9 -11 -1 -21 8 -10 6 -15 -9 -20 -12 -3 -25 -3 -31 0 -5 3 -10 1 -10 -4 0
-6 -5 -11 -12 -11 -6 0 -3 9 7 20 18 19 17 20 -3 20 -37 0 -82 90 -107 211 -2
15 -12 30 -22 33 -16 6 -16 6 0 -12z m-86 -208 c-9 -9 -28 6 -21 18 4 6 10 6
17 -1 6 -6 8 -13 4 -17z m-96 -54 c11 0 19 -4 19 -9 0 -13 -53 -21 -94 -14
-33 5 -35 7 -19 19 11 8 30 12 47 9 16 -3 37 -5 47 -5z m57 -53 c29 -7 52 -17
50 -22 -2 -6 -10 -8 -18 -7 -8 2 -41 9 -72 15 -32 6 -58 14 -58 19 0 11 36 9
98 -5z m552 -31 c0 -11 -19 -15 -25 -6 -3 5 1 10 9 10 9 0 16 -2 16 -4z m-29
-328 c11 -21 11 -22 -4 -9 -10 7 -17 17 -17 22 0 15 9 10 21 -13z"/>
<path d="M3870 5225 c0 -8 4 -15 10 -15 5 0 7 7 4 15 -4 8 -8 15 -10 15 -2 0
-4 -7 -4 -15z"/>
<path d="M4520 5225 c0 -16 16 -20 24 -6 3 5 -1 11 -9 15 -9 3 -15 0 -15 -9z"/>
<path d="M3956 5194 c-9 -24 -7 -31 7 -31 9 0 12 9 9 24 -5 27 -8 28 -16 7z"/>
<path d="M4520 5169 c-34 -19 -34 -19 -8 -19 15 0 47 -10 72 -21 25 -13 51
-19 61 -15 16 6 15 9 -8 32 -38 38 -75 45 -117 23z m84 -14 c7 -19 -14 -19
-40 0 -18 14 -18 14 7 15 15 0 29 -7 33 -15z"/>
<path d="M4737 5161 c-3 -12 -2 -23 3 -26 12 -7 22 27 12 37 -6 6 -12 1 -15
-11z"/>
<path d="M4767 5146 c-10 -15 -23 -23 -32 -20 -25 10 -29 -40 -7 -88 20 -43
188 -228 178 -195 -3 9 0 17 7 17 7 1 -1 11 -17 24 -16 13 -23 25 -17 27 7 3
13 11 14 19 2 8 6 22 11 30 7 12 6 13 -5 3 -17 -17 -37 -17 -21 -1 16 16 15
36 -3 55 -11 10 -13 19 -6 27 11 13 11 56 0 56 -4 0 -16 -8 -25 -17 -17 -17
-17 -17 -10 2 15 36 19 75 7 75 -6 0 -11 -7 -11 -16 0 -8 -4 -12 -10 -9 -5 3
-10 -1 -10 -10 0 -9 -5 -13 -10 -10 -6 4 -8 11 -5 16 4 5 2 16 -3 25 -7 13
-11 12 -25 -10z m-26 -99 c-8 -8 -11 -7 -11 4 0 20 13 34 18 19 3 -7 -1 -17
-7 -23z"/>
<path d="M3980 5114 c0 -8 5 -12 10 -9 6 4 8 11 5 16 -9 14 -15 11 -15 -7z"/>
<path d="M4650 5056 c0 -2 7 -7 16 -10 8 -3 12 -2 9 4 -6 10 -25 14 -25 6z"/>
<path d="M5016 4963 c-11 -11 -6 -23 9 -23 8 0 15 4 15 9 0 13 -16 22 -24 14z"/>
<path d="M8000 4735 l0 -235 55 0 55 0 0 235 0 235 -55 0 -55 0 0 -235z"/>
<path d="M8190 4735 l0 -235 55 0 55 0 0 235 0 235 -55 0 -55 0 0 -235z"/>
<path d="M7140 4725 l0 -225 50 0 49 0 3 93 3 92 85 0 85 0 3 -92 3 -93 49 0
50 0 0 225 0 225 -50 0 -49 0 -3 -87 -3 -88 -85 0 -85 0 -3 88 -3 87 -49 0
-50 0 0 -225z"/>
<path d="M7690 4849 c-64 -27 -103 -90 -104 -169 -1 -113 65 -180 179 -180 70
0 114 22 145 72 11 18 20 36 20 41 0 4 -23 7 -51 7 -36 0 -58 -6 -76 -20 -14
-11 -34 -20 -45 -20 -20 0 -68 42 -68 60 0 6 45 10 125 10 l125 0 0 40 c0 52
-31 112 -72 141 -36 26 -135 36 -178 18z m123 -97 c35 -31 21 -42 -53 -42 -38
0 -70 3 -70 6 0 16 24 46 43 54 26 10 55 4 80 -18z"/>
<path d="M8446 4837 c-92 -52 -118 -159 -64 -258 28 -51 82 -79 153 -79 70 0
117 21 153 68 38 50 43 150 10 207 -46 80 -169 110 -252 62z m139 -92 c50 -49
21 -155 -42 -155 -38 0 -60 17 -73 54 -14 44 -4 81 27 106 34 27 59 25 88 -5z"/>
<path d="M4020 4086 l0 -116 65 0 c58 0 65 2 65 20 0 16 -7 20 -35 20 l-34 0
-3 93 -3 92 -27 3 -28 3 0 -115z"/>
<path d="M4170 4081 c0 -96 13 -109 109 -109 l71 0 0 90 0 89 -27 -3 c-27 -3
-28 -6 -31 -65 -3 -62 -3 -63 -32 -63 -29 0 -29 1 -32 63 -3 59 -4 62 -30 65
l-28 3 0 -70z"/>
<path d="M4405 4125 c-19 -18 -25 -35 -25 -65 0 -55 34 -90 88 -90 39 0 82 31
82 58 0 15 -46 16 -55 2 -3 -5 -17 -10 -31 -10 -21 0 -24 5 -24 35 0 40 21 55
51 37 26 -16 59 -15 59 2 0 24 -50 56 -87 56 -23 0 -42 -8 -58 -25z"/>
<path d="M4608 4139 c-24 -14 -41 -65 -34 -104 9 -48 37 -63 119 -63 l67 -1 0
88 0 88 -68 1 c-37 0 -75 -4 -84 -9z m87 -79 c0 -32 -2 -35 -30 -35 -24 0 -31
5 -33 23 -6 38 5 54 35 50 25 -3 28 -7 28 -38z"/>
<path d="M4824 4142 c-6 -4 -16 -17 -22 -28 -15 -28 4 -54 49 -69 18 -6 35
-17 37 -23 4 -14 -34 -16 -43 -2 -3 6 -17 10 -31 10 -29 0 -31 -13 -4 -40 13
-13 33 -20 60 -20 38 0 80 26 80 48 0 19 -30 47 -61 57 -18 6 -35 17 -37 23
-5 15 24 16 33 2 10 -16 55 -12 55 4 0 33 -83 60 -116 38z"/>
<path d="M4107 3803 c-4 -3 -7 -44 -7 -90 0 -68 -3 -83 -15 -83 -9 0 -18 7
-21 15 -9 23 -54 19 -54 -5 0 -32 36 -60 75 -60 61 0 75 25 75 135 0 93 -1 95
-23 95 -13 0 -27 -3 -30 -7z"/>
<path d="M4223 3736 c-22 -19 -28 -32 -28 -64 0 -86 93 -125 153 -64 l27 27
-24 3 c-13 2 -35 -2 -48 -9 -20 -11 -26 -10 -40 4 -16 16 -13 17 45 17 l62 0
0 30 c0 71 -90 105 -147 56z m87 -31 c11 -13 7 -15 -25 -15 -32 0 -36 2 -25
15 7 8 18 15 25 15 7 0 18 -7 25 -15z"/>
<path d="M4417 3742 c-20 -22 -22 -56 -4 -69 6 -6 25 -15 41 -20 35 -11 46
-33 18 -33 -11 0 -22 5 -24 11 -2 6 -16 9 -32 7 l-28 -3 22 -28 c19 -25 28
-28 68 -25 38 2 49 8 62 30 13 25 13 29 -3 45 -10 10 -32 23 -49 29 -37 12
-49 34 -20 34 11 0 22 -5 24 -11 2 -6 16 -9 32 -7 l28 3 -22 28 c-26 33 -87
38 -113 9z"/>
<path d="M4580 3691 c0 -96 13 -109 109 -109 l71 0 0 90 0 89 -27 -3 c-27 -3
-28 -6 -31 -65 -3 -62 -3 -63 -32 -63 -29 0 -29 1 -32 63 -3 59 -4 62 -30 65
l-28 3 0 -70z"/>
<path d="M4810 3740 c-35 -35 -23 -65 36 -85 21 -7 40 -18 42 -24 5 -14 -35
-15 -43 -1 -10 16 -55 12 -55 -4 0 -40 102 -62 134 -30 20 19 21 58 3 73 -8 6
-28 14 -45 17 -18 4 -32 13 -32 20 0 16 26 19 35 4 3 -5 17 -10 31 -10 29 0
31 13 4 40 -12 12 -33 20 -55 20 -22 0 -43 -8 -55 -20z"/>
<path d="M7120 3722 c-19 -15 -21 -22 -12 -39 6 -11 23 -24 37 -27 25 -6 33
-20 16 -31 -5 -3 -12 -1 -16 5 -10 17 -45 12 -39 -5 8 -19 45 -29 74 -20 31
10 23 56 -12 73 -37 17 -36 33 2 26 34 -7 41 9 11 26 -27 14 -35 13 -61 -8z"/>
<path d="M7400 3670 c0 -56 3 -70 15 -70 12 0 15 14 15 70 0 56 -3 70 -15 70
-12 0 -15 -14 -15 -70z"/>
<path d="M8523 3730 c-35 -14 -29 -47 12 -71 19 -12 35 -23 35 -26 0 -3 -16
-2 -35 1 -19 4 -35 3 -35 -2 0 -16 24 -32 50 -32 58 0 69 53 15 76 -43 17 -37
36 8 28 l32 -5 -24 20 c-26 23 -27 23 -58 11z"/>
<path d="M8790 3670 c0 -56 3 -70 15 -70 12 0 15 14 15 70 0 56 -3 70 -15 70
-12 0 -15 -14 -15 -70z"/>
<path d="M9970 3695 c0 -33 4 -45 15 -45 11 0 15 12 15 45 0 33 -4 45 -15 45
-11 0 -15 -12 -15 -45z"/>
<path d="M9210 3665 c0 -51 3 -65 15 -65 10 0 15 10 15 33 l1 32 14 -32 c18
-41 41 -42 50 -3 10 43 25 47 25 6 0 -25 4 -36 15 -36 12 0 15 14 15 65 0 61
-1 65 -23 65 -18 0 -26 -10 -39 -42 l-16 -43 -19 42 c-11 27 -25 43 -35 43
-15 0 -18 -10 -18 -65z"/>
<path d="M7255 3690 c-17 -19 -19 -43 -5 -70 8 -15 21 -19 55 -18 l45 1 0 52
0 52 -40 0 c-24 0 -45 -6 -55 -17z m63 -33 c4 -20 -25 -34 -39 -20 -14 14 1
45 20 41 9 -2 17 -11 19 -21z"/>
<path d="M7473 3683 c11 -57 26 -83 47 -83 21 0 36 26 47 83 8 39 -23 37 -32
-3 -4 -16 -10 -30 -15 -30 -5 0 -11 14 -15 30 -9 40 -40 42 -32 3z"/>
<path d="M7628 3699 c-21 -12 -24 -69 -6 -87 17 -17 63 -15 78 3 11 13 7 15
-24 15 -20 0 -36 5 -36 10 0 6 16 10 35 10 39 0 46 17 19 44 -18 18 -41 20
-66 5z m47 -29 c-3 -5 -13 -10 -21 -10 -8 0 -14 5 -14 10 0 6 9 10 21 10 11 0
17 -4 14 -10z"/>
<path d="M7810 3654 c0 -41 4 -54 15 -54 10 0 15 10 15 31 0 22 5 32 20 36 11
3 20 13 20 22 0 13 -9 17 -35 18 l-35 1 0 -54z"/>
<path d="M7924 3693 c-17 -18 -18 -67 -1 -81 7 -6 32 -11 55 -10 l42 0 0 53 0
52 -41 0 c-22 0 -47 -6 -55 -14z m64 -36 c4 -20 -25 -34 -40 -19 -15 15 -1 44
19 40 10 -2 19 -11 21 -21z"/>
<path d="M8070 3629 c0 -64 3 -79 15 -79 10 0 15 10 15 29 0 24 3 28 24 24 18
-4 29 2 42 22 16 25 16 30 3 54 -12 21 -23 26 -57 28 l-42 2 0 -80z m72 39 c8
-21 -2 -38 -23 -38 -19 0 -27 29 -12 43 11 11 31 8 35 -5z"/>
<path d="M8224 3693 c-17 -18 -18 -67 -1 -81 7 -6 32 -11 55 -10 l42 0 0 53 0
52 -41 0 c-22 0 -47 -6 -55 -14z m64 -36 c4 -20 -25 -34 -40 -19 -15 15 -1 44
19 40 10 -2 19 -11 21 -21z"/>
<path d="M8643 3683 c-15 -23 -15 -28 -2 -52 12 -21 23 -26 57 -28 l42 -2 0
53 0 54 -40 0 c-33 1 -44 -4 -57 -25z m65 -31 c3 -17 -2 -22 -17 -22 -14 0
-21 6 -21 18 0 38 33 41 38 4z"/>
<path d="M8860 3704 c0 -4 8 -28 17 -55 25 -68 52 -68 76 2 10 28 16 53 13 56
-12 13 -34 -8 -40 -39 -8 -34 -12 -31 -30 25 -5 15 -36 25 -36 11z"/>
<path d="M9017 3692 c-10 -10 -17 -28 -17 -40 0 -45 63 -70 91 -36 12 14 10
16 -16 12 -16 -2 -30 2 -32 10 -3 8 7 12 31 12 40 0 43 5 20 38 -18 27 -55 29
-77 4z m53 -22 c0 -5 -7 -10 -15 -10 -8 0 -15 5 -15 10 0 6 7 10 15 10 8 0 15
-4 15 -10z"/>
<path d="M9416 3698 c-19 -11 -22 -71 -3 -86 6 -5 31 -10 55 -9 l42 0 0 52 0
52 -39 0 c-21 0 -46 -4 -55 -9z m57 -30 c6 -19 -3 -38 -18 -38 -18 0 -28 17
-21 35 7 18 33 20 39 3z"/>
<path d="M9562 3698 c-20 -20 -14 -38 18 -52 34 -14 29 -29 -6 -20 -14 4 -24
2 -24 -5 0 -15 50 -26 69 -14 29 18 24 41 -11 58 l-33 15 33 -6 c36 -6 39 -3
16 20 -18 19 -45 21 -62 4z"/>
<path d="M9693 3703 c-22 -8 -14 -43 12 -55 14 -6 25 -15 25 -20 0 -5 -11 -6
-25 -2 -15 4 -25 2 -25 -5 0 -15 50 -26 69 -14 23 14 20 36 -7 49 -35 17 -40
27 -9 20 20 -5 27 -3 27 8 0 21 -37 32 -67 19z"/>
<path d="M9815 3690 c-17 -19 -19 -43 -5 -70 8 -15 21 -19 55 -18 l45 1 0 52
0 52 -40 0 c-24 0 -45 -6 -55 -17z m63 -33 c4 -20 -25 -34 -39 -20 -14 14 1
45 20 41 9 -2 17 -11 19 -21z"/>
<path d="M8365 3609 c-4 -11 -4 -23 -2 -26 9 -8 24 5 30 27 7 27 -20 27 -28
-1z"/>
<path d="M9967 3624 c-9 -10 2 -24 19 -24 8 0 14 7 14 15 0 15 -21 21 -33 9z"/>
<path d="M3870 3250 c0 -7 210 -10 610 -10 400 0 610 3 610 10 0 7 -210 10
-610 10 -400 0 -610 -3 -610 -10z"/>
<path d="M3772 3013 c-11 -22 -3 -103 9 -103 8 0 14 47 11 90 0 8 5 18 11 22
8 5 6 8 -5 8 -10 0 -21 -8 -26 -17z"/>
<path d="M4940 2970 c0 -33 4 -60 10 -60 6 0 10 27 10 60 0 33 -4 60 -10 60
-6 0 -10 -27 -10 -60z"/>
<path d="M3537 3014 c-17 -17 -5 -43 23 -53 17 -5 30 -15 30 -21 0 -17 -31
-24 -40 -9 -5 7 -12 10 -15 7 -12 -12 6 -28 30 -28 29 0 51 33 32 47 -6 6 -20
13 -29 16 -21 7 -24 37 -5 37 7 0 19 -6 26 -12 11 -11 13 -10 9 2 -5 16 -49
26 -61 14z"/>
<path d="M3840 2981 c0 -51 8 -71 29 -70 10 0 11 2 4 6 -17 6 -17 60 -1 65 9
3 8 9 -4 21 -24 25 -28 21 -28 -22z"/>
<path d="M4460 2964 l0 -55 37 3 c28 2 41 10 52 29 13 24 13 29 -2 53 -13 20
-26 26 -52 26 l-35 0 0 -56z m68 34 c27 -27 7 -78 -30 -78 -15 0 -18 8 -18 45
0 37 3 45 18 45 10 0 23 -5 30 -12z"/>
<path d="M3656 2984 c-19 -18 -20 -28 -6 -55 20 -37 80 -18 80 26 0 42 -44 59
-74 29z m52 -33 c-4 -35 -41 -37 -46 -2 -4 26 13 42 35 34 8 -3 13 -16 11 -32z"/>
<path d="M3915 2979 c14 -45 25 -69 30 -69 3 0 11 15 18 33 l14 32 7 -32 c4
-18 11 -33 16 -33 10 0 30 56 29 79 -1 9 -7 -2 -13 -24 l-13 -40 -12 38 c-14
42 -21 41 -37 -6 l-11 -32 -7 32 c-4 18 -12 36 -18 39 -7 4 -8 -2 -3 -17z"/>
<path d="M4082 2988 c-16 -16 -15 -53 1 -66 7 -6 27 -10 45 -10 32 1 33 2 30
41 -3 37 -6 41 -33 44 -17 2 -36 -2 -43 -9z m46 -10 c17 -17 15 -45 -4 -52
-18 -7 -44 10 -44 28 0 13 20 36 30 36 3 0 11 -5 18 -12z"/>
<path d="M4200 2953 c0 -24 5 -43 10 -43 6 0 10 16 10 35 0 19 5 35 10 35 6 0
10 4 10 9 0 6 -9 9 -20 8 -17 -1 -20 -8 -20 -44z"/>
<path d="M4286 2984 c-19 -18 -20 -28 -6 -55 13 -23 52 -25 70 -4 14 17 0 21
-17 4 -13 -13 -43 -5 -43 11 0 5 16 10 35 10 36 0 46 15 23 38 -17 17 -44 15
-62 -4z m52 -12 c2 -7 -7 -12 -22 -12 -27 0 -35 15 -13 23 17 7 30 3 35 -11z"/>
<path d="M4602 2988 c-16 -16 -15 -53 2 -68 19 -15 58 -9 64 10 5 13 3 13 -11
1 -18 -14 -47 -9 -47 9 0 5 16 10 35 10 29 0 33 3 28 18 -12 32 -48 43 -71 20z
m42 -4 c25 -9 19 -24 -9 -24 -24 0 -32 10 -18 23 8 8 8 8 27 1z"/>
<path d="M4711 2992 c-1 -20 27 -82 38 -82 5 0 14 12 19 28 5 15 13 35 17 45
4 10 3 17 -4 17 -6 0 -11 -4 -11 -9 0 -5 -5 -22 -11 -38 l-10 -28 -19 40 c-10
22 -19 34 -19 27z"/>
<path d="M4832 2988 c-17 -17 -15 -53 3 -68 16 -13 65 -6 65 10 0 14 -13 13
-28 -2 -9 -9 -16 -8 -29 5 -16 16 -15 17 20 17 24 0 37 5 37 13 0 18 -21 37
-40 37 -9 0 -21 -5 -28 -12z m48 -13 c11 -13 8 -15 -20 -15 -28 0 -31 2 -20
15 7 8 16 15 20 15 4 0 13 -7 20 -15z"/>
<path d="M5012 2988 c-7 -7 -12 -21 -12 -33 0 -45 60 -63 80 -24 23 41 -35 90
-68 57z m46 -10 c17 -17 15 -45 -4 -52 -18 -7 -44 10 -44 28 0 13 20 36 30 36
3 0 11 -5 18 -12z"/>
<path d="M5125 2991 c-10 -9 -5 -121 5 -121 6 0 10 10 10 23 0 18 5 22 33 22
28 0 32 4 35 28 4 37 -14 58 -50 55 -16 -1 -31 -4 -33 -7z m69 -24 c14 -21
-13 -51 -37 -41 -20 7 -22 35 -5 52 15 15 28 11 42 -11z"/>
<path d="M5262 2988 c-17 -17 -15 -53 3 -68 16 -13 65 -6 65 10 0 14 -13 13
-28 -2 -9 -9 -16 -8 -29 5 -16 16 -15 17 20 17 24 0 37 5 37 13 0 18 -21 37
-40 37 -9 0 -21 -5 -28 -12z m48 -13 c11 -13 8 -15 -20 -15 -28 0 -31 2 -20
15 7 8 16 15 20 15 4 0 13 -7 20 -15z"/>
<path d="M5370 2954 c0 -24 5 -44 10 -44 6 0 10 14 10 31 0 18 7 37 17 44 15
11 14 13 -10 13 -25 0 -27 -3 -27 -44z"/>
<path d="M7520 2878 c-34 -17 -51 -35 -68 -70 -27 -54 -23 -98 12 -151 44 -65
4 -62 846 -65 l765 -2 45 22 c112 57 112 209 0 266 l-44 22 -756 0 -756 0 -44
-22z m561 -78 c21 -12 26 -54 8 -66 -8 -4 -8 -9 0 -17 17 -17 13 -27 -9 -27
-10 0 -24 8 -29 18 -10 16 -10 16 -11 0 0 -10 -7 -18 -15 -18 -12 0 -15 13
-15 60 0 58 1 60 26 60 14 0 34 -5 45 -10z m109 -5 c0 -8 -9 -15 -20 -15 -11
0 -20 -4 -20 -10 0 -5 7 -10 15 -10 21 0 19 -28 -2 -33 -14 -4 -12 -5 5 -6 12
-1 22 -7 22 -16 0 -11 -11 -15 -40 -15 l-40 0 0 60 0 60 40 0 c29 0 40 -4 40
-15z m84 -1 c23 -23 20 -27 -14 -20 -19 3 -29 2 -25 -4 3 -6 12 -10 19 -10 21
0 38 -27 31 -50 -5 -15 -15 -20 -41 -20 -37 0 -58 25 -33 41 10 6 10 9 2 9 -8
0 -13 13 -13 29 0 41 44 56 74 25z m56 -29 c0 -33 4 -45 15 -45 11 0 15 12 15
45 0 38 3 45 20 45 17 0 20 -7 20 -43 0 -59 -17 -79 -60 -75 l-35 3 -3 58 c-2
46 0 57 13 57 11 0 15 -11 15 -45z m133 8 l14 -37 14 37 c8 24 19 37 31 37 15
0 18 -9 18 -60 0 -47 -3 -60 -15 -60 -8 0 -15 8 -15 18 -1 16 -1 16 -11 0 -14
-25 -38 -22 -49 5 l-9 22 0 -22 c-1 -14 -7 -23 -16 -23 -12 0 -15 13 -15 60 0
52 2 60 19 60 12 0 24 -13 34 -37z m167 22 c0 -8 -9 -15 -20 -15 -11 0 -20 -4
-20 -10 0 -5 9 -10 20 -10 28 0 25 -30 -2 -31 l-23 -2 23 -4 c37 -7 27 -33
-13 -33 l-35 0 0 60 0 60 35 0 c24 0 35 -5 35 -15z"/>
<path d="M8040 2770 c0 -5 5 -10 10 -10 6 0 10 5 10 10 0 6 -4 10 -10 10 -5 0
-10 -4 -10 -10z"/>
<path d="M9689 2877 c-49 -26 -89 -89 -89 -142 0 -54 40 -117 90 -142 l44 -23
761 0 761 0 44 23 c50 25 90 88 90 142 0 53 -40 116 -89 142 l-44 23 -762 0
-762 0 -44 -23z m1617 -13 c51 -38 69 -71 69 -129 0 -58 -18 -91 -69 -129 -27
-21 -38 -21 -784 -24 -416 -2 -772 0 -790 3 -18 3 -48 20 -67 36 -63 56 -71
147 -18 210 52 61 17 59 860 56 762 -2 772 -2 799 -23z"/>
<path d="M10090 2735 c0 -42 3 -55 15 -55 8 0 15 9 15 19 0 12 8 21 21 23 27
4 44 30 36 52 -4 11 -19 16 -47 16 l-40 0 0 -55z m60 20 c0 -8 -7 -15 -15 -15
-8 0 -15 7 -15 15 0 8 7 15 15 15 8 0 15 -7 15 -15z"/>
<path d="M10190 2735 c0 -42 3 -55 15 -55 9 0 15 9 16 23 l0 22 16 -22 c20
-30 49 -32 33 -3 -7 14 -7 25 1 38 20 32 4 52 -41 52 l-40 0 0 -55z m60 20 c0
-8 -7 -15 -15 -15 -8 0 -15 7 -15 15 0 8 7 15 15 15 8 0 15 -7 15 -15z"/>
<path d="M10310 2775 c-18 -22 -15 -66 6 -82 54 -39 116 17 84 78 -13 23 -72
26 -90 4z m68 -38 c3 -23 0 -27 -21 -27 -29 0 -43 26 -26 47 18 21 44 11 47
-20z"/>
<path d="M10470 2751 c0 -22 -4 -43 -10 -46 -5 -3 -10 -1 -10 4 0 6 -7 11 -16
11 -25 0 -12 -35 16 -38 31 -5 50 21 50 70 0 27 -4 38 -15 38 -11 0 -15 -11
-15 -39z"/>
<path d="M10520 2735 l0 -55 35 0 c19 0 35 5 35 10 0 6 -9 10 -20 10 -11 0
-20 7 -20 15 0 8 7 15 15 15 8 0 15 5 15 10 0 6 -7 10 -15 10 -8 0 -15 5 -15
10 0 6 9 10 20 10 11 0 20 5 20 10 0 6 -16 10 -35 10 l-35 0 0 -55z"/>
<path d="M10610 2771 c-15 -29 -12 -56 8 -74 21 -19 45 -21 73 -7 33 18 22 31
-21 24 -38 -6 -40 -5 -40 20 0 30 23 44 45 26 19 -16 40 -3 24 16 -18 21 -76
18 -89 -5z"/>
<path d="M10720 2780 c0 -5 7 -10 15 -10 11 0 15 -12 15 -45 0 -33 4 -45 15
-45 11 0 15 12 15 45 0 33 4 45 15 45 8 0 15 5 15 10 0 6 -20 10 -45 10 -25 0
-45 -4 -45 -10z"/>
<path d="M10827 2784 c-16 -16 -6 -45 18 -54 34 -13 33 -32 -1 -24 -20 5 -25
3 -22 -7 3 -8 19 -14 39 -14 28 0 35 4 37 22 2 16 -4 26 -22 35 -34 15 -33 30
0 22 20 -5 25 -3 22 7 -5 15 -59 25 -71 13z"/>
<path d="M7151 1934 c0 -11 3 -14 6 -6 3 7 2 16 -1 19 -3 4 -6 -2 -5 -13z"/>
<path d="M7802 1923 c-4 -10 -5 -38 -1 -63 6 -42 6 -43 7 -9 1 19 7 40 14 47
9 9 9 12 -1 12 -11 0 -11 3 -1 15 8 10 9 15 2 15 -6 0 -15 -8 -20 -17z"/>
<path d="M8490 1920 c0 -16 -5 -19 -22 -15 -35 8 -50 -8 -46 -46 3 -32 5 -34
41 -35 l37 -1 0 58 c0 33 -2 59 -5 59 -3 0 -5 -9 -5 -20z m-6 -43 c13 -21 -15
-53 -38 -44 -19 8 -21 38 -4 55 15 15 28 11 42 -11z"/>
<path d="M8863 1880 c0 -36 2 -50 4 -32 2 17 2 47 0 65 -2 17 -4 3 -4 -33z"/>
<path d="M9513 1880 c0 -36 2 -51 4 -33 5 35 29 62 43 47 5 -5 11 -25 13 -44
3 -27 4 -25 3 10 -1 41 -3 45 -26 45 -16 0 -27 7 -32 20 -3 11 -6 -9 -5 -45z"/>
<path d="M9785 1930 c3 -5 8 -10 11 -10 2 0 4 5 4 10 0 6 -5 10 -11 10 -5 0
-7 -4 -4 -10z"/>
<path d="M10930 1921 c0 -14 -5 -18 -20 -14 -26 7 -50 -13 -50 -42 0 -30 19
-44 58 -43 l32 1 0 59 c0 32 -4 58 -10 58 -5 0 -10 -9 -10 -19z m-16 -27 c21
-8 21 -53 0 -61 -8 -3 -22 1 -31 9 -12 12 -13 20 -4 37 13 23 13 23 35 15z"/>
<path d="M11042 1923 c-5 -10 -6 -38 -2 -63 7 -43 8 -43 9 -9 0 19 6 40 13 47
9 9 9 12 -1 12 -11 0 -11 3 -1 15 8 10 9 15 2 15 -6 0 -15 -8 -20 -17z"/>
<path d="M11543 1880 c0 -36 2 -50 4 -32 2 17 2 47 0 65 -2 17 -4 3 -4 -33z"/>
<path d="M4003 1915 c-48 -21 -70 -72 -54 -125 7 -22 23 -47 37 -56 33 -22 43
-10 13 15 -24 20 -24 20 -1 14 26 -6 28 4 6 28 -12 13 -15 28 -10 51 6 32 7
33 56 33 49 0 50 -1 56 -33 5 -23 2 -38 -10 -51 -15 -16 -23 -71 -10 -71 30 0
74 59 74 100 0 37 -30 81 -65 96 -42 17 -51 17 -92 -1z"/>
<path d="M7113 1875 c0 -33 2 -45 4 -27 2 18 2 45 0 60 -2 15 -4 0 -4 -33z"/>
<path d="M7858 1919 c-2 -7 -1 -30 2 -53 4 -31 10 -41 25 -43 11 -2 14 0 8 3
-16 7 -17 74 -2 74 6 0 4 7 -5 15 -18 18 -23 19 -28 4z"/>
<path d="M10689 1921 c-3 -8 -2 -32 1 -55 4 -31 10 -41 25 -44 18 -2 18 -2 3
8 -10 6 -18 22 -18 35 0 13 8 29 18 34 15 9 15 10 0 11 -9 0 -18 6 -20 13 -4
9 -6 8 -9 -2z"/>
<path d="M5630 1900 c-16 -16 -20 -33 -20 -80 0 -82 18 -100 100 -100 82 0
100 18 100 100 0 82 -18 100 -100 100 -47 0 -64 -4 -80 -20z m137 -17 c-9 -2
-15 -9 -11 -14 3 -5 10 -7 15 -4 5 4 9 -19 9 -53 0 -67 -5 -72 -70 -72 -66 0
-70 4 -70 81 l0 69 73 -1 c39 -1 64 -3 54 -6z"/>
<path d="M5672 1858 c-7 -7 -12 -24 -12 -38 0 -33 17 -50 50 -50 33 0 50 17
50 50 0 33 -17 50 -50 50 -14 0 -31 -5 -38 -12z m63 -38 c0 -18 -6 -26 -23
-28 -13 -2 -25 3 -28 12 -10 26 4 48 28 44 17 -2 23 -10 23 -28z"/>
<path d="M7190 1863 c0 -23 5 -43 10 -43 6 0 10 15 10 34 0 62 45 55 53 -7 4
-31 4 -31 5 4 3 62 47 61 55 -1 4 -34 4 -34 5 7 2 34 -2 43 -18 48 -12 4 -27
2 -35 -5 -8 -7 -15 -7 -19 -1 -4 5 -20 9 -36 9 -29 -1 -30 -3 -30 -45z"/>
<path d="M7431 1901 c-7 -5 -11 -22 -9 -42 3 -32 5 -34 41 -35 37 -1 37 -1 37
40 0 38 -2 41 -28 43 -15 1 -33 -2 -41 -6z m53 -24 c13 -21 -15 -53 -38 -44
-19 8 -21 38 -4 55 15 15 28 11 42 -11z"/>
<path d="M7597 1904 c-14 -15 -6 -35 18 -44 35 -13 33 -34 -2 -25 -21 5 -25 4
-17 -5 16 -16 48 -8 52 13 2 11 -6 21 -24 27 -20 8 -24 14 -16 22 8 8 16 7 28
-3 15 -12 17 -12 12 1 -5 16 -39 25 -51 14z"/>
<path d="M7698 1899 c-21 -12 -24 -49 -6 -67 18 -18 56 -14 68 7 14 27 13 37
-6 55 -18 18 -32 20 -56 5z m36 -5 c21 -8 21 -53 0 -61 -8 -3 -22 1 -31 9 -12
12 -13 20 -4 37 13 23 13 23 35 15z"/>
<path d="M7920 1904 c0 -18 24 -84 31 -84 4 0 12 15 19 33 l12 32 9 -32 c5
-18 13 -33 18 -33 10 0 34 80 27 88 -3 3 -9 -9 -12 -26 -8 -40 -20 -41 -29 -2
-9 41 -21 38 -33 -7 l-10 -38 -7 33 c-7 28 -25 55 -25 36z"/>
<path d="M8081 1901 c-7 -5 -11 -22 -9 -42 3 -32 5 -34 41 -35 37 -1 37 -1 37
40 0 38 -2 41 -28 43 -15 1 -33 -2 -41 -6z m53 -24 c13 -21 -15 -53 -38 -44
-19 8 -21 38 -4 55 15 15 28 11 42 -11z"/>
<path d="M8191 1860 c2 -34 3 -37 6 -15 3 17 12 38 20 47 14 15 13 17 -6 15
-18 -1 -21 -7 -20 -47z"/>
<path d="M8266 1894 c-19 -19 -20 -35 -3 -58 15 -21 58 -18 65 4 5 13 3 13
-11 1 -18 -14 -47 -9 -47 9 0 5 16 10 35 10 19 0 35 4 35 9 0 14 -30 41 -45
41 -7 0 -21 -7 -29 -16z m38 0 c25 -9 19 -24 -9 -24 -24 0 -32 10 -18 23 8 8
8 8 27 1z"/>
<path d="M8546 1894 c-19 -19 -20 -35 -3 -58 15 -21 58 -18 65 4 5 13 3 13
-11 1 -18 -14 -47 -9 -47 9 0 5 16 10 35 10 19 0 35 4 35 9 0 14 -30 41 -45
41 -7 0 -21 -7 -29 -16z m38 0 c25 -9 19 -24 -9 -24 -24 0 -32 10 -18 23 8 8
8 8 27 1z"/>
<path d="M8640 1905 c0 -14 33 -85 40 -85 10 0 43 81 35 88 -2 3 -10 -9 -16
-26 -14 -40 -24 -40 -38 -2 -8 26 -21 40 -21 25z"/>
<path d="M8756 1894 c-19 -19 -20 -35 -3 -58 15 -21 58 -18 65 4 5 13 3 13
-11 1 -18 -14 -47 -9 -47 9 0 5 16 10 35 10 19 0 35 4 35 9 0 14 -30 41 -45
41 -7 0 -21 -7 -29 -16z m38 0 c25 -9 19 -24 -9 -24 -24 0 -32 10 -18 23 8 8
8 8 27 1z"/>
<path d="M8918 1899 c-21 -12 -24 -49 -6 -67 18 -18 56 -14 68 7 14 27 13 37
-6 55 -18 18 -32 20 -56 5z m36 -5 c21 -8 21 -53 0 -61 -8 -3 -22 1 -31 9 -12
12 -13 20 -4 37 13 23 13 23 35 15z"/>
<path d="M9021 1840 c1 -36 4 -53 6 -39 3 22 8 25 33 21 24 -3 31 0 38 19 11
27 4 58 -12 61 -66 9 -66 9 -65 -62z m57 51 c20 -12 11 -56 -12 -56 -27 0 -43
29 -27 49 15 18 21 19 39 7z"/>
<path d="M9142 1898 c-16 -16 -15 -53 2 -68 19 -15 58 -9 64 10 5 13 3 13 -11
1 -18 -14 -47 -9 -47 9 0 5 14 10 30 10 23 0 30 5 30 19 0 29 -45 42 -68 19z
m42 -4 c27 -10 18 -24 -15 -24 -27 0 -30 2 -19 15 14 17 13 17 34 9z"/>
<path d="M9252 1860 c1 -40 2 -41 5 -11 3 19 12 41 21 47 15 12 15 13 -5 11
-21 -1 -23 -6 -21 -47z"/>
<path d="M9360 1904 c0 -18 24 -84 31 -84 4 0 12 15 19 33 l12 32 9 -32 c5
-18 13 -33 18 -33 10 0 34 80 27 88 -3 3 -9 -9 -12 -26 -8 -40 -20 -41 -29 -2
-9 41 -21 38 -33 -7 l-10 -38 -7 33 c-7 28 -25 55 -25 36z"/>
<path d="M9632 1898 c-7 -7 -12 -25 -12 -40 0 -21 6 -29 25 -34 31 -8 55 10
55 40 0 26 -18 46 -40 46 -9 0 -21 -5 -28 -12z m52 -21 c8 -12 7 -21 -6 -33
-22 -22 -48 -11 -48 20 0 37 34 45 54 13z"/>
<path d="M9793 1865 c0 -27 2 -38 4 -22 2 15 2 37 0 50 -2 12 -4 0 -4 -28z"/>
<path d="M9842 1898 c-18 -18 -15 -27 13 -38 35 -13 33 -34 -2 -25 -21 5 -25
4 -17 -5 16 -16 59 -8 59 10 0 8 -10 19 -22 25 -13 5 -23 15 -23 22 0 16 12
17 29 1 11 -11 13 -10 9 2 -6 20 -30 24 -46 8z"/>
<path d="M9981 1840 c1 -36 4 -53 6 -38 4 24 8 27 33 22 22 -5 31 -1 40 15 12
24 5 60 -13 63 -67 8 -67 9 -66 -62z m67 21 c-4 -32 -33 -40 -47 -12 -8 15 -7
23 4 35 22 22 47 9 43 -23z"/>
<path d="M10111 1901 c-7 -5 -11 -22 -9 -42 3 -32 5 -34 41 -35 37 -1 37 -1
37 40 0 38 -2 41 -28 43 -15 1 -33 -2 -41 -6z m53 -24 c13 -21 -15 -53 -38
-44 -19 8 -21 38 -4 55 15 15 28 11 42 -11z"/>
<path d="M10223 1865 c0 -27 2 -38 4 -22 2 15 2 37 0 50 -2 12 -4 0 -4 -28z"/>
<path d="M10270 1891 c9 -18 9 -29 0 -50 -11 -25 -11 -25 8 -8 17 16 20 16 25
2 4 -8 11 -15 17 -15 6 0 4 10 -5 23 -13 21 -13 25 1 45 8 12 11 22 6 22 -6 0
-13 -7 -16 -16 -6 -15 -8 -15 -28 2 -21 19 -21 19 -8 -5z"/>
<path d="M10362 1898 c-17 -17 -15 -53 3 -68 8 -7 25 -10 40 -6 43 11 30 86
-15 86 -9 0 -21 -5 -28 -12z m48 -13 c17 -20 8 -50 -14 -50 -27 0 -43 29 -27
49 17 20 25 20 41 1z"/>
<path d="M10472 1861 c1 -42 2 -43 5 -9 7 61 48 60 56 -2 4 -33 4 -33 5 8 1
23 -1 43 -5 44 -5 0 -20 2 -35 3 -27 2 -28 0 -26 -44z"/>
<path d="M10586 1894 c-19 -19 -20 -35 -3 -58 15 -21 58 -18 65 4 5 13 3 13
-11 1 -18 -14 -47 -9 -47 9 0 5 16 10 35 10 19 0 35 4 35 9 0 14 -30 41 -45
41 -7 0 -21 -7 -29 -16z m38 0 c25 -9 19 -24 -9 -24 -24 0 -32 10 -18 23 8 8
8 8 27 1z"/>
<path d="M10762 1898 c-16 -16 -15 -53 2 -68 19 -15 58 -9 64 10 5 13 3 13
-11 1 -18 -14 -47 -9 -47 9 0 5 14 10 30 10 23 0 30 5 30 19 0 29 -45 42 -68
19z m42 -4 c27 -10 18 -24 -15 -24 -27 0 -30 2 -19 15 14 17 13 17 34 9z"/>
<path d="M11106 1894 c-19 -18 -20 -28 -6 -55 12 -21 50 -25 68 -7 18 18 14
56 -7 68 -27 14 -37 13 -55 -6z m58 -19 c7 -20 -18 -49 -38 -42 -19 7 -22 53
-3 60 17 6 34 -2 41 -18z"/>
<path d="M11212 1860 c1 -37 2 -39 5 -12 3 18 11 36 19 39 21 8 17 19 -6 19
-17 0 -20 -6 -18 -46z"/>
<path d="M11337 1904 c-14 -15 -6 -35 18 -44 35 -13 33 -34 -2 -25 -21 5 -25
4 -17 -5 16 -16 48 -8 52 13 2 11 -6 21 -24 27 -20 8 -24 14 -16 22 8 8 16 7
28 -3 15 -12 17 -12 12 1 -5 16 -39 25 -51 14z"/>
<path d="M11438 1899 c-21 -12 -24 -49 -6 -67 18 -18 56 -14 68 7 14 27 13 37
-6 55 -18 18 -32 20 -56 5z m36 -5 c21 -8 21 -53 0 -61 -8 -3 -22 1 -31 9 -12
12 -13 20 -4 37 13 23 13 23 35 15z"/>
<path d="M11580 1905 c0 -14 33 -85 40 -85 10 0 43 81 35 88 -2 3 -10 -9 -16
-26 -14 -40 -24 -40 -38 -2 -8 26 -21 40 -21 25z"/>
<path d="M11696 1894 c-19 -19 -20 -35 -3 -58 15 -21 58 -18 65 4 5 13 3 13
-11 1 -18 -14 -47 -9 -47 9 0 5 16 10 35 10 19 0 35 4 35 9 0 14 -30 41 -45
41 -7 0 -21 -7 -29 -16z m38 0 c25 -9 19 -24 -9 -24 -24 0 -32 10 -18 23 8 8
8 8 27 1z"/>
<path d="M3134 1887 c-3 -8 -4 -47 -2 -88 l3 -74 85 0 85 0 0 85 0 85 -83 3
c-63 2 -84 0 -88 -11z m50 -38 c-3 -5 -10 -7 -15 -3 -5 3 -7 10 -3 15 3 5 10
7 15 3 5 -3 7 -10 3 -15z m6 -53 c0 -19 -4 -38 -10 -41 -6 -4 -10 10 -10 34 0
23 5 41 10 41 6 0 10 -15 10 -34z m80 -7 c0 -24 -4 -38 -10 -34 -5 3 -10 17
-10 31 0 34 -19 30 -26 -6 -8 -39 -24 -28 -24 16 0 32 2 34 35 34 34 0 35 -1
35 -41z"/>
<path d="M4887 1884 c-4 -4 -7 -16 -7 -26 0 -15 -5 -18 -22 -13 -13 4 -33 13
-45 21 -24 15 -37 6 -23 -16 4 -7 6 -19 3 -26 -2 -6 1 -15 6 -19 6 -3 9 -11 6
-16 -4 -5 1 -12 9 -15 23 -9 20 -21 -6 -29 -22 -6 -22 -7 5 -15 59 -18 132 26
143 87 3 18 10 36 15 38 4 3 6 11 3 18 -5 14 -75 22 -87 11z"/>
<path d="M7411 1645 l-1 -61 35 -2 c29 -2 37 2 44 20 16 44 -9 76 -50 63 -13
-4 -19 0 -22 17 -2 13 -5 -4 -6 -37z m57 6 c20 -12 11 -56 -12 -56 -27 0 -43
29 -27 49 15 18 21 19 39 7z"/>
<path d="M7533 1640 c0 -36 2 -50 4 -32 2 17 2 47 0 65 -2 17 -4 3 -4 -33z"/>
<path d="M8310 1680 c0 -16 -5 -19 -24 -14 -23 5 -56 -16 -56 -37 0 -31 22
-49 55 -46 l35 2 0 58 c0 31 -2 57 -5 57 -3 0 -5 -9 -5 -20z m-9 -41 c9 -17 8
-25 -4 -37 -9 -8 -23 -12 -31 -9 -19 8 -21 53 -3 60 21 9 26 7 38 -14z"/>
<path d="M8523 1640 c0 -36 2 -50 4 -32 2 17 2 47 0 65 -2 17 -4 3 -4 -33z"/>
<path d="M9913 1640 c0 -36 2 -50 4 -32 2 17 2 47 0 65 -2 17 -4 3 -4 -33z"/>
<path d="M10542 1640 c0 -37 3 -57 7 -47 6 17 8 17 20 3 7 -9 18 -16 24 -16 6
0 2 10 -11 22 l-22 22 22 23 c12 13 17 23 11 23 -6 0 -17 -7 -24 -17 -13 -15
-15 -13 -20 18 -5 25 -7 17 -7 -31z"/>
<path d="M11323 1640 c0 -36 2 -50 4 -32 2 17 2 47 0 65 -2 17 -4 3 -4 -33z"/>
<path d="M11373 1640 c0 -36 2 -50 4 -32 2 17 2 47 0 65 -2 17 -4 3 -4 -33z"/>
<path d="M11862 1640 c0 -36 3 -57 7 -47 6 17 8 17 20 3 7 -9 18 -16 24 -16 5
0 3 8 -6 18 -10 10 -17 22 -17 27 0 5 7 17 17 27 10 11 12 18 4 18 -6 0 -14
-7 -17 -15 -10 -25 -23 -17 -27 18 -2 17 -4 3 -5 -33z"/>
<path d="M8677 1677 c-9 -23 8 -90 23 -95 12 -4 13 -2 3 9 -15 15 -17 51 -4
65 6 5 4 14 -4 21 -10 9 -14 9 -18 0z"/>
<path d="M9406 1657 c-7 -19 -17 -45 -21 -58 -7 -23 -7 -23 12 -6 25 21 49 22
57 1 4 -9 9 -14 12 -11 7 7 -28 107 -38 107 -4 0 -14 -15 -22 -33z m34 -24 c0
-7 -7 -13 -16 -13 -11 0 -14 5 -10 16 3 9 6 21 6 27 0 16 20 -14 20 -30z"/>
<path d="M9608 1679 c-2 -7 -1 -30 2 -53 4 -31 10 -41 25 -43 11 -2 14 0 8 3
-16 7 -17 74 -2 74 6 0 4 7 -5 15 -18 18 -23 19 -28 4z"/>
<path d="M10113 1635 c0 -33 2 -45 4 -27 2 18 2 45 0 60 -2 15 -4 0 -4 -33z"/>
<path d="M11121 1633 c1 -32 4 -46 6 -31 3 18 12 28 26 31 l22 4 -22 2 c-35 2
-31 39 5 44 25 4 25 4 -5 6 l-33 1 1 -57z"/>
<path d="M11568 1677 c-3 -7 -3 -31 0 -54 3 -32 8 -43 21 -42 10 0 11 2 4 6
-15 5 -18 70 -4 75 5 2 3 8 -4 15 -10 9 -14 9 -17 0z"/>
<path d="M7111 1600 c1 -36 4 -53 6 -39 3 22 8 25 33 21 24 -3 31 0 38 19 11
27 4 58 -12 61 -66 9 -66 9 -65 -62z m57 51 c20 -12 11 -56 -12 -56 -27 0 -43
29 -27 49 15 18 21 19 39 7z"/>
<path d="M7231 1620 c2 -34 3 -37 6 -15 3 17 12 38 20 47 14 15 13 17 -6 15
-18 -1 -21 -7 -20 -47z"/>
<path d="M7306 1654 c-19 -18 -20 -28 -6 -55 12 -21 50 -25 68 -7 18 18 14 56
-7 68 -27 14 -37 13 -55 -6z m58 -19 c7 -20 -18 -49 -38 -42 -19 7 -22 53 -3
60 17 6 34 -2 41 -18z"/>
<path d="M7582 1658 c-16 -16 -15 -53 2 -68 19 -15 58 -9 64 10 5 13 3 13 -11
1 -18 -14 -47 -9 -47 9 0 5 14 10 30 10 23 0 30 5 30 19 0 29 -45 42 -68 19z
m42 -4 c27 -10 18 -24 -15 -24 -27 0 -30 2 -19 15 14 17 13 17 34 9z"/>
<path d="M7692 1621 c1 -41 2 -42 5 -11 8 62 52 63 55 1 1 -35 1 -35 5 -4 5
35 29 62 43 47 5 -5 11 -25 13 -44 3 -27 4 -25 3 10 l-1 45 -62 1 -63 0 2 -45z"/>
<path d="M7867 1664 c-15 -15 -6 -35 19 -44 30 -12 22 -34 -9 -24 -17 5 -19 3
-11 -6 16 -16 48 -9 52 13 2 11 -6 21 -24 27 -20 8 -24 14 -16 22 8 8 16 7 28
-3 15 -12 17 -12 12 1 -5 16 -39 25 -51 14z"/>
<path d="M8015 1654 c-18 -18 -19 -28 -5 -55 8 -14 20 -18 45 -16 34 2 35 4
35 42 0 37 -2 40 -30 42 -16 1 -36 -5 -45 -13z m56 -15 c9 -17 8 -25 -4 -37
-9 -8 -23 -12 -31 -9 -19 8 -21 53 -3 60 21 9 26 7 38 -14z"/>
<path d="M8132 1621 c1 -42 2 -43 5 -9 7 61 48 60 56 -2 4 -33 4 -33 5 8 1 23
-1 43 -5 44 -5 0 -20 2 -35 3 -27 2 -28 0 -26 -44z"/>
<path d="M8416 1654 c-19 -19 -20 -35 -3 -58 15 -21 58 -18 65 4 5 13 3 13
-11 1 -18 -14 -47 -9 -47 9 0 5 16 10 35 10 19 0 35 4 35 9 0 14 -30 41 -45
41 -7 0 -21 -7 -29 -16z m38 0 c25 -9 19 -24 -9 -24 -24 0 -32 10 -18 23 8 8
8 8 27 1z"/>
<path d="M8572 1658 c-16 -16 -15 -53 2 -68 19 -15 58 -9 64 10 5 13 3 13 -11
1 -18 -14 -47 -9 -47 9 0 5 14 10 30 10 23 0 30 5 30 19 0 29 -45 42 -68 19z
m42 -4 c27 -10 18 -24 -15 -24 -27 0 -30 2 -19 15 14 17 13 17 34 9z"/>
<path d="M8740 1624 c0 -24 5 -44 10 -44 6 0 10 16 10 35 0 19 5 35 10 35 19
0 10 16 -10 17 -17 2 -20 -4 -20 -43z"/>
<path d="M8822 1658 c-17 -17 -15 -53 3 -68 8 -7 25 -10 40 -6 43 11 30 86
-15 86 -9 0 -21 -5 -28 -12z m48 -13 c17 -20 8 -50 -14 -50 -27 0 -43 29 -27
49 17 20 25 20 41 1z"/>
<path d="M8932 1621 c1 -42 2 -43 5 -9 7 61 48 60 56 -2 4 -33 4 -33 5 8 1 23
-1 43 -5 44 -5 0 -20 2 -35 3 -27 2 -28 0 -26 -44z"/>
<path d="M9043 1625 c0 -27 2 -38 4 -22 2 15 2 37 0 50 -2 12 -4 0 -4 -28z"/>
<path d="M9096 1654 c-19 -19 -20 -35 -3 -58 15 -21 58 -18 65 4 5 13 3 13
-11 1 -23 -18 -47 -7 -47 23 0 31 14 40 40 26 11 -6 20 -7 20 -1 0 9 -23 21
-40 21 -5 0 -16 -7 -24 -16z"/>
<path d="M9202 1658 c-18 -18 -15 -27 13 -38 35 -13 33 -34 -2 -25 -21 5 -25
4 -17 -5 16 -16 59 -8 59 10 0 8 -10 19 -22 25 -13 5 -23 15 -23 22 0 16 12
17 29 1 11 -11 13 -10 9 2 -6 20 -30 24 -46 8z"/>
<path d="M9512 1658 c-7 -7 -12 -21 -12 -33 0 -43 46 -60 71 -27 11 14 11 15
-1 5 -21 -20 -48 -15 -55 8 -9 28 19 59 37 41 17 -17 33 -15 18 3 -15 18 -42
19 -58 3z"/>
<path d="M9684 1630 c1 -44 2 -45 34 -46 32 -1 32 -1 31 45 l-2 46 -6 -40 c-5
-31 -10 -40 -26 -40 -16 0 -21 9 -26 40 l-7 40 2 -45z"/>
<path d="M9801 1661 c-7 -5 -11 -22 -9 -42 3 -32 5 -34 41 -35 37 -1 37 -1 37
40 0 38 -2 41 -28 43 -15 1 -33 -2 -41 -6z m53 -24 c13 -21 -15 -53 -38 -44
-19 8 -21 38 -4 55 15 15 28 11 42 -11z"/>
<path d="M9950 1667 c0 -4 7 -24 15 -45 9 -21 13 -48 10 -62 -10 -38 9 -12 34
48 12 30 20 56 17 60 -3 3 -11 -9 -17 -26 -11 -32 -29 -44 -29 -19 0 14 -29
57 -30 44z"/>
<path d="M10216 1635 c9 -66 28 -76 40 -22 l7 32 14 -32 c16 -39 21 -41 32
-10 19 51 23 69 13 63 -6 -3 -14 -21 -18 -39 l-7 -32 -11 32 c-16 47 -23 48
-37 6 l-12 -38 -13 40 -13 40 5 -40z"/>
<path d="M10362 1658 c-17 -17 -15 -53 3 -68 8 -7 25 -10 40 -6 43 11 30 86
-15 86 -9 0 -21 -5 -28 -12z m48 -13 c17 -20 8 -50 -14 -50 -27 0 -43 29 -27
49 17 20 25 20 41 1z"/>
<path d="M10472 1620 c1 -40 2 -41 5 -11 3 19 12 41 21 47 15 12 15 13 -5 11
-21 -1 -23 -6 -21 -47z"/>
<path d="M10691 1661 c-7 -5 -11 -22 -9 -42 3 -32 5 -34 41 -35 37 -1 37 -1
37 40 0 38 -2 41 -28 43 -15 1 -33 -2 -41 -6z m53 -24 c13 -21 -15 -53 -38
-44 -19 8 -21 38 -4 55 15 15 28 11 42 -11z"/>
<path d="M10807 1663 c-14 -14 -6 -34 18 -45 28 -13 23 -32 -8 -24 -14 3 -17
2 -10 -5 15 -15 47 -7 51 13 2 12 -5 19 -22 24 -27 6 -33 18 -16 29 6 4 17 1
25 -5 9 -7 15 -8 15 -2 0 16 -40 28 -53 15z"/>
<path d="M10952 1658 c-16 -16 -15 -53 1 -66 7 -6 27 -10 45 -10 31 1 32 3 32
43 0 40 -1 42 -33 43 -19 1 -39 -4 -45 -10z m42 -4 c21 -8 21 -53 0 -61 -8 -3
-22 1 -31 9 -12 12 -13 20 -4 37 13 23 13 23 35 15z"/>
<path d="M11214 1630 c1 -44 2 -45 34 -46 32 -1 32 -1 31 45 l-2 46 -6 -40
c-5 -31 -10 -40 -26 -40 -16 0 -21 9 -26 40 l-7 40 2 -45z"/>
<path d="M11477 1664 c-15 -15 -6 -35 19 -44 30 -12 22 -34 -9 -24 -17 5 -19
3 -11 -6 16 -16 48 -9 52 13 2 11 -6 21 -24 27 -20 8 -24 14 -16 22 8 8 16 7
28 -3 15 -12 17 -12 12 1 -5 16 -39 25 -51 14z"/>
<path d="M11641 1661 c-7 -5 -11 -22 -9 -42 3 -32 5 -34 41 -35 37 -1 37 -1
37 40 0 38 -2 41 -28 43 -15 1 -33 -2 -41 -6z m53 -24 c13 -21 -15 -53 -38
-44 -19 8 -21 38 -4 55 15 15 28 11 42 -11z"/>
<path d="M11762 1661 c-8 -5 -12 -22 -10 -42 3 -30 6 -34 32 -34 17 0 31 6 34
15 5 13 3 13 -11 1 -23 -18 -47 -7 -47 23 0 26 27 43 44 26 16 -16 30 -12 16
5 -14 17 -38 19 -58 6z"/>
<path d="M9285 1590 c-3 -5 -1 -10 4 -10 6 0 11 5 11 10 0 6 -2 10 -4 10 -3 0
-8 -4 -11 -10z"/>
<path d="M10856 1468 c-26 -37 -14 -158 15 -158 4 0 1 12 -7 28 -18 35 -18 86
1 122 18 35 13 39 -9 8z"/>
<path d="M11642 1453 c20 -39 18 -94 -4 -121 -6 -7 -9 -15 -6 -17 11 -11 31
27 35 68 5 43 -17 107 -36 107 -5 0 0 -17 11 -37z"/>
<path d="M7180 1440 c0 -16 -5 -19 -24 -14 -23 5 -56 -16 -56 -37 0 -31 22
-49 55 -46 l35 2 0 58 c0 31 -2 57 -5 57 -3 0 -5 -9 -5 -20z m-9 -41 c9 -17 8
-25 -4 -37 -9 -8 -23 -12 -31 -9 -19 8 -21 53 -3 60 21 9 26 7 38 -14z"/>
<path d="M7553 1400 c0 -36 2 -50 4 -32 2 17 2 47 0 65 -2 17 -4 3 -4 -33z"/>
<path d="M8323 1400 c0 -36 2 -49 4 -30 8 62 49 63 56 2 l4 -37 1 42 c2 34 -2
43 -18 48 -11 3 -24 4 -29 0 -5 -3 -12 5 -14 17 -2 13 -4 -6 -4 -42z"/>
<path d="M8943 1400 c0 -36 2 -50 4 -32 2 17 2 47 0 65 -2 17 -4 3 -4 -33z"/>
<path d="M9243 1448 c-6 -7 -10 -33 -9 -58 1 -42 3 -45 30 -48 37 -4 47 12 39
63 -8 52 -37 72 -60 43z m47 -23 c0 -18 -27 -26 -39 -11 -7 9 -7 16 0 23 14
14 39 6 39 -12z m0 -55 c0 -21 -33 -29 -45 -10 -9 15 4 30 26 30 12 0 19 -7
19 -20z"/>
<path d="M9690 1441 c0 -14 -5 -18 -20 -14 -26 7 -50 -13 -50 -42 0 -30 19
-44 58 -43 l32 1 0 59 c0 32 -4 58 -10 58 -5 0 -10 -9 -10 -19z m-16 -27 c21
-8 21 -53 0 -61 -8 -3 -22 1 -31 9 -12 12 -13 20 -4 37 13 23 13 23 35 15z"/>
<path d="M10421 1405 l-1 -60 35 -2 c33 -3 55 15 55 46 0 20 -33 42 -56 37
-18 -5 -24 -1 -27 16 -2 13 -5 -4 -6 -37z m67 -24 c-4 -32 -33 -40 -47 -12 -8
15 -7 23 4 35 22 22 47 9 43 -23z"/>
<path d="M11414 1452 c-7 -4 -11 -29 -10 -57 1 -46 3 -50 27 -53 31 -4 57 22
41 41 -6 7 -8 23 -5 36 8 32 -24 52 -53 33z m46 -27 c0 -7 -6 -15 -12 -18 -19
-6 -38 3 -38 18 0 7 6 15 13 18 18 6 37 -3 37 -18z m-2 -52 c-2 -10 -12 -18
-23 -18 -11 0 -21 8 -23 18 -3 13 3 17 23 17 20 0 26 -4 23 -17z"/>
<path d="M8249 1441 c-3 -8 -2 -32 1 -55 4 -31 10 -41 25 -44 18 -2 18 -2 3 8
-10 6 -18 22 -18 35 0 13 8 29 18 34 15 9 15 10 0 11 -9 0 -18 6 -20 13 -4 9
-6 8 -9 -2z"/>
<path d="M8493 1395 c-12 -30 -17 -55 -13 -55 4 0 10 7 14 15 3 8 15 15 26 15
11 0 23 -7 26 -15 4 -8 10 -15 14 -15 12 0 -24 103 -37 107 -5 2 -19 -21 -30
-52z m41 9 c9 -23 8 -24 -13 -24 -14 0 -18 5 -14 20 6 24 19 26 27 4z"/>
<path d="M9796 1434 c-8 -21 0 -33 30 -44 13 -5 24 -16 24 -25 0 -17 -25 -21
-35 -5 -3 6 -11 10 -17 10 -7 0 -6 -6 2 -15 16 -19 44 -19 60 0 15 17 6 33
-26 45 -34 13 -33 44 2 36 17 -5 23 -3 19 4 -10 16 -52 12 -59 -6z"/>
<path d="M10768 1437 c-3 -7 -3 -31 0 -54 3 -32 8 -43 21 -42 10 0 11 2 4 6
-15 5 -18 70 -4 75 5 2 3 8 -4 15 -10 9 -14 9 -17 0z"/>
<path d="M10950 1400 c0 -51 -6 -59 -29 -37 -11 10 -13 9 -9 -3 6 -20 38 -25
49 -8 12 18 11 98 -1 98 -5 0 -10 -22 -10 -50z"/>
<path d="M11540 1421 c0 -11 -8 -22 -17 -24 -17 -4 -17 -5 0 -6 9 0 17 -8 17
-16 0 -8 5 -15 10 -15 6 0 10 6 10 14 0 8 8 17 18 19 16 4 16 5 0 6 -11 1 -18
9 -18 21 0 11 -4 20 -10 20 -5 0 -10 -9 -10 -19z"/>
<path d="M7236 1414 c-19 -19 -20 -35 -3 -58 15 -21 58 -18 65 4 5 13 3 13
-11 1 -18 -14 -47 -9 -47 9 0 5 16 10 35 10 19 0 35 4 35 9 0 14 -30 41 -45
41 -7 0 -21 -7 -29 -16z m38 0 c25 -9 19 -24 -9 -24 -24 0 -32 10 -18 23 8 8
8 8 27 1z"/>
<path d="M7331 1424 c-2 -19 28 -84 38 -84 5 0 16 20 24 45 19 54 12 60 -9 8
l-16 -37 -18 40 c-10 21 -19 34 -19 28z"/>
<path d="M7442 1418 c-16 -16 -15 -53 2 -68 19 -15 58 -9 64 10 5 13 3 13 -11
1 -18 -14 -47 -9 -47 9 0 5 14 10 30 10 23 0 30 5 30 19 0 29 -45 42 -68 19z
m42 -4 c27 -10 18 -24 -15 -24 -27 0 -30 2 -19 15 14 17 13 17 34 9z"/>
<path d="M7608 1419 c-21 -12 -24 -49 -6 -67 18 -18 56 -14 68 7 14 27 13 37
-6 55 -18 18 -32 20 -56 5z m36 -5 c21 -8 21 -53 0 -61 -8 -3 -22 1 -31 9 -12
12 -13 20 -4 37 13 23 13 23 35 15z"/>
<path d="M7711 1360 c1 -36 4 -53 6 -39 3 22 8 25 33 21 24 -3 31 0 38 19 11
27 4 58 -12 61 -66 9 -66 9 -65 -62z m57 51 c20 -12 11 -56 -12 -56 -27 0 -43
29 -27 49 15 18 21 19 39 7z"/>
<path d="M7832 1418 c-16 -16 -15 -53 2 -68 19 -15 58 -9 64 10 5 13 3 13 -11
1 -18 -14 -47 -9 -47 9 0 5 14 10 30 10 23 0 30 5 30 19 0 29 -45 42 -68 19z
m42 -4 c27 -10 18 -24 -15 -24 -27 0 -30 2 -19 15 14 17 13 17 34 9z"/>
<path d="M7942 1380 c1 -40 2 -41 5 -11 3 19 12 41 21 47 15 12 15 13 -5 11
-21 -1 -23 -6 -21 -47z"/>
<path d="M8050 1419 c0 -23 21 -79 30 -79 4 0 12 15 17 33 10 33 13 31 29 -20
6 -22 22 -14 28 15 4 15 9 35 13 46 3 11 1 16 -5 12 -5 -3 -13 -20 -17 -38
l-7 -33 -10 38 c-12 45 -26 48 -34 7 -7 -32 -24 -41 -24 -12 0 9 -5 24 -10 32
-8 13 -10 13 -10 -1z"/>
<path d="M8203 1385 c0 -27 2 -38 4 -22 2 15 2 37 0 50 -2 12 -4 0 -4 -28z"/>
<path d="M8602 1381 c1 -35 2 -39 5 -14 5 35 29 62 43 47 5 -5 11 -25 13 -44
3 -27 4 -25 3 10 -1 44 -2 45 -33 46 -33 1 -33 1 -31 -45z"/>
<path d="M8721 1421 c-7 -5 -11 -22 -9 -42 3 -31 6 -34 36 -34 19 0 32 -5 32
-13 0 -19 -30 -27 -52 -13 -16 10 -19 10 -16 -1 3 -7 19 -13 39 -13 l34 0 3
60 c3 59 3 60 -25 62 -16 1 -34 -2 -42 -6z m53 -24 c13 -21 -15 -53 -38 -44
-19 8 -21 38 -4 55 15 15 28 11 42 -11z"/>
<path d="M8834 1390 c1 -44 2 -45 34 -46 32 -1 32 -1 31 45 l-2 46 -6 -40 c-5
-31 -10 -40 -26 -40 -16 0 -21 9 -26 40 l-7 40 2 -45z"/>
<path d="M9001 1421 c-7 -5 -11 -22 -9 -42 3 -32 5 -34 41 -35 37 -1 37 -1 37
40 0 38 -2 41 -28 43 -15 1 -33 -2 -41 -6z m53 -24 c13 -21 -15 -53 -38 -44
-19 8 -21 38 -4 55 15 15 28 11 42 -11z"/>
<path d="M9111 1380 c2 -34 3 -37 6 -15 3 17 12 38 20 47 14 15 13 17 -6 15
-18 -1 -21 -7 -20 -47z"/>
<path d="M9402 1418 c-16 -16 -15 -53 1 -66 7 -6 27 -10 45 -10 31 1 32 3 32
43 0 40 -1 42 -33 43 -19 1 -39 -4 -45 -10z m42 -4 c21 -8 21 -53 0 -61 -8 -3
-22 1 -31 9 -12 12 -13 20 -4 37 13 23 13 23 35 15z"/>
<path d="M9510 1384 c0 -24 5 -44 10 -44 6 0 10 15 10 34 0 62 45 55 53 -7 4
-32 4 -32 5 4 2 42 -11 57 -50 57 -26 0 -28 -3 -28 -44z"/>
<path d="M9901 1360 c1 -36 4 -53 6 -38 4 24 8 27 33 22 22 -5 31 -1 40 15 12
24 5 60 -13 63 -67 8 -67 9 -66 -62z m67 21 c-4 -32 -33 -40 -47 -12 -8 15 -7
23 4 35 22 22 47 9 43 -23z"/>
<path d="M10021 1380 c2 -34 3 -37 6 -15 3 17 12 38 20 47 14 15 13 17 -6 15
-18 -1 -21 -7 -20 -47z"/>
<path d="M10093 1385 c0 -27 2 -38 4 -22 2 15 2 37 0 50 -2 12 -4 0 -4 -28z"/>
<path d="M10142 1381 c1 -35 2 -39 5 -14 5 35 29 62 43 47 5 -5 11 -25 13 -44
3 -27 4 -25 3 10 -1 44 -2 45 -33 46 -33 1 -33 1 -31 -45z"/>
<path d="M10261 1421 c-7 -5 -11 -22 -9 -42 3 -31 6 -34 36 -34 19 0 32 -5 32
-13 0 -19 -30 -27 -52 -13 -16 10 -19 10 -16 -1 3 -7 19 -13 39 -13 l34 0 3
60 c3 59 3 60 -25 62 -16 1 -34 -2 -42 -6z m53 -24 c13 -21 -15 -53 -38 -44
-19 8 -21 38 -4 55 15 15 28 11 42 -11z"/>
<path d="M10546 1414 c-19 -18 -20 -28 -6 -55 12 -21 50 -25 68 -7 18 18 14
56 -7 68 -27 14 -37 13 -55 -6z m58 -19 c7 -20 -18 -49 -38 -42 -19 7 -22 53
-3 60 17 6 34 -2 41 -18z"/>
<path d="M10662 1418 c-7 -7 -12 -25 -12 -40 0 -21 6 -29 25 -34 31 -8 55 10
55 40 0 26 -18 46 -40 46 -9 0 -21 -5 -28 -12z m52 -21 c8 -12 7 -21 -6 -33
-22 -22 -48 -11 -48 20 0 37 34 45 54 13z"/>
<path d="M11015 1414 c-18 -18 -19 -28 -5 -55 8 -14 20 -18 45 -16 34 2 35 4
35 42 0 37 -2 40 -30 42 -16 1 -36 -5 -45 -13z m56 -15 c9 -17 8 -25 -4 -37
-9 -8 -23 -12 -31 -9 -19 8 -21 53 -3 60 21 9 26 7 38 -14z"/>
<path d="M11120 1425 c0 -14 33 -85 40 -85 10 0 43 81 35 88 -2 3 -10 -9 -16
-26 -14 -40 -24 -40 -38 -2 -8 26 -21 40 -21 25z"/>
<path d="M11232 1418 c-16 -16 -15 -53 1 -66 7 -6 27 -10 45 -10 31 1 32 3 32
43 0 40 -1 42 -33 43 -19 1 -39 -4 -45 -10z m42 -4 c21 -8 21 -53 0 -61 -8 -3
-22 1 -31 9 -12 12 -13 20 -4 37 13 23 13 23 35 15z"/>
<path d="M7413 1206 c-11 -19 -4 -106 8 -106 5 0 9 17 10 38 0 20 2 47 3 60 3
25 -9 29 -21 8z"/>
<path d="M7950 1209 c0 -5 5 -7 10 -4 6 3 10 8 10 11 0 2 -4 4 -10 4 -5 0 -10
-5 -10 -11z"/>
<path d="M8145 1210 c3 -5 8 -10 11 -10 2 0 4 5 4 10 0 6 -5 10 -11 10 -5 0
-7 -4 -4 -10z"/>
<path d="M8363 1206 c-11 -19 -4 -106 8 -106 5 0 9 17 10 38 0 20 2 47 3 60 3
25 -9 29 -21 8z"/>
<path d="M9070 1201 c0 -14 -5 -18 -20 -14 -26 7 -50 -13 -50 -42 0 -30 19
-44 58 -43 l32 1 0 59 c0 32 -4 58 -10 58 -5 0 -10 -9 -10 -19z m-16 -27 c21
-8 21 -53 0 -61 -8 -3 -22 1 -31 9 -12 12 -13 20 -4 37 13 23 13 23 35 15z"/>
<path d="M9701 1165 l-1 -60 35 -2 c33 -3 55 15 55 46 0 20 -33 42 -56 37 -18
-5 -24 -1 -27 16 -2 13 -5 -4 -6 -37z m67 -24 c-4 -32 -33 -40 -47 -12 -8 15
-7 23 4 35 22 22 47 9 43 -23z"/>
<path d="M9873 1160 c0 -36 2 -50 4 -32 2 17 2 47 0 65 -2 17 -4 3 -4 -33z"/>
<path d="M10150 1200 c0 -16 -5 -19 -24 -14 -23 5 -56 -16 -56 -37 0 -31 22
-49 55 -46 l35 2 0 58 c0 31 -2 57 -5 57 -3 0 -5 -9 -5 -20z m-9 -41 c9 -17 8
-25 -4 -37 -9 -8 -23 -12 -31 -9 -19 8 -21 53 -3 60 21 9 26 7 38 -14z"/>
<path d="M10523 1160 c0 -36 2 -50 4 -32 2 17 2 47 0 65 -2 17 -4 3 -4 -33z"/>
<path d="M11320 1201 c0 -14 -5 -18 -20 -14 -26 7 -50 -13 -50 -42 0 -30 19
-44 58 -43 l32 1 0 59 c0 32 -4 58 -10 58 -5 0 -10 -9 -10 -19z m-16 -27 c21
-8 21 -53 0 -61 -8 -3 -22 1 -31 9 -12 12 -13 20 -4 37 13 23 13 23 35 15z"/>
<path d="M11503 1160 c0 -36 2 -49 4 -30 8 62 49 63 56 2 l4 -37 1 42 c2 34
-2 43 -18 48 -11 3 -24 4 -29 0 -5 -3 -12 5 -14 17 -2 13 -4 -6 -4 -42z"/>
<path d="M7111 1153 c2 -54 2 -55 8 -18 l6 40 14 -33 c20 -47 28 -48 47 -5
l18 38 6 -40 c7 -38 7 -37 9 18 0 31 -3 57 -8 57 -5 0 -17 -21 -28 -47 l-19
-47 -20 47 c-10 26 -22 47 -26 47 -5 0 -7 -26 -7 -57z"/>
<path d="M8719 1201 c-3 -8 -2 -32 1 -55 4 -31 10 -41 25 -44 18 -2 18 -2 3 8
-10 6 -18 22 -18 35 0 13 8 29 18 34 15 9 15 10 0 11 -9 0 -18 6 -20 13 -4 9
-6 8 -9 -2z"/>
<path d="M11429 1201 c-3 -8 -2 -32 1 -55 4 -31 10 -41 25 -44 18 -2 18 -2 3
8 -10 6 -18 22 -18 35 0 13 8 29 18 34 15 9 15 10 0 11 -9 0 -18 6 -20 13 -4
9 -6 8 -9 -2z"/>
<path d="M11727 1197 c-9 -23 8 -90 23 -95 12 -4 13 -2 3 9 -15 15 -17 51 -4
65 6 5 4 14 -4 21 -10 9 -14 9 -18 0z"/>
<path d="M7250 1187 c0 -4 7 -24 15 -45 9 -21 13 -48 10 -62 -10 -38 9 -12 34
48 12 30 20 56 17 60 -3 3 -11 -9 -17 -26 -11 -32 -29 -44 -29 -19 0 14 -29
57 -30 44z"/>
<path d="M7482 1178 c-17 -17 -15 -53 3 -68 8 -7 25 -10 40 -6 43 11 30 86
-15 86 -9 0 -21 -5 -28 -12z m48 -13 c17 -20 8 -50 -14 -50 -27 0 -43 29 -27
49 17 20 25 20 41 1z"/>
<path d="M7592 1178 c-16 -16 -15 -53 2 -68 18 -14 58 -10 64 8 3 11 0 11 -16
1 -17 -10 -23 -10 -36 0 -19 16 -20 22 -3 45 12 16 17 17 38 6 22 -12 23 -12
10 3 -16 20 -42 22 -59 5z"/>
<path d="M7693 1150 c2 -45 2 -45 40 -47 l37 -1 0 44 c0 24 -4 44 -10 44 -5 0
-10 -16 -10 -35 0 -23 -6 -38 -15 -42 -21 -7 -27 0 -36 44 l-7 38 1 -45z"/>
<path d="M7807 1184 c-14 -15 -6 -35 18 -44 35 -13 33 -34 -2 -25 -21 5 -25 4
-17 -5 16 -16 48 -8 52 13 2 11 -6 21 -24 27 -20 8 -24 14 -16 22 8 8 16 7 28
-3 15 -12 17 -12 12 1 -5 16 -39 25 -51 14z"/>
<path d="M7953 1145 c0 -27 2 -38 4 -22 2 15 2 37 0 50 -2 12 -4 0 -4 -28z"/>
<path d="M8007 1184 c-15 -15 -6 -35 19 -44 30 -12 22 -34 -9 -24 -17 5 -19 3
-11 -6 16 -16 48 -9 52 13 2 11 -6 21 -24 27 -20 8 -24 14 -16 22 8 8 16 7 28
-3 15 -12 17 -12 12 1 -5 16 -39 25 -51 14z"/>
<path d="M8153 1145 c0 -27 2 -38 4 -22 2 15 2 37 0 50 -2 12 -4 0 -4 -28z"/>
<path d="M8202 1141 c1 -42 2 -43 5 -9 7 61 48 60 56 -2 4 -33 4 -33 5 8 1 23
-1 43 -5 44 -5 0 -20 2 -35 3 -27 2 -28 0 -26 -44z"/>
<path d="M8420 1144 c0 -24 5 -44 10 -44 6 0 10 16 10 35 0 19 5 35 10 35 19
0 10 16 -10 17 -17 2 -20 -4 -20 -43z"/>
<path d="M8502 1178 c-17 -17 -15 -53 3 -68 8 -7 25 -10 40 -6 43 11 30 86
-15 86 -9 0 -21 -5 -28 -12z m48 -13 c17 -20 8 -50 -14 -50 -27 0 -43 29 -27
49 17 20 25 20 41 1z"/>
<path d="M8612 1141 c1 -42 2 -43 5 -9 7 61 48 60 56 -2 4 -33 4 -33 5 8 1 23
-1 43 -5 44 -5 0 -20 2 -35 3 -27 2 -28 0 -26 -44z"/>
<path d="M8792 1178 c-16 -16 -15 -53 2 -68 19 -15 58 -9 64 10 5 13 3 13 -11
1 -18 -14 -47 -9 -47 9 0 5 14 10 30 10 23 0 30 5 30 19 0 29 -45 42 -68 19z
m42 -4 c27 -10 18 -24 -15 -24 -27 0 -30 2 -19 15 14 17 13 17 34 9z"/>
<path d="M8902 1141 c1 -42 2 -43 5 -9 7 61 48 60 56 -2 4 -33 4 -33 5 8 1 23
-1 43 -5 44 -5 0 -20 2 -35 3 -27 2 -28 0 -26 -44z"/>
<path d="M9186 1174 c-19 -18 -20 -28 -6 -55 12 -21 50 -25 68 -7 18 18 14 56
-7 68 -27 14 -37 13 -55 -6z m58 -19 c7 -20 -18 -49 -38 -42 -19 7 -22 53 -3
60 17 6 34 -2 41 -18z"/>
<path d="M9292 1140 c1 -37 2 -39 5 -12 3 18 11 36 19 39 21 8 17 19 -6 19
-17 0 -20 -6 -18 -46z"/>
<path d="M9410 1143 c0 -23 5 -43 10 -43 6 0 10 15 10 34 0 62 45 55 53 -7 4
-31 4 -31 5 4 3 62 47 61 55 -1 4 -34 4 -34 5 7 2 34 -2 43 -18 48 -12 4 -27
2 -35 -5 -8 -7 -15 -7 -19 -1 -4 5 -20 9 -36 9 -29 -1 -30 -3 -30 -45z"/>
<path d="M9596 1174 c-19 -18 -20 -28 -6 -55 12 -21 50 -25 68 -7 18 18 14 56
-7 68 -27 14 -37 13 -55 -6z m58 -19 c7 -20 -18 -49 -38 -42 -19 7 -22 53 -3
60 17 6 34 -2 41 -18z"/>
<path d="M9823 1145 c0 -27 2 -38 4 -22 2 15 2 37 0 50 -2 12 -4 0 -4 -28z"/>
<path d="M9922 1178 c-16 -16 -15 -53 2 -68 19 -15 58 -9 64 10 5 13 3 13 -11
1 -18 -14 -47 -9 -47 9 0 5 14 10 30 10 23 0 30 5 30 19 0 29 -45 42 -68 19z
m42 -4 c27 -10 18 -24 -15 -24 -27 0 -30 2 -19 15 14 17 13 17 34 9z"/>
<path d="M10202 1178 c-16 -16 -15 -53 2 -68 19 -15 58 -9 64 10 5 13 3 13
-11 1 -18 -14 -47 -9 -47 9 0 5 14 10 30 10 23 0 30 5 30 19 0 29 -45 42 -68
19z m42 -4 c27 -10 18 -24 -15 -24 -27 0 -30 2 -19 15 14 17 13 17 34 9z"/>
<path d="M10301 1184 c-2 -19 28 -84 38 -84 5 0 16 20 24 45 19 54 12 60 -9 8
l-16 -37 -18 40 c-10 21 -19 34 -19 28z"/>
<path d="M10412 1178 c-16 -16 -15 -53 2 -68 19 -15 58 -9 64 10 5 13 3 13
-11 1 -18 -14 -47 -9 -47 9 0 5 14 10 30 10 23 0 30 5 30 19 0 29 -45 42 -68
19z m42 -4 c27 -10 18 -24 -15 -24 -27 0 -30 2 -19 15 14 17 13 17 34 9z"/>
<path d="M10572 1178 c-17 -17 -15 -53 3 -68 8 -7 25 -10 40 -6 43 11 30 86
-15 86 -9 0 -21 -5 -28 -12z m48 -13 c17 -20 8 -50 -14 -50 -27 0 -43 29 -27
49 17 20 25 20 41 1z"/>
<path d="M10682 1120 c0 -36 3 -53 5 -39 3 21 9 26 24 22 25 -7 49 14 49 42 0
29 -18 44 -52 42 -28 -2 -28 -3 -26 -67z m62 37 c13 -21 -15 -53 -38 -44 -19
8 -21 38 -4 55 15 15 28 11 42 -11z"/>
<path d="M10802 1178 c-7 -7 -12 -21 -12 -33 0 -42 45 -60 71 -28 13 15 12 15
-7 3 -22 -14 -54 -8 -54 10 0 5 16 10 35 10 22 0 35 5 35 13 0 18 -21 37 -40
37 -9 0 -21 -5 -28 -12z m48 -13 c11 -13 8 -15 -20 -15 -28 0 -31 2 -20 15 7
8 16 15 20 15 4 0 13 -7 20 -15z"/>
<path d="M10900 1144 c0 -24 5 -44 10 -44 6 0 10 16 10 35 0 19 5 35 10 35 19
0 10 16 -10 17 -17 2 -20 -4 -20 -43z"/>
<path d="M11032 1178 c-16 -16 -15 -53 1 -66 7 -6 27 -10 45 -10 31 1 32 3 32
43 0 40 -1 42 -33 43 -19 1 -39 -4 -45 -10z m42 -4 c21 -8 21 -53 0 -61 -8 -3
-22 1 -31 9 -12 12 -13 20 -4 37 13 23 13 23 35 15z"/>
<path d="M11140 1144 c0 -24 5 -44 10 -44 6 0 10 15 10 34 0 62 45 55 53 -7 4
-32 4 -32 5 4 2 42 -11 57 -50 57 -26 0 -28 -3 -28 -44z"/>
<path d="M11615 1174 c-18 -18 -19 -28 -5 -55 8 -14 20 -18 45 -16 34 2 35 4
35 42 0 37 -2 40 -30 42 -16 1 -36 -5 -45 -13z m56 -15 c9 -17 8 -25 -4 -37
-9 -8 -23 -12 -31 -9 -19 8 -21 53 -3 60 21 9 26 7 38 -14z"/>
<path d="M7453 920 c0 -36 2 -49 4 -30 8 62 49 63 56 2 l4 -37 1 42 c2 34 -2
43 -18 48 -11 3 -24 4 -29 0 -5 -3 -12 5 -14 17 -2 13 -4 -6 -4 -42z"/>
<path d="M9532 963 c-4 -10 -5 -38 -1 -63 6 -42 6 -43 7 -9 1 19 7 40 14 47 9
9 9 12 -1 12 -11 0 -11 3 -1 15 8 10 9 15 2 15 -6 0 -15 -8 -20 -17z"/>
<path d="M10310 961 c0 -14 -5 -18 -20 -14 -26 7 -50 -13 -50 -42 0 -29 20
-46 54 -43 25 2 26 5 26 60 0 32 -2 58 -5 58 -3 0 -5 -9 -5 -19z m-10 -36 c17
-20 8 -50 -14 -50 -27 0 -43 29 -27 49 17 20 25 20 41 1z"/>
<path d="M10360 970 c0 -5 5 -10 10 -10 6 0 10 5 10 10 0 6 -4 10 -10 10 -5 0
-10 -4 -10 -10z"/>
<path d="M7903 915 c0 -33 2 -45 4 -27 2 18 2 45 0 60 -2 15 -4 0 -4 -33z"/>
<path d="M8869 961 c-3 -8 -2 -32 1 -55 4 -31 10 -41 25 -44 18 -2 18 -2 3 8
-10 6 -18 22 -18 35 0 13 8 29 18 34 15 9 15 10 0 11 -9 0 -18 6 -20 13 -4 9
-6 8 -9 -2z"/>
<path d="M9298 957 c-3 -7 -3 -31 0 -54 3 -32 8 -43 21 -42 10 0 11 2 4 6 -15
5 -18 70 -4 75 5 2 3 8 -4 15 -10 9 -14 9 -17 0z"/>
<path d="M10068 957 c-3 -7 -3 -31 0 -54 3 -32 8 -43 21 -42 10 0 11 2 4 6
-15 5 -18 70 -4 75 5 2 3 8 -4 15 -10 9 -14 9 -17 0z"/>
<path d="M7113 905 c0 -27 2 -38 4 -22 2 15 2 37 0 50 -2 12 -4 0 -4 -28z"/>
<path d="M7167 943 c-14 -14 -6 -34 18 -45 28 -13 23 -32 -8 -24 -14 3 -17 2
-10 -5 15 -15 47 -7 51 13 2 12 -5 19 -22 24 -27 6 -33 18 -16 29 6 4 17 1 25
-5 9 -7 15 -8 15 -2 0 16 -40 28 -53 15z"/>
<path d="M7300 939 c0 -23 21 -79 30 -79 4 0 12 15 17 33 10 33 13 31 29 -20
6 -22 22 -14 28 15 4 15 9 35 13 46 3 11 1 16 -5 12 -5 -3 -13 -20 -17 -38
l-7 -33 -10 38 c-12 45 -26 48 -34 7 -7 -32 -24 -41 -24 -12 0 9 -5 24 -10 32
-8 13 -10 13 -10 -1z"/>
<path d="M7566 934 c-19 -19 -20 -35 -3 -58 15 -21 58 -18 65 4 5 13 3 13 -11
1 -18 -14 -47 -9 -47 9 0 5 16 10 35 10 19 0 35 4 35 9 0 14 -30 41 -45 41 -7
0 -21 -7 -29 -16z m38 0 c25 -9 19 -24 -9 -24 -24 0 -32 10 -18 23 8 8 8 8 27
1z"/>
<path d="M7671 900 c2 -34 3 -37 6 -15 3 17 12 38 20 47 14 15 13 17 -6 15
-18 -1 -21 -7 -20 -47z"/>
<path d="M7746 934 c-19 -19 -20 -35 -3 -58 15 -21 58 -18 65 4 5 13 3 13 -11
1 -18 -14 -47 -9 -47 9 0 5 16 10 35 10 19 0 35 4 35 9 0 14 -30 41 -45 41 -7
0 -21 -7 -29 -16z m38 0 c25 -9 19 -24 -9 -24 -24 0 -32 10 -18 23 8 8 8 8 27
1z"/>
<path d="M8007 944 c-15 -15 -6 -35 19 -44 30 -12 22 -34 -9 -24 -17 5 -19 3
-11 -6 16 -16 48 -9 52 13 2 11 -6 21 -24 27 -20 8 -24 14 -16 22 8 8 16 7 28
-3 15 -12 17 -12 12 1 -5 16 -39 25 -51 14z"/>
<path d="M8090 883 c0 -35 4 -63 10 -63 6 0 10 11 10 24 0 19 4 23 20 19 26
-7 50 13 50 42 0 30 -19 44 -58 43 l-32 -1 0 -64z m71 36 c9 -17 8 -25 -4 -37
-9 -8 -23 -12 -31 -9 -19 8 -21 53 -3 60 21 9 26 7 38 -14z"/>
<path d="M8222 938 c-7 -7 -12 -21 -12 -33 0 -42 45 -60 71 -28 13 15 12 15
-7 3 -22 -14 -54 -8 -54 10 0 5 16 10 35 10 22 0 35 5 35 13 0 18 -21 37 -40
37 -9 0 -21 -5 -28 -12z m48 -13 c11 -13 8 -15 -20 -15 -28 0 -31 2 -20 15 7
8 16 15 20 15 4 0 13 -7 20 -15z"/>
<path d="M8322 900 c1 -35 2 -38 5 -13 5 37 28 62 44 46 6 -6 15 -26 19 -45
l8 -33 1 36 c1 42 -13 58 -51 56 -26 -2 -28 -5 -26 -47z"/>
<path d="M8492 901 c1 -41 2 -42 5 -11 8 62 52 63 55 1 1 -35 1 -35 5 -4 5 35
29 62 43 47 5 -5 11 -25 13 -44 3 -27 4 -25 3 10 l-1 45 -62 1 -63 0 2 -45z"/>
<path d="M8672 938 c-7 -7 -12 -25 -12 -40 0 -21 6 -29 25 -34 31 -8 55 10 55
40 0 26 -18 46 -40 46 -9 0 -21 -5 -28 -12z m52 -21 c8 -12 7 -21 -6 -33 -22
-22 -48 -11 -48 20 0 37 34 45 54 13z"/>
<path d="M8777 944 c-14 -15 -6 -35 18 -44 35 -13 33 -34 -2 -25 -21 5 -25 4
-17 -5 16 -16 48 -8 52 13 2 11 -6 21 -24 27 -20 8 -24 14 -16 22 8 8 16 7 28
-3 15 -12 17 -12 12 1 -5 16 -39 25 -51 14z"/>
<path d="M8991 880 c1 -36 4 -53 6 -39 3 22 8 25 33 21 24 -3 31 0 38 19 11
27 4 58 -12 61 -66 9 -66 9 -65 -62z m57 51 c20 -12 11 -56 -12 -56 -27 0 -43
29 -27 49 15 18 21 19 39 7z"/>
<path d="M9112 938 c-16 -16 -15 -53 1 -66 7 -6 27 -10 45 -10 31 1 32 3 32
43 0 40 -1 42 -33 43 -19 1 -39 -4 -45 -10z m42 -4 c21 -8 21 -53 0 -61 -8 -3
-22 1 -31 9 -12 12 -13 20 -4 37 13 23 13 23 35 15z"/>
<path d="M9232 900 c1 -40 2 -41 5 -11 3 19 12 41 21 47 15 12 15 13 -5 11
-21 -1 -23 -6 -21 -47z"/>
<path d="M9428 939 c-21 -12 -24 -49 -6 -67 18 -18 56 -14 68 7 14 27 13 37
-6 55 -18 18 -32 20 -56 5z m36 -5 c21 -8 21 -53 0 -61 -8 -3 -22 1 -31 9 -12
12 -13 20 -4 37 13 23 13 23 35 15z"/>
<path d="M9640 903 c0 -23 5 -43 10 -43 6 0 10 15 10 34 0 62 45 55 53 -7 4
-31 4 -31 5 4 3 62 47 61 55 -1 4 -34 4 -34 5 7 2 34 -2 43 -18 48 -12 4 -27
2 -35 -5 -8 -7 -15 -7 -19 -1 -4 5 -20 9 -36 9 -29 -1 -30 -3 -30 -45z"/>
<path d="M9810 947 c0 -4 7 -24 15 -45 9 -21 13 -48 10 -62 -10 -38 9 -12 34
48 12 30 20 56 17 60 -3 3 -11 -9 -17 -26 -11 -32 -29 -44 -29 -19 0 14 -29
57 -30 44z"/>
<path d="M9977 944 c-15 -15 -6 -35 19 -44 30 -12 22 -34 -9 -24 -17 5 -19 3
-11 -6 16 -16 48 -9 52 13 2 11 -6 21 -24 27 -20 8 -24 14 -16 22 8 8 16 7 28
-3 15 -12 17 -12 12 1 -5 16 -39 25 -51 14z"/>
<path d="M10133 910 c2 -45 2 -45 40 -47 l37 -1 0 44 c0 24 -4 44 -10 44 -5 0
-10 -16 -10 -35 0 -23 -6 -38 -15 -42 -21 -7 -27 0 -36 44 l-7 38 1 -45z"/>
<path d="M10360 905 c0 -25 5 -45 10 -45 6 0 10 20 10 45 0 25 -4 45 -10 45
-5 0 -10 -20 -10 -45z"/>
<path d="M10412 900 c1 -35 2 -38 5 -13 5 37 28 62 44 46 6 -6 15 -26 19 -45
l8 -33 1 36 c1 42 -13 58 -51 56 -26 -2 -28 -5 -26 -47z"/>
<path d="M10532 938 c-30 -30 -2 -86 38 -75 13 3 20 0 20 -9 0 -22 -30 -29
-54 -14 -19 12 -20 12 -7 -4 8 -10 25 -16 40 -14 24 3 26 7 29 63 3 60 3 61
-26 63 -15 1 -33 -3 -40 -10z m48 -13 c17 -20 8 -50 -14 -50 -27 0 -43 29 -27
49 17 20 25 20 41 1z"/>
</g>
</svg>
