<?xml version="1.0" standalone="no"?>
<!DOCTYPE svg PUBLIC "-//W3C//DTD SVG 20010904//EN"
 "http://www.w3.org/TR/2001/REC-SVG-20010904/DTD/svg10.dtd">
<svg version="1.0" xmlns="http://www.w3.org/2000/svg"
 width="1915.000000pt" height="964.000000pt" viewBox="0 0 1915.000000 964.000000"
 preserveAspectRatio="xMidYMid meet">

<g transform="translate(0.000000,964.000000) scale(0.100000,-0.100000)"
fill="#000000" stroke="none">
<path d="M0 4820 l0 -4820 9575 0 9575 0 0 4820 0 4820 -9575 0 -9575 0 0
-4820z m9850 2203 c0 -75 -3 -133 -6 -130 -4 4 -28 -9 -54 -28 -26 -19 -54
-35 -62 -35 -21 0 -41 44 -42 92 -1 42 -2 43 -36 46 -80 5 -81 6 -67 19 6 6
57 48 112 92 69 56 108 80 128 81 l27 0 0 -137z m-326 -94 c-10 -12 -18 -24
-17 -28 1 -3 -9 -7 -23 -8 -25 -2 -24 0 12 27 46 35 54 37 28 9z m682 -33 l39
-33 -30 -1 c-17 0 -41 -2 -55 -4 -20 -2 -26 2 -28 20 -3 22 13 52 28 52 3 0
24 -15 46 -34z m-338 -490 c-14 -17 -9 -28 11 -23 12 3 22 -1 25 -9 4 -10 -4
-14 -27 -14 -39 -1 -48 -6 -173 -100 -54 -42 -114 -86 -131 -99 l-33 -22 0 28
c0 25 14 39 105 106 58 42 109 77 114 77 5 0 11 -5 13 -12 7 -21 55 36 67 78
7 22 15 77 19 124 l7 85 6 -105 c3 -58 2 -109 -3 -114z m-91 105 c2 -43 -1
-50 -25 -62 -15 -7 -39 -21 -54 -31 -42 -29 -50 -24 -44 29 4 38 12 54 43 83
52 51 77 45 80 -19z m-628 -124 c14 -18 5 -26 -20 -20 -20 5 -24 15 -12 26 10
10 19 8 32 -6z m1453 -49 c114 -92 102 -72 117 -215 40 -397 39 -373 19 -384
-11 -6 -18 -21 -18 -38 0 -25 -14 -39 -99 -103 -55 -40 -132 -95 -172 -123
-39 -27 -128 -92 -197 -143 -70 -52 -146 -105 -169 -119 l-44 -25 -78 59 c-67
52 -79 58 -88 44 -8 -13 -16 -14 -38 -6 -40 14 -55 42 -32 59 9 7 17 17 18 22
0 12 113 107 141 119 13 5 92 59 176 120 306 220 371 271 384 303 15 40 10
153 -15 332 -15 105 -9 130 31 130 13 0 41 -15 64 -32z m-977 12 c4 -6 11 -8
16 -5 17 11 9 -35 -9 -52 -40 -40 -167 -137 -208 -160 -24 -14 -44 -31 -44
-39 0 -7 -13 -23 -30 -35 -29 -22 -31 -39 -4 -39 7 0 41 19 74 43 48 34 60 47
60 70 0 20 5 27 19 27 10 0 21 -7 25 -15 3 -10 -32 -43 -117 -108 -128 -99
-315 -237 -319 -237 -2 0 -2 29 0 64 3 61 6 66 43 95 36 29 39 36 39 81 0 40
4 50 20 55 11 3 20 11 20 16 0 12 37 49 50 49 6 0 10 -17 10 -38 0 -21 3 -41
6 -44 7 -7 104 52 104 63 0 4 36 33 80 64 57 40 80 62 80 77 0 25 27 58 47 58
7 0 13 5 13 10 0 13 17 13 25 0z m-609 -362 c-8 -48 -25 -75 -24 -37 1 45 10
79 20 79 7 0 8 -15 4 -42z m-36 -89 c0 -10 -4 -19 -10 -19 -5 0 -10 12 -10 26
0 14 4 23 10 19 6 -3 10 -15 10 -26z m33 -76 c-3 -21 -12 -44 -21 -50 -14 -12
-14 -13 2 -13 14 0 17 -5 12 -22 -3 -13 -6 -31 -6 -40 0 -26 -13 -22 -32 10
-14 23 -15 36 -7 71 12 56 26 81 44 81 10 0 12 -9 8 -37z m896 -790 c17 -21
31 -43 31 -49 0 -18 -54 -93 -79 -110 -22 -16 -24 -15 -48 8 -63 63 -38 186
39 187 19 1 35 -10 57 -36z m-620 -1034 c7 -16 12 -31 10 -33 -2 -1 -28 0 -56
2 -51 4 -53 5 -53 33 0 27 2 29 43 29 37 0 44 -3 56 -31z m-2 -121 c-3 -8 -6
-5 -6 6 -1 11 2 17 5 13 3 -3 4 -12 1 -19z m-1747 -313 c0 -10 -10 -15 -30
-15 -16 0 -30 -4 -30 -10 0 -5 14 -10 30 -10 20 0 30 -5 30 -15 0 -10 -10 -15
-30 -15 -20 0 -30 -5 -30 -15 0 -10 10 -15 29 -15 17 0 33 -4 36 -10 4 -6 -13
-10 -44 -10 l-51 0 0 65 0 65 45 0 c33 0 45 -4 45 -15z m245 6 c7 -12 -12 -24
-25 -16 -11 7 -4 25 10 25 5 0 11 -4 15 -9z m45 -56 c0 -51 -3 -65 -15 -65
-12 0 -15 14 -15 65 0 51 3 65 15 65 12 0 15 -14 15 -65z m45 56 c7 -12 -12
-24 -25 -16 -11 7 -4 25 10 25 5 0 11 -4 15 -9z m45 -11 c0 -15 7 -20 25 -20
33 0 52 -38 36 -69 -9 -16 -21 -21 -51 -21 l-40 0 0 65 c0 51 3 65 15 65 8 0
15 -9 15 -20z m180 5 c0 -8 -7 -15 -15 -15 -8 0 -15 7 -15 15 0 8 7 15 15 15
8 0 15 -7 15 -15z m353 -7 l4 -23 8 23 c9 27 25 29 25 3 0 -11 6 -22 13 -25 9
-5 9 -7 0 -12 -7 -3 -9 -12 -6 -20 3 -8 0 -14 -6 -14 -6 0 -11 -9 -11 -20 0
-28 -30 -25 -31 3 l-2 22 -4 -22 c-2 -13 -10 -23 -18 -23 -15 0 -28 53 -14 58
6 3 6 9 -1 17 -8 9 -6 14 5 19 8 3 15 12 15 21 0 23 18 18 23 -7z m147 8 c0
-8 -4 -18 -10 -21 -10 -6 8 -45 21 -45 3 0 14 18 24 40 12 26 25 40 37 40 18
0 18 -2 -2 -40 -11 -22 -16 -40 -10 -40 5 0 10 7 10 15 0 8 7 15 15 15 8 0 15
-6 15 -14 0 -8 6 -17 13 -20 10 -5 10 -7 0 -12 -7 -3 -13 -12 -13 -20 0 -8 -7
-14 -15 -14 -8 0 -15 7 -15 15 0 21 -66 21 -74 -1 -7 -17 -78 -17 -74 1 2 6
10 9 20 8 9 -1 22 4 29 13 10 13 9 16 -9 21 -25 6 -27 14 -10 31 9 9 7 12 -10
12 -13 0 -22 6 -22 15 0 11 11 15 40 15 28 0 40 -4 40 -14z m198 2 c18 -18 14
-49 -10 -75 l-21 -23 26 0 c15 0 27 -4 27 -10 0 -5 -22 -10 -50 -10 -27 0 -50
4 -50 8 0 5 14 21 30 37 37 35 40 60 6 51 -28 -7 -40 2 -25 21 14 16 51 17 67
1z m108 -13 c16 -24 15 -27 -10 -65 -26 -40 -67 -59 -47 -22 7 14 5 21 -10 30
-21 14 -25 52 -7 70 20 20 56 14 74 -13z m-1256 -80 c0 -51 -3 -65 -15 -65 -8
0 -15 9 -15 19 0 14 -8 21 -26 23 -37 4 -51 29 -36 62 10 22 18 26 52 26 l40
0 0 -65z m40 30 c0 -44 18 -46 22 -3 2 17 9 33 16 36 10 3 12 -7 10 -39 -3
-43 -4 -44 -38 -44 -34 0 -35 1 -38 43 -2 33 0 42 12 42 12 0 16 -10 16 -35z
m100 -10 c0 -33 -4 -45 -15 -45 -11 0 -15 12 -15 45 0 33 4 45 15 45 11 0 15
-12 15 -45z m90 0 c0 -33 -4 -45 -15 -45 -11 0 -15 12 -15 45 0 33 4 45 15 45
11 0 15 -12 15 -45z m220 -1 c0 -32 -4 -44 -15 -44 -10 0 -15 10 -15 34 0 29
-3 33 -20 29 -14 -4 -20 -14 -20 -34 0 -19 -5 -29 -15 -29 -11 0 -15 12 -15
45 l0 45 50 -1 50 -2 0 -43z m42 14 c2 -18 8 -33 13 -33 6 0 11 15 13 33 4 45
32 44 32 -2 0 -39 -19 -59 -52 -54 -25 3 -45 45 -35 72 10 27 26 18 29 -16z
m206 -15 c2 -34 0 -43 -12 -43 -11 0 -16 10 -16 30 0 17 -4 30 -10 30 -5 0
-10 -13 -10 -30 0 -20 -5 -30 -15 -30 -10 0 -15 10 -15 30 0 20 -5 30 -15 30
-10 0 -15 -10 -15 -30 0 -20 -5 -30 -15 -30 -11 0 -15 12 -15 45 l0 45 68 -3
67 -2 3 -42z m-790 -405 c19 -16 15 -72 -7 -92 -27 -25 -72 -17 -90 15 -36 65
38 124 97 77z m599 -75 c-2 -21 -4 -6 -4 32 0 39 2 55 4 38 2 -18 2 -50 0 -70z
m99 51 c24 9 54 -12 54 -38 0 -30 -20 -47 -54 -44 -25 2 -26 4 -25 68 1 36 4
52 6 37 3 -20 9 -27 19 -23z m674 -19 c0 -37 -4 -65 -10 -65 -6 0 -10 28 -10
65 0 37 4 65 10 65 6 0 10 -28 10 -65z m40 0 c0 -37 -4 -65 -10 -65 -6 0 -10
28 -10 65 0 37 4 65 10 65 6 0 10 -28 10 -65z m1386 19 c24 9 54 -12 54 -38 0
-30 -20 -47 -54 -44 -25 2 -26 4 -25 68 1 36 4 52 6 37 3 -20 9 -27 19 -23z
m191 -51 c-2 -21 -4 -6 -4 32 0 39 2 55 4 38 2 -18 2 -50 0 -70z m733 34 c0
-61 -1 -63 -26 -65 -34 -3 -54 14 -54 44 0 26 30 47 54 38 12 -5 16 0 16 20 0
14 2 26 5 26 3 0 5 -28 5 -63z m267 -34 c-2 -21 -4 -6 -4 32 0 39 2 55 4 38 2
-18 2 -50 0 -70z m-3694 80 c-25 -3 -33 -9 -33 -24 0 -14 8 -19 33 -21 l32 -1
-32 -4 c-25 -3 -33 -9 -33 -24 0 -14 7 -19 29 -19 17 0 33 -4 36 -10 4 -6 -12
-10 -39 -10 l-46 0 0 60 0 60 43 -2 c36 -1 38 -2 10 -5z m267 -3 c0 -5 -2 -10
-4 -10 -3 0 -8 5 -11 10 -3 6 -1 10 4 10 6 0 11 -4 11 -10z m80 0 c0 -5 -2
-10 -4 -10 -3 0 -8 5 -11 10 -3 6 -1 10 4 10 6 0 11 -4 11 -10z m220 6 c0 -3
-4 -8 -10 -11 -5 -3 -10 -1 -10 4 0 6 5 11 10 11 6 0 10 -2 10 -4z m797 -21
c6 -14 7 -25 2 -25 -5 0 -9 -16 -9 -35 0 -19 -4 -35 -10 -35 -5 0 -10 15 -10
34 0 19 -6 37 -12 40 -10 5 -10 7 0 12 6 3 12 12 12 20 0 22 14 16 27 -11z
m43 15 c0 -5 -2 -10 -4 -10 -3 0 -8 5 -11 10 -3 6 -1 10 4 10 6 0 11 -4 11
-10z m820 -4 c0 -8 6 -17 13 -20 10 -5 10 -7 0 -12 -7 -3 -13 -21 -13 -40 0
-19 -4 -34 -10 -34 -5 0 -10 16 -10 35 0 19 -4 35 -9 35 -5 0 -4 11 2 25 13
27 27 33 27 11z m-2450 -91 c10 0 17 14 21 40 4 32 7 36 14 21 13 -30 -7 -71
-35 -71 -28 0 -48 41 -35 71 7 15 10 11 14 -21 4 -26 11 -40 21 -40z m110 65
c0 -4 -9 -10 -19 -13 -13 -3 -21 -16 -24 -38 -3 -29 -4 -28 -5 11 -2 41 0 45
23 46 14 1 25 -2 25 -6z m248 -50 c2 -29 -2 -58 -7 -63 -8 -8 -11 -3 -11 15 0
21 -4 25 -20 21 -24 -6 -50 13 -50 38 0 27 27 48 58 45 25 -3 27 -7 30 -56z
m46 -9 c17 -14 33 3 39 44 3 19 4 13 3 -15 -1 -43 -2 -45 -31 -45 -29 0 -30 2
-31 45 -1 28 0 33 3 13 2 -17 10 -36 17 -42z m352 57 c4 -5 -2 -8 -14 -8 -18
0 -22 -6 -22 -35 0 -19 -4 -35 -10 -35 -5 0 -10 19 -10 43 0 39 2 43 24 42 13
0 28 -3 32 -7z m34 -39 c0 -21 -4 -39 -10 -39 -5 0 -10 21 -10 46 0 27 4 43
10 39 6 -3 10 -24 10 -46z m40 11 c0 -55 36 -46 43 10 4 33 4 33 5 -8 2 -31
-2 -44 -14 -49 -27 -10 -49 11 -52 52 -2 24 0 35 7 30 6 -3 11 -19 11 -35z
m136 28 c4 -4 13 -3 20 3 23 19 54 -7 54 -46 0 -19 -4 -35 -10 -35 -5 0 -10
16 -10 35 0 28 -4 35 -20 35 -16 0 -20 -7 -20 -35 0 -19 -4 -35 -10 -35 -5 0
-10 16 -10 36 0 49 -32 44 -41 -6 -6 -34 -6 -33 -8 10 -1 42 1 46 23 45 13 0
28 -3 32 -7z m189 3 c3 -5 -5 -11 -17 -13 -15 -2 -24 -11 -26 -25 -3 -22 6
-28 36 -24 6 1 12 -3 12 -9 0 -14 -43 -13 -58 2 -7 7 -12 20 -12 29 0 34 50
64 65 40z m86 -1 c12 -7 19 -21 19 -40 0 -23 -5 -31 -25 -36 -15 -4 -32 -1
-40 6 -20 17 -19 57 3 69 21 13 20 13 43 1z m180 0 c30 -17 24 -40 -12 -40
-20 0 -29 -4 -26 -12 2 -7 14 -12 26 -11 11 2 21 -2 21 -7 0 -14 -44 -12 -58
2 -18 18 -15 55 6 67 21 13 20 13 43 1z m99 0 c12 -8 9 -10 -13 -10 -15 0 -30
-7 -33 -15 -9 -22 15 -47 39 -39 13 4 17 2 13 -5 -9 -15 -39 -14 -54 1 -18 18
-15 55 6 67 21 13 24 13 42 1z m191 0 c12 -7 19 -21 19 -40 0 -23 -5 -31 -25
-36 -15 -4 -32 -1 -40 6 -20 17 -19 57 3 69 21 13 20 13 43 1z m107 -3 c6 -5
11 -25 11 -45 l-2 -37 -6 35 c-4 26 -11 35 -26 35 -15 0 -22 -9 -26 -35 -6
-34 -6 -34 -8 10 -1 41 1 46 22 45 12 0 28 -4 35 -8z m146 -3 c20 -19 20 -35
2 -59 -8 -12 -20 -16 -35 -12 -16 4 -21 1 -21 -14 0 -10 -4 -19 -10 -19 -5 0
-10 24 -10 54 0 49 2 55 23 59 12 2 25 5 29 6 4 0 14 -6 22 -15z m86 6 c0 -4
-9 -10 -19 -13 -13 -3 -21 -16 -24 -38 -3 -29 -4 -28 -5 11 -2 41 0 45 23 46
14 1 25 -2 25 -6z m85 -10 c37 -41 -24 -97 -63 -58 -17 17 -15 44 4 62 21 21
37 20 59 -4z m153 7 c14 -10 17 -77 2 -77 -5 0 -10 16 -10 35 0 28 -4 35 -20
35 -16 0 -20 -7 -21 -37 l-2 -38 -6 35 c-4 26 -11 35 -26 35 -15 0 -22 -9 -26
-35 -6 -34 -6 -34 -8 10 l-1 45 53 0 c28 -1 58 -4 65 -8z m93 3 c12 -7 19 -21
19 -40 0 -23 -5 -31 -25 -36 -15 -4 -32 -1 -40 6 -20 17 -19 57 3 69 21 13 20
13 43 1z m167 -2 c22 -22 13 -38 -19 -38 -20 0 -29 -4 -26 -12 2 -7 16 -12 31
-11 14 1 24 -2 21 -8 -9 -13 -49 -11 -63 3 -17 17 -15 44 4 62 19 19 36 20 52
4z m79 5 c15 -6 13 -9 -12 -14 l-30 -6 28 -11 c36 -15 33 -46 -6 -50 -15 -2
-27 1 -27 6 0 6 9 8 20 5 11 -3 20 0 20 5 0 6 -9 16 -20 22 -22 12 -27 36 -7
43 6 3 13 6 14 6 1 1 10 -2 20 -6z m253 -39 c0 -43 -8 -48 -57 -38 -18 3 -23
11 -23 34 0 32 20 48 57 46 20 -1 23 -6 23 -42z m148 -1 c3 -39 2 -40 -30 -41
-37 -1 -58 13 -58 39 0 27 27 48 58 45 24 -3 27 -8 30 -43z m93 26 c12 -19 11
-69 -1 -69 -5 0 -10 16 -10 35 0 28 -4 35 -20 35 -16 0 -20 -7 -20 -35 0 -19
-4 -35 -10 -35 -5 0 -10 20 -10 43 0 43 1 44 31 42 17 -1 35 -8 40 -16z m86
14 c15 -6 13 -8 -12 -13 -18 -3 -31 -12 -33 -24 -5 -23 16 -38 42 -30 12 4 16
2 12 -5 -13 -21 -56 -12 -68 14 -9 21 -8 28 7 45 20 22 25 23 52 13z m91 -5
c22 -22 13 -38 -19 -38 -20 0 -29 -4 -26 -12 2 -7 16 -12 31 -11 14 1 24 -2
21 -8 -9 -13 -49 -11 -63 3 -17 17 -15 44 4 62 19 19 36 20 52 4z m138 2 c10
0 14 -12 14 -38 0 -37 -1 -39 -35 -40 -29 -1 -38 3 -47 23 -9 21 -8 29 7 45
10 12 25 18 33 15 7 -3 20 -5 28 -5z m102 -2 c14 -14 16 -78 2 -78 -5 0 -10
16 -10 35 0 28 -4 35 -20 35 -16 0 -20 -7 -20 -35 0 -19 -4 -35 -10 -35 -5 0
-10 18 -10 39 0 33 4 40 23 44 12 2 24 5 28 6 3 0 10 -4 17 -11z m232 2 c12
-8 9 -10 -13 -10 -15 0 -30 -7 -33 -15 -9 -22 15 -47 39 -39 13 4 17 2 13 -5
-9 -15 -39 -14 -54 1 -18 18 -15 55 6 67 21 13 24 13 42 1z m110 -36 c0 -43
-8 -48 -57 -38 -18 3 -23 11 -23 34 0 32 20 48 57 46 20 -1 23 -6 23 -42z
m126 34 c4 -4 13 -3 20 3 23 19 54 -7 54 -46 0 -19 -4 -35 -10 -35 -5 0 -10
16 -10 35 0 28 -4 35 -20 35 -16 0 -20 -7 -20 -35 0 -19 -4 -35 -10 -35 -5 0
-10 16 -10 36 0 49 -32 44 -41 -6 -6 -34 -6 -33 -8 10 -1 42 1 46 23 45 13 0
28 -3 32 -7z m-3516 -38 c0 -22 -4 -40 -10 -40 -5 0 -10 18 -10 40 0 22 5 40
10 40 6 0 10 -18 10 -40z m80 0 c0 -22 -4 -40 -10 -40 -5 0 -10 18 -10 40 0
22 5 40 10 40 6 0 10 -18 10 -40z m1060 0 c0 -22 -4 -40 -10 -40 -5 0 -10 18
-10 40 0 22 5 40 10 40 6 0 10 -18 10 -40z m2490 -30 c0 -5 -4 -10 -10 -10 -5
0 -10 5 -10 10 0 6 5 10 10 10 6 0 10 -4 10 -10z m-4205 -365 l30 -56 -25 -19
c-31 -24 -41 -24 -79 -3 l-30 18 32 57 c17 32 34 58 37 58 3 0 19 -25 35 -55z
m3793 0 c24 -29 28 -65 10 -98 -18 -34 -39 -46 -81 -47 -92 0 -123 123 -42
169 31 17 87 5 113 -24z m-3626 -62 c22 -20 24 -85 4 -102 -25 -21 -69 -9 -84
22 -30 62 32 124 80 80z m158 7 c50 -27 27 -120 -30 -120 -48 0 -69 72 -33
112 18 20 36 23 63 8z m90 -30 c-11 -22 -16 -40 -10 -40 6 0 13 7 16 15 8 19
24 20 24 1 0 -8 6 -17 13 -20 10 -5 10 -7 0 -12 -7 -3 -13 -12 -13 -20 0 -8
-4 -14 -10 -14 -5 0 -10 7 -10 15 0 10 -10 15 -30 15 -16 0 -30 5 -30 10 0 23
41 90 55 90 13 0 12 -7 -5 -40z m100 -25 c0 -51 -3 -65 -15 -65 -11 0 -15 12
-15 50 0 28 -4 50 -10 50 -5 0 -10 7 -10 15 0 9 9 15 25 15 24 0 25 -2 25 -65z
m260 50 c0 -8 -9 -15 -20 -15 -17 0 -20 -7 -20 -50 0 -38 -4 -50 -15 -50 -11
0 -15 12 -15 50 l0 50 -50 0 c-27 0 -50 -4 -50 -10 0 -5 11 -10 25 -10 16 0
25 -6 25 -15 0 -9 -9 -15 -25 -15 -16 0 -25 -6 -25 -15 0 -10 10 -15 30 -15
17 0 30 -4 30 -10 0 -5 -20 -10 -45 -10 l-45 0 0 65 0 65 100 0 c82 0 100 -3
100 -15z m40 -10 c0 -20 5 -25 25 -25 20 0 25 5 25 25 0 16 6 25 15 25 12 0
15 -14 15 -65 0 -51 -3 -65 -15 -65 -9 0 -15 9 -15 25 0 20 -5 25 -25 25 -20
0 -25 -5 -25 -25 0 -16 -6 -25 -15 -25 -12 0 -15 13 -15 58 0 32 3 62 7 65 13
14 23 6 23 -18z m3290 -38 c0 -61 -1 -63 -26 -65 -34 -3 -54 14 -54 44 0 26
30 47 54 38 12 -5 16 0 16 20 0 14 2 26 5 26 3 0 5 -28 5 -63z m347 -34 c-2
-21 -4 -6 -4 32 0 39 2 55 4 38 2 -18 2 -50 0 -70z m183 87 c0 -5 -5 -9 -11
-7 -6 1 -14 -4 -16 -10 -3 -8 5 -13 21 -13 18 0 26 6 27 18 0 13 2 14 6 2 3
-8 11 -18 17 -22 8 -6 8 -10 -1 -16 -6 -4 -13 -23 -16 -42 l-4 -35 -1 38 c-2
32 -5 37 -27 37 -22 0 -25 -4 -25 -35 0 -19 -4 -35 -10 -35 -5 0 -10 16 -10
35 0 19 -5 35 -11 35 -6 0 -1 14 11 30 21 29 50 41 50 20z m-685 -24 c-14 -21
-14 -24 0 -29 20 -8 19 -53 -1 -61 -25 -10 -52 -7 -60 5 -5 8 1 10 18 6 17 -5
30 -2 38 8 14 16 5 35 -16 35 -16 0 -19 16 -4 25 17 10 11 23 -12 28 -14 3 -8
5 15 6 37 1 37 1 22 -23z m-4010 -22 c22 -14 26 -14 47 0 36 26 40 19 12 -24
-15 -22 -30 -40 -34 -40 -4 0 -19 18 -34 40 -29 44 -27 48 9 24z m4261 6 c10
0 14 -12 14 -38 0 -37 -1 -39 -35 -40 -29 -1 -38 3 -47 23 -9 21 -8 29 7 45
10 12 25 18 33 15 7 -3 20 -5 28 -5z m83 -26 c7 16 14 26 17 23 3 -3 -6 -31
-20 -63 -15 -31 -29 -54 -32 -51 -3 3 -1 14 4 24 7 13 6 28 -4 52 -20 48 -16
62 6 21 l18 -35 11 29z m88 29 c15 -6 13 -9 -12 -14 l-30 -6 28 -11 c19 -8 27
-18 25 -29 -4 -22 -36 -29 -52 -13 -8 9 -6 11 11 6 31 -10 37 9 8 22 -27 12
-33 37 -12 45 6 3 13 6 14 6 1 1 10 -2 20 -6z m171 -5 c22 -22 13 -38 -19 -38
-20 0 -29 -4 -26 -12 2 -7 16 -12 31 -11 14 1 24 -2 21 -8 -9 -13 -49 -11 -63
3 -17 17 -15 44 4 62 19 19 36 20 52 4z m-4313 -59 c10 -15 -1 -23 -20 -15 -9
3 -13 10 -10 16 8 13 22 13 30 -1z m43 -846 c157 -97 161 -325 6 -423 -119
-75 -273 -38 -349 84 -26 44 -30 58 -30 125 0 65 4 83 28 123 52 89 132 131
235 124 47 -3 75 -11 110 -33z m1368 -168 c18 -14 17 -14 -13 -9 -39 8 -63 -8
-63 -41 0 -33 32 -57 66 -50 22 5 25 4 14 -4 -36 -26 -84 -5 -95 41 -5 21 -1
33 19 52 29 30 44 32 72 11z m804 4 c0 -5 -4 -8 -9 -4 -19 11 -23 -17 -5 -30
18 -13 18 -14 2 -15 -14 0 -18 -8 -18 -35 0 -19 -4 -35 -10 -35 -5 0 -10 16
-10 35 0 19 -5 35 -10 35 -6 0 -1 14 12 30 21 30 48 40 48 19z m128 -30 c2
-19 -2 -48 -8 -63 -8 -23 -15 -27 -42 -24 -34 3 -42 23 -10 23 13 0 18 10 20
40 1 22 5 46 7 53 9 25 30 6 33 -29z m142 5 c0 -32 1 -34 16 -20 20 20 63 21
71 1 5 -14 7 -14 23 0 19 17 69 17 60 0 -3 -5 -12 -9 -20 -8 -9 1 -6 -5 8 -16
33 -24 20 -53 -22 -49 -17 2 -30 8 -28 13 2 6 13 9 25 7 21 -3 20 -2 -3 11
-25 14 -45 7 -45 -16 0 -20 -57 -21 -72 -1 -12 16 -13 16 -13 1 0 -9 -7 -17
-15 -17 -12 0 -15 14 -15 65 0 51 3 65 15 65 11 0 15 -11 15 -36z m256 1 c7
-40 19 -38 27 5 9 42 34 39 43 -5 7 -40 19 -38 27 5 4 19 13 30 23 30 11 0 15
-6 11 -20 -3 -13 0 -20 9 -20 7 0 19 -10 25 -22 l12 -22 8 22 c11 30 54 30 70
0 l12 -22 8 22 c5 12 16 22 25 22 8 0 14 -3 12 -7 -2 -5 -10 -25 -18 -45 -8
-21 -20 -38 -28 -38 -7 0 -20 17 -29 38 l-16 37 -26 -57 c-28 -65 -55 -79 -47
-25 3 17 0 45 -8 62 -14 31 -14 32 -35 -27 -15 -39 -36 -35 -47 10 l-10 37
-10 -35 c-16 -54 -37 -49 -57 13 -21 66 -21 77 -2 77 8 0 17 -14 21 -35z
m-989 0 c6 -14 7 -25 2 -25 -5 0 -9 -16 -9 -35 0 -19 -4 -35 -10 -35 -5 0 -10
15 -10 34 0 19 -6 37 -12 40 -10 5 -10 7 0 12 6 3 12 12 12 20 0 22 14 16 27
-11z m43 15 c0 -5 -2 -10 -4 -10 -3 0 -8 5 -11 10 -3 6 -1 10 4 10 6 0 11 -4
11 -10z m-300 -30 c0 -4 -9 -10 -19 -13 -13 -3 -21 -16 -24 -38 -3 -29 -4 -28
-5 11 -2 41 0 45 23 46 14 1 25 -2 25 -6z m78 -2 c21 -21 13 -38 -18 -38 -16
0 -30 -4 -30 -9 0 -13 27 -21 47 -14 11 4 14 3 9 -5 -13 -22 -56 -14 -68 13
-9 21 -8 28 7 45 21 23 36 25 53 8z m120 -35 c3 -39 2 -40 -30 -41 -37 -1 -58
13 -58 39 0 27 27 48 58 45 24 -3 27 -8 30 -43z m99 -20 c-2 -16 -4 -5 -4 22
0 28 2 40 4 28 2 -13 2 -35 0 -50z m98 47 c37 -41 -24 -97 -63 -58 -17 17 -15
44 4 62 21 21 37 20 59 -4z m93 7 c6 -5 11 -25 11 -45 l-2 -37 -6 35 c-4 26
-11 35 -26 35 -15 0 -22 -9 -26 -35 -6 -34 -6 -34 -8 10 -1 41 1 46 22 45 12
0 28 -4 35 -8z m133 3 c12 -7 19 -21 19 -40 0 -23 -5 -31 -25 -36 -15 -4 -32
-1 -40 6 -20 17 -19 57 3 69 21 13 20 13 43 1z m267 -28 c4 -43 22 -41 22 3 0
25 4 35 16 35 12 0 14 -9 12 -42 -3 -42 -4 -43 -38 -43 -34 0 -35 1 -38 44 -2
32 0 42 10 39 7 -3 14 -19 16 -36z m750 26 c14 -14 16 -48 2 -48 -5 0 -7 -7
-4 -15 5 -11 -1 -15 -23 -15 -34 0 -53 16 -53 45 0 27 18 45 45 45 12 0 26 -5
33 -12z m180 -35 c2 -34 0 -43 -12 -43 -11 0 -16 10 -16 30 0 17 -4 30 -10 30
-5 0 -10 -13 -10 -30 0 -20 -5 -30 -15 -30 -11 0 -15 11 -15 36 0 29 -3 35
-16 30 -9 -3 -20 -6 -25 -6 -5 0 -9 -13 -9 -30 0 -20 -5 -30 -15 -30 -11 0
-15 12 -15 45 l0 45 78 -3 77 -2 3 -42z"/>
<path d="M7922 3493 c2 -10 10 -18 18 -18 22 0 18 29 -3 33 -14 3 -18 -1 -15
-15z"/>
<path d="M8850 3536 c0 -8 4 -17 9 -20 11 -7 33 18 24 27 -12 12 -33 7 -33 -7z"/>
<path d="M7582 3493 c2 -10 10 -18 18 -18 8 0 16 8 18 18 2 12 -3 17 -18 17
-15 0 -20 -5 -18 -17z"/>
<path d="M7482 3078 c-20 -20 -15 -66 9 -78 26 -14 69 11 69 40 0 39 -51 65
-78 38z"/>
<path d="M8243 3034 c-3 -8 2 -23 11 -32 14 -15 18 -15 31 -1 9 9 13 23 9 32
-8 21 -43 22 -51 1z"/>
<path d="M10343 3034 c-3 -8 2 -23 11 -32 14 -15 18 -15 31 -1 9 9 13 23 9 32
-8 21 -43 22 -51 1z"/>
<path d="M11213 3034 c-3 -8 2 -23 11 -32 15 -15 17 -15 32 0 21 21 11 48 -16
48 -11 0 -23 -7 -27 -16z"/>
<path d="M7927 3044 c-10 -10 -9 -42 2 -48 18 -11 42 6 39 28 -3 21 -28 33
-41 20z"/>
<path d="M8823 3034 c-3 -8 2 -23 11 -32 15 -15 17 -15 32 0 21 21 11 48 -16
48 -11 0 -23 -7 -27 -16z"/>
<path d="M9005 3040 c-4 -6 7 -10 25 -10 18 0 29 4 25 10 -3 6 -15 10 -25 10
-10 0 -22 -4 -25 -10z"/>
<path d="M9293 3034 c-3 -8 2 -23 11 -32 15 -15 17 -15 32 0 21 21 11 48 -16
48 -11 0 -23 -7 -27 -16z"/>
<path d="M9547 3044 c-10 -10 -9 -42 2 -48 18 -11 42 6 39 28 -3 21 -28 33
-41 20z"/>
<path d="M9717 3044 c-12 -12 -8 -42 6 -47 21 -8 39 8 35 29 -3 19 -29 30 -41
18z"/>
<path d="M9963 3034 c-3 -8 2 -23 11 -32 15 -15 17 -15 32 0 21 21 11 48 -16
48 -11 0 -23 -7 -27 -16z"/>
<path d="M10130 3040 c0 -5 12 -10 26 -10 14 0 23 4 19 10 -3 6 -15 10 -26 10
-10 0 -19 -4 -19 -10z"/>
<path d="M10443 3034 c-3 -8 2 -23 11 -32 15 -15 17 -15 32 0 21 21 11 48 -16
48 -11 0 -23 -7 -27 -16z"/>
<path d="M10597 3044 c-10 -10 -9 -42 2 -48 18 -11 42 6 39 28 -3 21 -28 33
-41 20z"/>
<path d="M10880 3040 c0 -5 12 -10 26 -10 14 0 23 4 19 10 -3 6 -15 10 -26 10
-10 0 -19 -4 -19 -10z"/>
<path d="M11017 3043 c-13 -12 -7 -41 9 -47 22 -9 34 1 34 30 0 17 -6 24 -18
24 -10 0 -22 -3 -25 -7z"/>
<path d="M11443 3034 c-3 -8 2 -23 11 -32 15 -15 17 -15 32 0 21 21 11 48 -16
48 -11 0 -23 -7 -27 -16z"/>
<path d="M11260 2591 c0 -28 3 -31 31 -31 17 0 28 4 24 10 -3 6 -13 10 -21 10
-8 0 -14 6 -14 14 0 8 -4 18 -10 21 -6 4 -10 -7 -10 -24z"/>
<path d="M7654 2525 c-6 -25 9 -55 28 -55 12 0 26 41 20 62 -7 27 -41 22 -48
-7z"/>
<path d="M7820 2516 c0 -40 14 -53 36 -35 23 19 14 63 -13 67 -20 3 -23 -1
-23 -32z"/>
<path d="M11583 2504 c-3 -8 2 -23 11 -32 15 -15 17 -15 32 0 21 21 11 48 -16
48 -11 0 -23 -7 -27 -16z"/>
<path d="M11697 2513 c-13 -12 -7 -41 9 -47 22 -9 34 1 34 30 0 17 -6 24 -18
24 -10 0 -22 -3 -25 -7z"/>
<path d="M12040 2510 c0 -5 12 -10 26 -10 14 0 23 4 19 10 -3 6 -15 10 -26 10
-10 0 -19 -4 -19 -10z"/>
<path d="M7605 1634 c-85 -31 -155 -132 -155 -224 0 -125 114 -240 239 -240
27 0 32 4 37 29 3 16 16 34 28 39 11 6 15 11 9 11 -7 1 -13 7 -13 15 0 22 78
18 94 -5 12 -18 14 -18 34 4 12 12 28 42 37 66 67 191 -120 375 -310 305z
m125 -105 c0 -7 11 -8 30 -4 20 4 30 3 30 -5 0 -6 5 -8 11 -5 12 8 2 -130 -13
-157 -10 -20 -51 -34 -67 -23 -14 8 -14 45 0 45 5 0 7 5 4 10 -4 6 5 10 20 10
14 0 24 4 21 8 -3 5 -19 7 -37 4 -26 -4 -30 -2 -27 14 2 11 15 21 33 25 31 7
25 12 -10 10 -18 -2 -20 3 -17 39 2 22 8 40 13 40 5 0 9 -5 9 -11z"/>
<path d="M10300 1400 c0 -5 7 -10 16 -10 8 0 12 5 9 10 -3 6 -10 10 -16 10 -5
0 -9 -4 -9 -10z"/>
<path d="M10308 1363 c7 -3 16 -2 19 1 4 3 -2 6 -13 5 -11 0 -14 -3 -6 -6z"/>
<path d="M9305 1400 c-4 -6 5 -10 20 -10 15 0 24 4 20 10 -3 6 -12 10 -20 10
-8 0 -17 -4 -20 -10z"/>
<path d="M9407 1404 c-10 -10 -9 -42 2 -48 18 -11 42 6 39 28 -3 21 -28 33
-41 20z"/>
<path d="M9617 1404 c-12 -12 -8 -42 6 -47 21 -8 39 8 35 29 -3 19 -29 30 -41
18z"/>
<path d="M9843 1394 c-3 -8 2 -23 11 -32 15 -15 17 -15 32 0 21 21 11 48 -16
48 -11 0 -23 -7 -27 -16z"/>
<path d="M10865 1400 c-3 -5 1 -10 10 -10 9 0 13 5 10 10 -3 6 -8 10 -10 10
-2 0 -7 -4 -10 -10z"/>
<path d="M10868 1363 c7 -3 16 -2 19 1 4 3 -2 6 -13 5 -11 0 -14 -3 -6 -6z"/>
</g>
</svg>
