<svg id="SvgjsSvg1023" width="288" height="288" xmlns="http://www.w3.org/2000/svg" version="1.1" xmlns:xlink="http://www.w3.org/1999/xlink" xmlns:svgjs="http://svgjs.com/svgjs"><circle id="SvgjsCircle1034" r="144" cx="144" cy="144" fill="#252a2e" transform="matrix(0.916700005531311,0,0,0.916700005531311,11.995199203491211,11.995199203491211)"></circle><defs id="SvgjsDefs1024"></defs><g id="SvgjsG1025" transform="matrix(0.4652000069618225,0,0,0.4652000069618225,77.01119995117188,77.01119995117188)"><svg xmlns="http://www.w3.org/2000/svg" enable-background="new 0 0 64 64" viewBox="0 0 64 64" width="288" height="288"><rect width="7.5" height="22.57" x="28.25" y="41.43" fill="#1cb698" class="colore9e8e8 svgShape"></rect><rect width="7.5" height="1.39" x="28.25" y="41.43" fill="#e2e2e2" class="colore2e2e2 svgShape"></rect><polygon fill="#f16768" points="40.68 0 23.32 0 11.05 12.27 11.05 29.63 23.32 41.9 40.68 41.9 52.95 29.63 52.95 12.27" class="colorf16768 svgShape"></polygon><polygon fill="#f4f2f2" points="49.23 13.81 49.23 28.09 39.13 38.18 24.87 38.18 14.77 28.09 14.77 13.81 19.7 8.89 24.87 3.72 39.13 3.72" class="colorf4f2f2 svgShape"></polygon><path fill="#7ca2c1" d="M33.01,10.71l-0.95-0.59l-2.13,1.74l0.39,1.05c0,0-3.45,3.67-3.71,6.82c0,0,2.41-3.2,4.98-4.9l1.42,0.24
				l1.59-1.31l0.04-1.44c2.17-2.19,5.78-3.92,5.78-3.92C37.29,8.05,33.01,10.71,33.01,10.71z" class="color7ca2c1 svgShape"></path><path fill="#7ca2c1" d="M44.76,25.98L34.6,13.76l-1.59,1.31L43,27.43c0.18,0.23,0.52,0.26,0.74,0.08l0.95-0.78
				C44.92,26.54,44.95,26.21,44.76,25.98z" class="color7ca2c1 svgShape"></path><polygon fill="#355471" points="32.06 38.18 24.87 38.18 14.77 28.09 14.77 13.81 19.7 8.89 23.01 13.34 21.04 16.41 26.33 22.25 24.23 25.66 29.37 31.08 27.56 33.73" class="color355471 svgShape"></polygon></svg></g></svg>