<svg xmlns="http://www.w3.org/2000/svg" version="1.1" xmlns:xlink="http://www.w3.org/1999/xlink" xmlns:svgjs="http://svgjs.com/svgjs" width="512" height="512" x="0" y="0" viewBox="0 0 74 74" style="enable-background:new 0 0 512 512" xml:space="preserve" class=""><g><g xmlns="http://www.w3.org/2000/svg" id="Numbers"><text fill="rgb(0,0,0)" font-family="ArialMT, Arial" font-size="18" transform="translate(37.995 -18.544)" svgjs:data="{&quot;leading&quot;:&quot;1.3&quot;}">4<tspan x="-5.005" y="124" svgjs:data="{&quot;leading&quot;:&quot;1.3&quot;}">14</tspan><tspan x="-5.005" y="248" svgjs:data="{&quot;leading&quot;:&quot;1.3&quot;}">24</tspan><tspan x="-5.005" y="372" svgjs:data="{&quot;leading&quot;:&quot;1.3&quot;}">34</tspan><tspan x="-5.005" y="496" svgjs:data="{&quot;leading&quot;:&quot;1.3&quot;}">44</tspan><tspan x="-5.005" y="620" svgjs:data="{&quot;leading&quot;:&quot;1.3&quot;}">54</tspan><tspan x="-5.005" y="744" svgjs:data="{&quot;leading&quot;:&quot;1.3&quot;}">64</tspan><tspan x="-5.005" y="868" svgjs:data="{&quot;leading&quot;:&quot;1.3&quot;}">74</tspan><tspan x="-5.005" y="992" svgjs:data="{&quot;leading&quot;:&quot;1.3&quot;}">84</tspan><tspan x="-5.005" y="1116" svgjs:data="{&quot;leading&quot;:&quot;1.3&quot;}">94</tspan><tspan x="-10.011" y="1240" svgjs:data="{&quot;leading&quot;:&quot;1.3&quot;}">104</tspan><tspan letter-spacing="-.074em" x="-9.343" y="1364" svgjs:data="{&quot;leading&quot;:&quot;1.3&quot;}">1</tspan><tspan x="-.668" y="1364" svgjs:data="{&quot;leading&quot;:&quot;1.3&quot;}">14</tspan><tspan x="-10.011" y="1488" svgjs:data="{&quot;leading&quot;:&quot;1.3&quot;}">124</tspan><tspan x="-10.011" y="1612" svgjs:data="{&quot;leading&quot;:&quot;1.3&quot;}">134</tspan><tspan x="-10.011" y="1736" svgjs:data="{&quot;leading&quot;:&quot;1.3&quot;}">144</tspan><tspan x="-10.011" y="1860" svgjs:data="{&quot;leading&quot;:&quot;1.3&quot;}">154</tspan><tspan x="-10.011" y="1984" svgjs:data="{&quot;leading&quot;:&quot;1.3&quot;}">164</tspan><tspan x="-10.011" y="2108" svgjs:data="{&quot;leading&quot;:&quot;1.3&quot;}">174</tspan><tspan x="-10.011" y="2232" svgjs:data="{&quot;leading&quot;:&quot;1.3&quot;}">184</tspan><tspan x="-10.011" y="2356" svgjs:data="{&quot;leading&quot;:&quot;1.3&quot;}">194</tspan><tspan x="-10.011" y="2480" svgjs:data="{&quot;leading&quot;:&quot;1.3&quot;}">204</tspan><tspan x="-10.011" y="2604" svgjs:data="{&quot;leading&quot;:&quot;1.3&quot;}">214</tspan><tspan x="-10.011" y="2728" svgjs:data="{&quot;leading&quot;:&quot;1.3&quot;}">224</tspan><tspan x="-10.011" y="2852" svgjs:data="{&quot;leading&quot;:&quot;1.3&quot;}">234</tspan><tspan x="-10.011" y="2976" svgjs:data="{&quot;leading&quot;:&quot;1.3&quot;}">244</tspan><tspan x="-10.011" y="3100" svgjs:data="{&quot;leading&quot;:&quot;1.3&quot;}">254</tspan><tspan x="-10.011" y="3224" svgjs:data="{&quot;leading&quot;:&quot;1.3&quot;}">264</tspan><tspan x="-10.011" y="3348" svgjs:data="{&quot;leading&quot;:&quot;1.3&quot;}">274</tspan><tspan x="-10.011" y="3472" svgjs:data="{&quot;leading&quot;:&quot;1.3&quot;}">284</tspan><tspan x="-10.011" y="3596" svgjs:data="{&quot;leading&quot;:&quot;1.3&quot;}">294</tspan></text></g><g xmlns="http://www.w3.org/2000/svg" id="Icons"><path d="m51 70h-44a5.006 5.006 0 0 1 -5-5v-30a5.006 5.006 0 0 1 5-5h44a5.006 5.006 0 0 1 5 5v30a5.006 5.006 0 0 1 -5 5zm-44-38a3 3 0 0 0 -3 3v30a3 3 0 0 0 3 3h44a3 3 0 0 0 3-3v-30a3 3 0 0 0 -3-3z" fill="#ffffff" data-original="#000000" style="" class=""></path><path d="m61 61h-6a1 1 0 0 1 -1-1v-20a1 1 0 0 1 1-1h6a1 1 0 0 1 1 1v20a1 1 0 0 1 -1 1zm-5-2h4v-18h-4z" fill="#ffffff" data-original="#000000" style="" class=""></path><path d="m71 69a1 1 0 0 1 -.625-.219l-10-8a1 1 0 0 1 -.375-.781v-20a1 1 0 0 1 .375-.781l10-8a1 1 0 0 1 1.625.781v36a1 1 0 0 1 -1 1zm-9-9.48 8 6.4v-31.839l-8 6.4z" fill="#ffffff" data-original="#000000" style="" class=""></path><path d="m42 32a14 14 0 1 1 14-14 14.016 14.016 0 0 1 -14 14zm0-26a12 12 0 1 0 12 12 12.014 12.014 0 0 0 -12-12z" fill="#ffffff" data-original="#000000" style="" class=""></path><path d="m42 26a8 8 0 1 1 8-8 8.009 8.009 0 0 1 -8 8zm0-14a6 6 0 1 0 6 6 6.007 6.007 0 0 0 -6-6z" fill="#ffffff" data-original="#000000" style="" class=""></path><path d="m14 32a12 12 0 1 1 12-12 12.014 12.014 0 0 1 -12 12zm0-22a10 10 0 1 0 10 10 10.011 10.011 0 0 0 -10-10z" fill="#ffffff" data-original="#000000" style="" class=""></path><path d="m14 26a6 6 0 1 1 6-6 6.007 6.007 0 0 1 -6 6zm0-10a4 4 0 1 0 4 4 4 4 0 0 0 -4-4z" fill="#ffffff" data-original="#000000" style="" class=""></path><path d="m11.856 6.168h28.288v2h-28.288z" transform="matrix(.99 -.143 .143 .99 -.756 3.78)" fill="#ffffff" data-original="#000000" style="" class=""></path><path d="m29 60h-26a1 1 0 0 1 -1-1v-18a1 1 0 0 1 1-1h26a1 1 0 0 1 1 1v18a1 1 0 0 1 -1 1zm-25-2h24v-16h-24z" fill="#ffffff" data-original="#000000" style="" class=""></path></g></g></svg>