<svg version="1.2" xmlns="http://www.w3.org/2000/svg" viewBox="0 0 204 204" width="204" height="204">
	<title>porcentual-skills-svg</title>
	<defs>
		<linearGradient id="g1" x1="-12.4" y1="91.2" x2="228.1" y2="92.1" gradientUnits="userSpaceOnUse">
			<stop offset="0" stop-color="#aa367c"/>
			<stop offset="1" stop-color="#4a2fbd"/>
		</linearGradient>
	</defs>
	<style>
		tspan { white-space:pre }
		.s0 { fill: url(#g1) }
		.t1 { fill: #ffffff;font-weight: 800;font-family: Centra,sans-serif; text-align: center;font-size: 35px; }
	</style>
	<path id="Layer" class="s0" d="m187.6 69.9c5.5-2 11.6 0.7 13.1 6.3 5.5 21.3 4.1 43.9-4.3 64.3-9.7 23.8-28 43-51.2 53.9-23.3 10.9-49.8 12.6-74.2 4.8-24.5-7.8-45.1-24.6-57.7-46.9-12.7-22.3-16.5-48.6-10.6-73.6 5.9-25 20.9-46.8 42.2-61.2 21.3-14.4 47.2-20.2 72.5-16.3 21.9 3.3 42 13.7 57.4 29.3 4.1 4.2 3.3 10.9-1.3 14.5-4.5 3.6-11.1 2.8-15.3-1.2-12-11.6-27.3-19.2-44-21.8-20.1-3.1-40.6 1.6-57.5 13-16.9 11.4-28.8 28.7-33.5 48.5-4.6 19.8-1.6 40.7 8.4 58.4 10 17.7 26.4 31 45.8 37.2 19.4 6.2 40.4 4.8 58.9-3.8 18.4-8.6 32.9-23.9 40.6-42.7 6.4-15.6 7.7-32.7 3.9-48.9-1.3-5.7 1.4-11.8 6.8-13.8z"/>
	<text id="80%" style="transform: matrix(1,0,0,1,68,112)" >
		<tspan x="0" y="0" class="t1">8</tspan><tspan  y="0" class="t1">0</tspan><tspan  y="0" class="t1">%
</tspan>
	</text>
</svg>
