<svg xmlns="http://www.w3.org/2000/svg" viewBox="0 0 30 30"><g fill="#36e3ba" transform="matrix(3.77953 0 0 3.77953 -1020.91 -207.059)"><path d="m 274.08444,55.578091 a 3.175,3.175 0 1 0 3.175,3.175 3.175,3.175 0 0 0 -3.175,-3.175 z"/><path fill="#1dc3a0" d="M274.61354 60.472891h-.5291a.26458333.26458333 0 0 1-.2646-.2646v-1.5875a.2646.2646 0 0 1 0-.5292h.2646a.26458333.26458333 0 0 1 .2646.2646v1.5875h.2645a.2646.2646 0 0 1 0 .5292zM273.95214 56.900991a.396875.396875 0 1 1-.3969.3969.396875.396875 0 0 1 .3969-.3969z"/></g></svg>