<svg id="SvgjsSvg1001" width="288" height="288" xmlns="http://www.w3.org/2000/svg" version="1.1" xmlns:xlink="http://www.w3.org/1999/xlink" xmlns:svgjs="http://svgjs.com/svgjs"><defs id="SvgjsDefs1002"></defs><g id="SvgjsG1008" transform="matrix(0.916700005531311,0,0,0.916700005531311,11.995524406433105,11.995199203491211)"><svg xmlns="http://www.w3.org/2000/svg" viewBox="0 0 32 32" width="288" height="288"><rect width="30" height="22" x="1" y="5" fill="#1cb698" rx="3" ry="3" class="coloreef5fd svgShape"></rect><path fill="#d7f2ed" d="M31,8V24a2.85,2.85,0,0,1-.29,1.27,2.74,2.74,0,0,1-.46.7,2,2,0,0,1-.25.26l-.09.08-.29.21a2,2,0,0,1-.32.18,2.05,2.05,0,0,1-.49.18,1.37,1.37,0,0,1-.29.07.76.76,0,0,1-.21,0L28,27H16V5H28l.31,0,.21,0a1.37,1.37,0,0,1,.29.07,2.05,2.05,0,0,1,.49.18,3.3,3.3,0,0,1,.32.18,2.78,2.78,0,0,1,.34.26,1.33,1.33,0,0,1,.29.29,2.55,2.55,0,0,1,.46.71A2.81,2.81,0,0,1,31,8Z" class="colord7e2f2 svgShape"></path><path fill="#61ffe0" d="M30.71,25.27,16.77,10.33a1.1,1.1,0,0,0-1.54,0L1.29,25.27A3,3,0,0,0,4,27H28A3,3,0,0,0,30.71,25.27Z" class="colorffc661 svgShape"></path><path fill="#4ee4c7" d="M30.71,25.27a2.92,2.92,0,0,1-.46.7,3.07,3.07,0,0,1-.25.26l-.09.08-.29.21a2,2,0,0,1-.32.18,2.05,2.05,0,0,1-.49.18,1.37,1.37,0,0,1-.29.07.76.76,0,0,1-.21,0L28,27H16V10a1.06,1.06,0,0,1,.77.31l3.56,3.82Z" class="colore49f4e svgShape"></path><path fill="#97ffeb" d="M28,5H4A3,3,0,0,0,1.29,6.74L15.38,16.8a1.06,1.06,0,0,0,1.24,0L30.71,6.74A3,3,0,0,0,28,5Z" class="colorff9797 svgShape"></path><path fill="#79e4cf" d="M30.71,6.74,20.33,14.15,16.62,16.8A1.07,1.07,0,0,1,16,17V5H28l.31,0,.21,0a1.37,1.37,0,0,1,.29.07,2.05,2.05,0,0,1,.49.18,3.3,3.3,0,0,1,.32.18,2.78,2.78,0,0,1,.34.26,4,4,0,0,1,.29.29A2.79,2.79,0,0,1,30.71,6.74Z" class="colore47979 svgShape"></path></svg></g></svg>