<svg id="SvgjsSvg1001" width="288" height="288" xmlns="http://www.w3.org/2000/svg" version="1.1" xmlns:xlink="http://www.w3.org/1999/xlink" xmlns:svgjs="http://svgjs.com/svgjs"><defs id="SvgjsDefs1002"></defs><g id="SvgjsG1008" transform="matrix(0.916700005531311,0,0,0.916700005531311,11.989830017089844,11.995199203491211)"><svg xmlns="http://www.w3.org/2000/svg" data-name="Layer 1" viewBox="0 0 68 68" width="288" height="288"><path d="M61.15,15.4H44.07V10.33a4,4,0,0,0-4-4H27.93a4,4,0,0,0-4,4V15.4H6.85A5.86,5.86,0,0,0,1,21.25V31.71a1,1,0,0,0,.77,1l4,1V55.82a5.86,5.86,0,0,0,5.85,5.85H56.34a5.87,5.87,0,0,0,5.86-5.85V33.65l4-1a1,1,0,0,0,.77-1V21.25A5.86,5.86,0,0,0,61.15,15.4ZM25.93,10.33a2,2,0,0,1,2-2H40.07a2,2,0,0,1,2,2V15.4H25.93ZM60.2,55.82a3.86,3.86,0,0,1-3.86,3.85H11.66a3.86,3.86,0,0,1-3.85-3.85V34.13l10,2.39v9.56l3.51,3.51,3.51-3.51V38.2l8.92,2.13a.9.9,0,0,0,.46,0l8.92-2.13v7.88l3.51,3.51,3.51-3.51V36.52l10-2.39Z" fill="#1cb698" class="color000 svgShape"></path></svg></g></svg>